G04 #@! TF.GenerationSoftware,KiCad,Pcbnew,7.0.7-2.fc38*
G04 #@! TF.CreationDate,2023-10-29T11:35:09+01:00*
G04 #@! TF.ProjectId,mangopimqpro-lan8720,6d616e67-6f70-4696-9d71-70726f2d6c61,rev?*
G04 #@! TF.SameCoordinates,Original*
G04 #@! TF.FileFunction,Soldermask,Top*
G04 #@! TF.FilePolarity,Negative*
%FSLAX46Y46*%
G04 Gerber Fmt 4.6, Leading zero omitted, Abs format (unit mm)*
G04 Created by KiCad (PCBNEW 7.0.7-2.fc38) date 2023-10-29 11:35:09*
%MOMM*%
%LPD*%
G01*
G04 APERTURE LIST*
G04 Aperture macros list*
%AMRoundRect*
0 Rectangle with rounded corners*
0 $1 Rounding radius*
0 $2 $3 $4 $5 $6 $7 $8 $9 X,Y pos of 4 corners*
0 Add a 4 corners polygon primitive as box body*
4,1,4,$2,$3,$4,$5,$6,$7,$8,$9,$2,$3,0*
0 Add four circle primitives for the rounded corners*
1,1,$1+$1,$2,$3*
1,1,$1+$1,$4,$5*
1,1,$1+$1,$6,$7*
1,1,$1+$1,$8,$9*
0 Add four rect primitives between the rounded corners*
20,1,$1+$1,$2,$3,$4,$5,0*
20,1,$1+$1,$4,$5,$6,$7,0*
20,1,$1+$1,$6,$7,$8,$9,0*
20,1,$1+$1,$8,$9,$2,$3,0*%
G04 Aperture macros list end*
%ADD10RoundRect,0.250000X-0.350000X-0.450000X0.350000X-0.450000X0.350000X0.450000X-0.350000X0.450000X0*%
%ADD11RoundRect,0.250000X0.350000X0.450000X-0.350000X0.450000X-0.350000X-0.450000X0.350000X-0.450000X0*%
%ADD12RoundRect,0.250000X0.337500X0.475000X-0.337500X0.475000X-0.337500X-0.475000X0.337500X-0.475000X0*%
%ADD13C,3.250000*%
%ADD14C,1.890000*%
%ADD15R,1.900000X1.900000*%
%ADD16C,1.900000*%
%ADD17C,2.600000*%
%ADD18RoundRect,0.250000X-0.475000X0.337500X-0.475000X-0.337500X0.475000X-0.337500X0.475000X0.337500X0*%
%ADD19C,5.400000*%
%ADD20RoundRect,0.062500X0.062500X-0.375000X0.062500X0.375000X-0.062500X0.375000X-0.062500X-0.375000X0*%
%ADD21RoundRect,0.062500X0.375000X-0.062500X0.375000X0.062500X-0.375000X0.062500X-0.375000X-0.062500X0*%
%ADD22R,2.500000X2.500000*%
%ADD23RoundRect,0.250000X-0.337500X-0.475000X0.337500X-0.475000X0.337500X0.475000X-0.337500X0.475000X0*%
%ADD24RoundRect,0.250000X0.362500X0.700000X-0.362500X0.700000X-0.362500X-0.700000X0.362500X-0.700000X0*%
%ADD25RoundRect,0.250000X0.475000X-0.337500X0.475000X0.337500X-0.475000X0.337500X-0.475000X-0.337500X0*%
%ADD26R,1.300000X0.300000*%
%ADD27R,2.200000X1.800000*%
%ADD28R,1.800000X2.000000*%
G04 APERTURE END LIST*
D10*
X58500000Y-44250000D03*
X60500000Y-44250000D03*
D11*
X39250000Y-39250000D03*
X37250000Y-39250000D03*
D12*
X44037500Y-26750000D03*
X41962500Y-26750000D03*
D11*
X39250000Y-36000000D03*
X37250000Y-36000000D03*
D13*
X23530000Y-33835000D03*
X23530000Y-45265000D03*
D14*
X20150000Y-45875000D03*
X18630000Y-43335000D03*
X20150000Y-35765000D03*
X18630000Y-33225000D03*
D15*
X29870000Y-35105000D03*
D16*
X32410000Y-36375000D03*
X29870000Y-37645000D03*
X32410000Y-38915000D03*
X29870000Y-40185000D03*
X32410000Y-41455000D03*
X29870000Y-42725000D03*
X32410000Y-43995000D03*
D17*
X26580000Y-31775000D03*
X26580000Y-47325000D03*
D18*
X43000000Y-37212500D03*
X43000000Y-39287500D03*
D19*
X74000000Y-28000000D03*
D20*
X48062500Y-40187500D03*
X48562500Y-40187500D03*
X49062500Y-40187500D03*
X49562500Y-40187500D03*
X50062500Y-40187500D03*
X50562500Y-40187500D03*
D21*
X51250000Y-39500000D03*
X51250000Y-39000000D03*
X51250000Y-38500000D03*
X51250000Y-38000000D03*
X51250000Y-37500000D03*
X51250000Y-37000000D03*
D20*
X50562500Y-36312500D03*
X50062500Y-36312500D03*
X49562500Y-36312500D03*
X49062500Y-36312500D03*
X48562500Y-36312500D03*
X48062500Y-36312500D03*
D21*
X47375000Y-37000000D03*
X47375000Y-37500000D03*
X47375000Y-38000000D03*
X47375000Y-38500000D03*
X47375000Y-39000000D03*
X47375000Y-39500000D03*
D22*
X49312500Y-38250000D03*
D23*
X48212500Y-43250000D03*
X50287500Y-43250000D03*
D19*
X74000000Y-51000000D03*
D11*
X39250000Y-32750000D03*
X37250000Y-32750000D03*
D24*
X50750000Y-27000000D03*
X47425000Y-27000000D03*
D12*
X60537500Y-33750000D03*
X58462500Y-33750000D03*
X50325000Y-30750000D03*
X48250000Y-30750000D03*
D11*
X55250000Y-30750000D03*
X53250000Y-30750000D03*
X34800000Y-27600000D03*
X32800000Y-27600000D03*
D10*
X58500000Y-41000000D03*
X60500000Y-41000000D03*
D25*
X55250000Y-38537500D03*
X55250000Y-36462500D03*
D11*
X39250000Y-42500000D03*
X37250000Y-42500000D03*
D23*
X55712500Y-53000000D03*
X57787500Y-53000000D03*
D11*
X43750000Y-48000000D03*
X41750000Y-48000000D03*
D19*
X16000000Y-51000000D03*
D11*
X35700000Y-51800000D03*
X33700000Y-51800000D03*
D19*
X16000000Y-28000000D03*
D10*
X58500000Y-37500000D03*
X60500000Y-37500000D03*
D11*
X45000000Y-43250000D03*
X43000000Y-43250000D03*
D12*
X44037500Y-30250000D03*
X41962500Y-30250000D03*
D26*
X65200000Y-45250000D03*
X65200000Y-44750000D03*
X65200000Y-44250000D03*
X65200000Y-43750000D03*
X65200000Y-43250000D03*
X65200000Y-42750000D03*
X65200000Y-42250000D03*
X65200000Y-41750000D03*
X65200000Y-41250000D03*
X65200000Y-40750000D03*
X65200000Y-40250000D03*
X65200000Y-39750000D03*
X65200000Y-39250000D03*
X65200000Y-38750000D03*
X65200000Y-38250000D03*
X65200000Y-37750000D03*
X65200000Y-37250000D03*
X65200000Y-36750000D03*
X65200000Y-36250000D03*
X65200000Y-35750000D03*
X65200000Y-35250000D03*
X65200000Y-34750000D03*
X65200000Y-34250000D03*
X65200000Y-33750000D03*
D27*
X68450000Y-47150000D03*
X68450000Y-31850000D03*
D11*
X43750000Y-51750000D03*
X41750000Y-51750000D03*
D23*
X53712500Y-43250000D03*
X55787500Y-43250000D03*
D28*
X52040000Y-48650000D03*
X46960000Y-48650000D03*
X46960000Y-52850000D03*
X52040000Y-52850000D03*
M02*
