M48
; DRILL file {KiCad 7.0.7-2.fc38} date Sun 29 Oct 2023 11:35:13 AM CET
; FORMAT={-:-/ absolute / metric / decimal}
; #@! TF.CreationDate,2023-10-29T11:35:13+01:00
; #@! TF.GenerationSoftware,Kicad,Pcbnew,7.0.7-2.fc38
; #@! TF.FileFunction,Plated,1,4,PTH
FMAT,2
METRIC
; #@! TA.AperFunction,Plated,PTH,ViaDrill
T1C0.200
; #@! TA.AperFunction,Plated,PTH,ComponentDrill
T2C0.200
; #@! TA.AperFunction,Plated,PTH,ComponentDrill
T3C0.890
; #@! TA.AperFunction,Plated,PTH,ComponentDrill
T4C0.900
; #@! TA.AperFunction,Plated,PTH,ComponentDrill
T5C1.600
; #@! TA.AperFunction,Plated,PTH,ComponentDrill
T6C2.700
%
G90
G05
T1
X35.0Y-42.1
X35.659Y-41.526
X36.1Y-38.6
X36.1Y-40.8
X36.2Y-36.0
X36.9Y-37.7
X37.25Y-32.75
X37.25Y-36.0
X37.25Y-39.25
X38.3Y-37.9
X40.25Y-39.25
X40.3Y-43.5
X40.5Y-26.75
X40.5Y-32.75
X40.5Y-36.0
X41.05Y-41.1
X41.8Y-35.5
X42.0Y-43.25
X43.0Y-36.25
X43.0Y-40.25
X43.7Y-46.6
X45.5Y-30.25
X45.7Y-37.5
X45.7Y-38.5
X46.0Y-27.0
X46.25Y-37.0
X46.3Y-38.0
X46.3Y-38.974
X47.0Y-30.75
X47.0Y-43.25
X47.0Y-47.3
X48.1Y-33.3
X48.537Y-34.7
X48.6Y-41.575
X49.2Y-42.0
X49.3Y-32.8
X50.038Y-41.1
X50.1Y-35.5
X50.325Y-34.151
X51.25Y-35.25
X51.5Y-41.5
X51.6Y-43.3
X51.6Y-45.7
X51.75Y-27.0
X51.9Y-38.5
X52.0Y-37.5
X52.06Y-39.394
X52.246Y-42.254
X52.3Y-40.1
X52.5Y-38.0
X53.0Y-40.5
X54.2Y-34.1
X54.8Y-44.9
X55.25Y-35.5
X55.25Y-38.674
X55.75Y-51.75
X56.25Y-30.75
X56.5Y-36.8
X56.5Y-39.5
X56.75Y-43.25
X57.0Y-35.25
X57.0Y-42.25
X57.5Y-33.75
X57.5Y-41.0
X57.5Y-44.25
X58.3Y-39.9
X58.75Y-53.0
X59.4Y-38.5
X60.5Y-39.75
X60.5Y-41.0
X60.5Y-44.25
X61.0Y-35.0
X61.75Y-42.75
X62.2Y-43.8
X62.225Y-35.774
X62.8Y-36.276
X62.8Y-44.3
X63.25Y-41.25
X63.5Y-34.25
X63.5Y-35.25
X63.5Y-36.75
X63.5Y-37.75
X63.5Y-39.75
X63.75Y-40.75
X63.75Y-42.25
X63.75Y-43.25
X63.75Y-44.25
X64.25Y-37.25
X64.25Y-42.75
X64.25Y-43.75
X64.25Y-44.75
X64.275Y-41.775
T2
X48.312Y-37.25
X48.312Y-38.25
X48.312Y-39.25
X49.312Y-37.25
X49.312Y-38.25
X49.312Y-39.25
X50.312Y-37.25
X50.312Y-38.25
X50.312Y-39.25
T3
X18.63Y-33.225
X18.63Y-43.335
X20.15Y-35.765
X20.15Y-45.875
T4
X29.87Y-35.105
X29.87Y-37.645
X29.87Y-40.185
X29.87Y-42.725
X32.41Y-36.375
X32.41Y-38.915
X32.41Y-41.455
X32.41Y-43.995
T5
X26.58Y-31.775
X26.58Y-47.325
T6
X16.0Y-28.0
X16.0Y-51.0
X74.0Y-28.0
X74.0Y-51.0
T0
M30
