G04 #@! TF.GenerationSoftware,KiCad,Pcbnew,7.0.7-2.fc38*
G04 #@! TF.CreationDate,2023-10-29T11:35:08+01:00*
G04 #@! TF.ProjectId,mangopimqpro-lan8720,6d616e67-6f70-4696-9d71-70726f2d6c61,rev?*
G04 #@! TF.SameCoordinates,Original*
G04 #@! TF.FileFunction,Copper,L3,Inr*
G04 #@! TF.FilePolarity,Positive*
%FSLAX46Y46*%
G04 Gerber Fmt 4.6, Leading zero omitted, Abs format (unit mm)*
G04 Created by KiCad (PCBNEW 7.0.7-2.fc38) date 2023-10-29 11:35:08*
%MOMM*%
%LPD*%
G01*
G04 APERTURE LIST*
G04 #@! TA.AperFunction,ComponentPad*
%ADD10C,1.890000*%
G04 #@! TD*
G04 #@! TA.AperFunction,ComponentPad*
%ADD11R,1.900000X1.900000*%
G04 #@! TD*
G04 #@! TA.AperFunction,ComponentPad*
%ADD12C,1.900000*%
G04 #@! TD*
G04 #@! TA.AperFunction,ComponentPad*
%ADD13C,2.600000*%
G04 #@! TD*
G04 #@! TA.AperFunction,ComponentPad*
%ADD14C,5.400000*%
G04 #@! TD*
G04 #@! TA.AperFunction,ComponentPad*
%ADD15C,0.500000*%
G04 #@! TD*
G04 #@! TA.AperFunction,ViaPad*
%ADD16C,0.350000*%
G04 #@! TD*
G04 APERTURE END LIST*
D10*
X20150000Y-45875000D03*
X18630000Y-43335000D03*
X20150000Y-35765000D03*
X18630000Y-33225000D03*
D11*
X29870000Y-35105000D03*
D12*
X32410000Y-36375000D03*
X29870000Y-37645000D03*
X32410000Y-38915000D03*
X29870000Y-40185000D03*
X32410000Y-41455000D03*
X29870000Y-42725000D03*
X32410000Y-43995000D03*
D13*
X26580000Y-31775000D03*
X26580000Y-47325000D03*
D14*
X74000000Y-28000000D03*
D15*
X48312500Y-39250000D03*
X49312500Y-39250000D03*
X50312500Y-39250000D03*
X48312500Y-38250000D03*
X49312500Y-38250000D03*
X50312500Y-38250000D03*
X48312500Y-37250000D03*
X49312500Y-37250000D03*
X50312500Y-37250000D03*
D14*
X74000000Y-51000000D03*
X16000000Y-51000000D03*
X16000000Y-28000000D03*
D16*
X58750000Y-53000000D03*
X64250000Y-37250000D03*
X42000000Y-43250000D03*
X63500000Y-34250000D03*
X43000000Y-40250000D03*
X56750000Y-43250000D03*
X40500000Y-26750000D03*
X55250000Y-35500000D03*
X57500000Y-33750000D03*
X47000000Y-30750000D03*
X63750000Y-40750000D03*
X47000000Y-47300000D03*
X50325000Y-34150500D03*
X54800000Y-44900000D03*
X64250000Y-44750000D03*
X54200000Y-34100000D03*
X40500000Y-32750000D03*
X43000000Y-36250000D03*
X45500000Y-30250000D03*
X40500000Y-36000000D03*
X40250000Y-39250000D03*
X40300000Y-43500000D03*
X46000000Y-27000000D03*
X47000000Y-43250000D03*
X46250000Y-37000000D03*
X49300000Y-32800000D03*
X63750000Y-44250000D03*
X62800000Y-36275500D03*
X62800000Y-44300000D03*
X62225000Y-35774500D03*
X64250000Y-43750000D03*
X48100000Y-33300000D03*
X62200000Y-43800000D03*
X52500000Y-38000000D03*
X60500000Y-44250000D03*
X59400000Y-38500000D03*
X63750000Y-43250000D03*
X64250000Y-42750000D03*
X61750000Y-42750000D03*
X61000000Y-35000000D03*
X48537000Y-34700000D03*
X63750000Y-42250000D03*
X57000000Y-42250000D03*
X57000000Y-35250000D03*
X51250000Y-35250000D03*
X64275000Y-41775000D03*
X51500000Y-41500000D03*
X60500000Y-41000000D03*
X63250000Y-41250000D03*
X53000000Y-40500000D03*
X60500000Y-39750000D03*
X63500000Y-39750000D03*
X52000000Y-37500000D03*
X63500000Y-37750000D03*
X63500000Y-36750000D03*
X56500000Y-39500000D03*
X52059788Y-39393586D03*
X56500000Y-36800000D03*
X35000000Y-42100000D03*
X49200000Y-42000000D03*
X35659269Y-41525804D03*
X48600000Y-41574500D03*
X51600000Y-43300000D03*
X58300000Y-39900000D03*
X52245878Y-42254122D03*
X43700000Y-46600000D03*
X51600000Y-45700000D03*
X52300000Y-40100000D03*
X50100000Y-35500000D03*
X41800000Y-35500000D03*
X50038000Y-41100000D03*
X41050500Y-41100000D03*
X46300000Y-38000000D03*
X37250000Y-32750000D03*
X38300000Y-37900000D03*
X37250000Y-36000000D03*
X45700000Y-37500000D03*
X36200000Y-36000000D03*
X36900000Y-37700000D03*
X37250000Y-39250000D03*
X46300000Y-38974500D03*
X45700000Y-38500000D03*
X36100000Y-40800000D03*
X36100000Y-38600000D03*
X63500000Y-35250000D03*
X55250000Y-38674500D03*
X56250000Y-30750000D03*
X51900000Y-38500000D03*
X57500000Y-41000000D03*
X55750000Y-51750000D03*
X51750000Y-27000000D03*
X57500000Y-44250000D03*
G04 #@! TA.AperFunction,Conductor*
G36*
X72397070Y-25020185D02*
G01*
X72442825Y-25072989D01*
X72452769Y-25142147D01*
X72423744Y-25205703D01*
X72390012Y-25233028D01*
X72294545Y-25285790D01*
X72001377Y-25493805D01*
X71733339Y-25733339D01*
X71493805Y-26001377D01*
X71285790Y-26294545D01*
X71111905Y-26609168D01*
X70974339Y-26941281D01*
X70874828Y-27286694D01*
X70874826Y-27286703D01*
X70814614Y-27641085D01*
X70814612Y-27641097D01*
X70794457Y-28000000D01*
X70814612Y-28358902D01*
X70814613Y-28358907D01*
X70874827Y-28713300D01*
X70974341Y-29058724D01*
X71111906Y-29390833D01*
X71285789Y-29705452D01*
X71493806Y-29998623D01*
X71733339Y-30266661D01*
X72001377Y-30506194D01*
X72294548Y-30714211D01*
X72609167Y-30888094D01*
X72941276Y-31025659D01*
X73286700Y-31125173D01*
X73641093Y-31185387D01*
X74000000Y-31205543D01*
X74358907Y-31185387D01*
X74713300Y-31125173D01*
X75058724Y-31025659D01*
X75390833Y-30888094D01*
X75705452Y-30714211D01*
X75998623Y-30506194D01*
X76266661Y-30266661D01*
X76506194Y-29998623D01*
X76714211Y-29705452D01*
X76766972Y-29609986D01*
X76816628Y-29560834D01*
X76884976Y-29546331D01*
X76950315Y-29571081D01*
X76991901Y-29627227D01*
X76999500Y-29669968D01*
X76999500Y-49330031D01*
X76979815Y-49397070D01*
X76927011Y-49442825D01*
X76857853Y-49452769D01*
X76794297Y-49423744D01*
X76766972Y-49390012D01*
X76714209Y-49294545D01*
X76506194Y-49001377D01*
X76266661Y-48733339D01*
X75998623Y-48493806D01*
X75998622Y-48493805D01*
X75705454Y-48285790D01*
X75390831Y-48111905D01*
X75304086Y-48075974D01*
X75058724Y-47974341D01*
X75058720Y-47974339D01*
X75058718Y-47974339D01*
X74713305Y-47874828D01*
X74713296Y-47874826D01*
X74358914Y-47814614D01*
X74358902Y-47814612D01*
X74000000Y-47794457D01*
X73641097Y-47814612D01*
X73641085Y-47814614D01*
X73286703Y-47874826D01*
X73286694Y-47874828D01*
X72941281Y-47974339D01*
X72609168Y-48111905D01*
X72294545Y-48285790D01*
X72001377Y-48493805D01*
X71733339Y-48733339D01*
X71493805Y-49001377D01*
X71285790Y-49294545D01*
X71111905Y-49609168D01*
X70974339Y-49941281D01*
X70874828Y-50286694D01*
X70874826Y-50286703D01*
X70814614Y-50641085D01*
X70814612Y-50641097D01*
X70794457Y-50999999D01*
X70814612Y-51358902D01*
X70814614Y-51358914D01*
X70874826Y-51713296D01*
X70874828Y-51713305D01*
X70974339Y-52058718D01*
X71111905Y-52390831D01*
X71285790Y-52705454D01*
X71493805Y-52998622D01*
X71519278Y-53027126D01*
X71733339Y-53266661D01*
X71788805Y-53316228D01*
X72001377Y-53506194D01*
X72184661Y-53636242D01*
X72294548Y-53714211D01*
X72609167Y-53888094D01*
X72905741Y-54010939D01*
X72960143Y-54054780D01*
X72982208Y-54121074D01*
X72964929Y-54188774D01*
X72913791Y-54236384D01*
X72858287Y-54249500D01*
X50874000Y-54249500D01*
X50806961Y-54229815D01*
X50761206Y-54177011D01*
X50750000Y-54125500D01*
X50750000Y-53000000D01*
X58069539Y-53000000D01*
X58089311Y-53162842D01*
X58089312Y-53162845D01*
X58147482Y-53316226D01*
X58240668Y-53451229D01*
X58240670Y-53451231D01*
X58240672Y-53451233D01*
X58363451Y-53560006D01*
X58363452Y-53560006D01*
X58363454Y-53560008D01*
X58508705Y-53636242D01*
X58508707Y-53636242D01*
X58508708Y-53636243D01*
X58667978Y-53675500D01*
X58667979Y-53675500D01*
X58832022Y-53675500D01*
X58991291Y-53636243D01*
X58991291Y-53636242D01*
X58991295Y-53636242D01*
X59136546Y-53560008D01*
X59259332Y-53451229D01*
X59352518Y-53316226D01*
X59410688Y-53162845D01*
X59430461Y-53000000D01*
X59410688Y-52837155D01*
X59352518Y-52683774D01*
X59259332Y-52548771D01*
X59259329Y-52548768D01*
X59259327Y-52548766D01*
X59136548Y-52439993D01*
X58991291Y-52363756D01*
X58832022Y-52324500D01*
X58832021Y-52324500D01*
X58667979Y-52324500D01*
X58667978Y-52324500D01*
X58508708Y-52363756D01*
X58363451Y-52439993D01*
X58240672Y-52548766D01*
X58240666Y-52548773D01*
X58147483Y-52683771D01*
X58089312Y-52837154D01*
X58089311Y-52837157D01*
X58069539Y-52999999D01*
X58069539Y-53000000D01*
X50750000Y-53000000D01*
X50750000Y-46040315D01*
X50769685Y-45973276D01*
X50822489Y-45927521D01*
X50891647Y-45917577D01*
X50955203Y-45946602D01*
X50989941Y-45996343D01*
X50997482Y-46016226D01*
X51090668Y-46151229D01*
X51090670Y-46151231D01*
X51090672Y-46151233D01*
X51213451Y-46260006D01*
X51213452Y-46260006D01*
X51213454Y-46260008D01*
X51358705Y-46336242D01*
X51358707Y-46336242D01*
X51358708Y-46336243D01*
X51517978Y-46375500D01*
X51517979Y-46375500D01*
X51682022Y-46375500D01*
X51841291Y-46336243D01*
X51841291Y-46336242D01*
X51841295Y-46336242D01*
X51986546Y-46260008D01*
X52109332Y-46151229D01*
X52202518Y-46016226D01*
X52260688Y-45862845D01*
X52280461Y-45700000D01*
X52260688Y-45537155D01*
X52202518Y-45383774D01*
X52109332Y-45248771D01*
X52109329Y-45248768D01*
X52109327Y-45248766D01*
X51986548Y-45139993D01*
X51841291Y-45063756D01*
X51682022Y-45024500D01*
X51682021Y-45024500D01*
X51517979Y-45024500D01*
X51517978Y-45024500D01*
X51358708Y-45063756D01*
X51213451Y-45139993D01*
X51090672Y-45248766D01*
X51090666Y-45248773D01*
X50997483Y-45383772D01*
X50997481Y-45383775D01*
X50989941Y-45403657D01*
X50947763Y-45459359D01*
X50882165Y-45483415D01*
X50813975Y-45468187D01*
X50764842Y-45418511D01*
X50750000Y-45359684D01*
X50750000Y-44900000D01*
X54119539Y-44900000D01*
X54139311Y-45062842D01*
X54139312Y-45062845D01*
X54191794Y-45201229D01*
X54197483Y-45216228D01*
X54262214Y-45310006D01*
X54290668Y-45351229D01*
X54290670Y-45351231D01*
X54290672Y-45351233D01*
X54413451Y-45460006D01*
X54413452Y-45460006D01*
X54413454Y-45460008D01*
X54558705Y-45536242D01*
X54558707Y-45536242D01*
X54558708Y-45536243D01*
X54717978Y-45575500D01*
X54717979Y-45575500D01*
X54882022Y-45575500D01*
X55041291Y-45536243D01*
X55041291Y-45536242D01*
X55041295Y-45536242D01*
X55186546Y-45460008D01*
X55309332Y-45351229D01*
X55402518Y-45216226D01*
X55460688Y-45062845D01*
X55480461Y-44900000D01*
X55478790Y-44886242D01*
X55469534Y-44810006D01*
X55460688Y-44737155D01*
X55402518Y-44583774D01*
X55309332Y-44448771D01*
X55309329Y-44448768D01*
X55309327Y-44448766D01*
X55186548Y-44339993D01*
X55041291Y-44263756D01*
X54985480Y-44250000D01*
X59819539Y-44250000D01*
X59839311Y-44412842D01*
X59839312Y-44412845D01*
X59897483Y-44566228D01*
X59931995Y-44616227D01*
X59990668Y-44701229D01*
X59990670Y-44701231D01*
X59990672Y-44701233D01*
X60113451Y-44810006D01*
X60113452Y-44810006D01*
X60113454Y-44810008D01*
X60258705Y-44886242D01*
X60258707Y-44886242D01*
X60258708Y-44886243D01*
X60417978Y-44925500D01*
X60417979Y-44925500D01*
X60582022Y-44925500D01*
X60741291Y-44886243D01*
X60741291Y-44886242D01*
X60741295Y-44886242D01*
X60886546Y-44810008D01*
X61009332Y-44701229D01*
X61102518Y-44566226D01*
X61160688Y-44412845D01*
X61180461Y-44250000D01*
X61160688Y-44087155D01*
X61102518Y-43933774D01*
X61009332Y-43798771D01*
X61009329Y-43798768D01*
X61009327Y-43798766D01*
X60886548Y-43689993D01*
X60741291Y-43613756D01*
X60582022Y-43574500D01*
X60582021Y-43574500D01*
X60417979Y-43574500D01*
X60417978Y-43574500D01*
X60258708Y-43613756D01*
X60113451Y-43689993D01*
X59990672Y-43798766D01*
X59990666Y-43798773D01*
X59897483Y-43933771D01*
X59839312Y-44087154D01*
X59839311Y-44087157D01*
X59819539Y-44249999D01*
X59819539Y-44250000D01*
X54985480Y-44250000D01*
X54882022Y-44224500D01*
X54882021Y-44224500D01*
X54717979Y-44224500D01*
X54717978Y-44224500D01*
X54558708Y-44263756D01*
X54413451Y-44339993D01*
X54290672Y-44448766D01*
X54290666Y-44448773D01*
X54197483Y-44583771D01*
X54139312Y-44737154D01*
X54139311Y-44737157D01*
X54119539Y-44899999D01*
X54119539Y-44900000D01*
X50750000Y-44900000D01*
X50750000Y-43640315D01*
X50769685Y-43573276D01*
X50822489Y-43527521D01*
X50891647Y-43517577D01*
X50955203Y-43546602D01*
X50989941Y-43596343D01*
X50997482Y-43616226D01*
X51090668Y-43751229D01*
X51090670Y-43751231D01*
X51090672Y-43751233D01*
X51213451Y-43860006D01*
X51213452Y-43860006D01*
X51213454Y-43860008D01*
X51358705Y-43936242D01*
X51358707Y-43936242D01*
X51358708Y-43936243D01*
X51517978Y-43975500D01*
X51517979Y-43975500D01*
X51682022Y-43975500D01*
X51841291Y-43936243D01*
X51841291Y-43936242D01*
X51841295Y-43936242D01*
X51986546Y-43860008D01*
X52109332Y-43751229D01*
X52202518Y-43616226D01*
X52260688Y-43462845D01*
X52280461Y-43300000D01*
X52274390Y-43250000D01*
X56069539Y-43250000D01*
X56089311Y-43412842D01*
X56089312Y-43412845D01*
X56108273Y-43462842D01*
X56147483Y-43566228D01*
X56214804Y-43663758D01*
X56240668Y-43701229D01*
X56240670Y-43701231D01*
X56240672Y-43701233D01*
X56363451Y-43810006D01*
X56363452Y-43810006D01*
X56363454Y-43810008D01*
X56508705Y-43886242D01*
X56508707Y-43886242D01*
X56508708Y-43886243D01*
X56667978Y-43925500D01*
X56667979Y-43925500D01*
X56832022Y-43925500D01*
X56991291Y-43886243D01*
X56991291Y-43886242D01*
X56991295Y-43886242D01*
X57136546Y-43810008D01*
X57259332Y-43701229D01*
X57352518Y-43566226D01*
X57410688Y-43412845D01*
X57430461Y-43250000D01*
X57410688Y-43087155D01*
X57356291Y-42943724D01*
X57350925Y-42874065D01*
X57384072Y-42812558D01*
X57389977Y-42806968D01*
X57454281Y-42750000D01*
X61069539Y-42750000D01*
X61089311Y-42912842D01*
X61089312Y-42912844D01*
X61089312Y-42912845D01*
X61144432Y-43058185D01*
X61147483Y-43066228D01*
X61166228Y-43093384D01*
X61240668Y-43201229D01*
X61240670Y-43201231D01*
X61240672Y-43201233D01*
X61363451Y-43310006D01*
X61363452Y-43310006D01*
X61363454Y-43310008D01*
X61508705Y-43386242D01*
X61508708Y-43386242D01*
X61515347Y-43389727D01*
X61513911Y-43392461D01*
X61558379Y-43426096D01*
X61582470Y-43491682D01*
X61574685Y-43543882D01*
X61539313Y-43637151D01*
X61539311Y-43637157D01*
X61519539Y-43799999D01*
X61519539Y-43800000D01*
X61539311Y-43962842D01*
X61539312Y-43962845D01*
X61597482Y-44116226D01*
X61690668Y-44251229D01*
X61690670Y-44251231D01*
X61690672Y-44251233D01*
X61813451Y-44360006D01*
X61813452Y-44360006D01*
X61813454Y-44360008D01*
X61958705Y-44436242D01*
X61958707Y-44436242D01*
X61958708Y-44436243D01*
X62033158Y-44454593D01*
X62083616Y-44467030D01*
X62143997Y-44502186D01*
X62169883Y-44543455D01*
X62197482Y-44616227D01*
X62256153Y-44701226D01*
X62290668Y-44751229D01*
X62290670Y-44751231D01*
X62290672Y-44751233D01*
X62413451Y-44860006D01*
X62413452Y-44860006D01*
X62413454Y-44860008D01*
X62558705Y-44936242D01*
X62558707Y-44936242D01*
X62558708Y-44936243D01*
X62717978Y-44975500D01*
X62717979Y-44975500D01*
X62882022Y-44975500D01*
X63041291Y-44936243D01*
X63041291Y-44936242D01*
X63041295Y-44936242D01*
X63186546Y-44860008D01*
X63223735Y-44827060D01*
X63286967Y-44797339D01*
X63356231Y-44806521D01*
X63363589Y-44810079D01*
X63508703Y-44886241D01*
X63508705Y-44886242D01*
X63523304Y-44889840D01*
X63583683Y-44924994D01*
X63609572Y-44966266D01*
X63647482Y-45066226D01*
X63740668Y-45201229D01*
X63740670Y-45201231D01*
X63740672Y-45201233D01*
X63863451Y-45310006D01*
X63863452Y-45310006D01*
X63863454Y-45310008D01*
X64008705Y-45386242D01*
X64008707Y-45386242D01*
X64008708Y-45386243D01*
X64167978Y-45425500D01*
X64167979Y-45425500D01*
X64332022Y-45425500D01*
X64491291Y-45386243D01*
X64491291Y-45386242D01*
X64491295Y-45386242D01*
X64636546Y-45310008D01*
X64759332Y-45201229D01*
X64852518Y-45066226D01*
X64910688Y-44912845D01*
X64930461Y-44750000D01*
X64910688Y-44587155D01*
X64852518Y-44433774D01*
X64774288Y-44320439D01*
X64752406Y-44254086D01*
X64769871Y-44186434D01*
X64774289Y-44179560D01*
X64838070Y-44087157D01*
X64852518Y-44066226D01*
X64910688Y-43912845D01*
X64930461Y-43750000D01*
X64910688Y-43587155D01*
X64852518Y-43433774D01*
X64822114Y-43389727D01*
X64774289Y-43320440D01*
X64752406Y-43254086D01*
X64769871Y-43186434D01*
X64774289Y-43179560D01*
X64785196Y-43163758D01*
X64852518Y-43066226D01*
X64910688Y-42912845D01*
X64930461Y-42750000D01*
X64910688Y-42587155D01*
X64852518Y-42433774D01*
X64795417Y-42351049D01*
X64773534Y-42284695D01*
X64790999Y-42217043D01*
X64795417Y-42210169D01*
X64805760Y-42195185D01*
X64877518Y-42091226D01*
X64935688Y-41937845D01*
X64955461Y-41775000D01*
X64935688Y-41612155D01*
X64877518Y-41458774D01*
X64784332Y-41323771D01*
X64784329Y-41323768D01*
X64784327Y-41323766D01*
X64661548Y-41214993D01*
X64516291Y-41138756D01*
X64477262Y-41129137D01*
X64416881Y-41093980D01*
X64385093Y-41031761D01*
X64390996Y-40964767D01*
X64396131Y-40951229D01*
X64410688Y-40912845D01*
X64430461Y-40750000D01*
X64410688Y-40587155D01*
X64352518Y-40433774D01*
X64259332Y-40298771D01*
X64259329Y-40298768D01*
X64259327Y-40298766D01*
X64140007Y-40193058D01*
X64102880Y-40133869D01*
X64103648Y-40064003D01*
X64106278Y-40056309D01*
X64160688Y-39912845D01*
X64180461Y-39750000D01*
X64160688Y-39587155D01*
X64102518Y-39433774D01*
X64009332Y-39298771D01*
X64009329Y-39298768D01*
X64009327Y-39298766D01*
X63886548Y-39189993D01*
X63741291Y-39113756D01*
X63582022Y-39074500D01*
X63582021Y-39074500D01*
X63417979Y-39074500D01*
X63417978Y-39074500D01*
X63258708Y-39113756D01*
X63113451Y-39189993D01*
X62990672Y-39298766D01*
X62990666Y-39298773D01*
X62897483Y-39433771D01*
X62839312Y-39587154D01*
X62839311Y-39587157D01*
X62819539Y-39749999D01*
X62819539Y-39750000D01*
X62839311Y-39912842D01*
X62839312Y-39912844D01*
X62839312Y-39912845D01*
X62874356Y-40005249D01*
X62897483Y-40066228D01*
X62972909Y-40175500D01*
X62990668Y-40201229D01*
X62990670Y-40201231D01*
X62990672Y-40201233D01*
X63109992Y-40306941D01*
X63147119Y-40366130D01*
X63146351Y-40435995D01*
X63143706Y-40443728D01*
X63109570Y-40533734D01*
X63067392Y-40589437D01*
X63023311Y-40610157D01*
X63008705Y-40613757D01*
X63008701Y-40613759D01*
X62863455Y-40689990D01*
X62863453Y-40689992D01*
X62740672Y-40798766D01*
X62740666Y-40798773D01*
X62647483Y-40933771D01*
X62589312Y-41087154D01*
X62589311Y-41087157D01*
X62569539Y-41249999D01*
X62569539Y-41250000D01*
X62589311Y-41412842D01*
X62589312Y-41412845D01*
X62647483Y-41566228D01*
X62695811Y-41636243D01*
X62740668Y-41701229D01*
X62740670Y-41701231D01*
X62740672Y-41701233D01*
X62863451Y-41810006D01*
X62863452Y-41810006D01*
X62863454Y-41810008D01*
X63008705Y-41886242D01*
X63008708Y-41886242D01*
X63008709Y-41886243D01*
X63016202Y-41888090D01*
X63076583Y-41923245D01*
X63108372Y-41985464D01*
X63102470Y-42052457D01*
X63089313Y-42087148D01*
X63089311Y-42087157D01*
X63069539Y-42249999D01*
X63069539Y-42250000D01*
X63089311Y-42412842D01*
X63089312Y-42412845D01*
X63147483Y-42566228D01*
X63225710Y-42679559D01*
X63247593Y-42745913D01*
X63230128Y-42813565D01*
X63225711Y-42820438D01*
X63147483Y-42933772D01*
X63089312Y-43087154D01*
X63089311Y-43087157D01*
X63069539Y-43249999D01*
X63069539Y-43250000D01*
X63089311Y-43412842D01*
X63089312Y-43412848D01*
X63115454Y-43481776D01*
X63120821Y-43551439D01*
X63087674Y-43612945D01*
X63026536Y-43646767D01*
X62969837Y-43646144D01*
X62916383Y-43632969D01*
X62856003Y-43597813D01*
X62830116Y-43556543D01*
X62802518Y-43483774D01*
X62762706Y-43426096D01*
X62709332Y-43348771D01*
X62709329Y-43348768D01*
X62709327Y-43348766D01*
X62586546Y-43239992D01*
X62586544Y-43239990D01*
X62434654Y-43160272D01*
X62436078Y-43157558D01*
X62391541Y-43123796D01*
X62367521Y-43058185D01*
X62375313Y-43006120D01*
X62410688Y-42912845D01*
X62430461Y-42750000D01*
X62410688Y-42587155D01*
X62352518Y-42433774D01*
X62259332Y-42298771D01*
X62259329Y-42298768D01*
X62259327Y-42298766D01*
X62136548Y-42189993D01*
X61991291Y-42113756D01*
X61832022Y-42074500D01*
X61832021Y-42074500D01*
X61667979Y-42074500D01*
X61667978Y-42074500D01*
X61508708Y-42113756D01*
X61363451Y-42189993D01*
X61240672Y-42298766D01*
X61240666Y-42298773D01*
X61147483Y-42433771D01*
X61089312Y-42587154D01*
X61089311Y-42587157D01*
X61069539Y-42749999D01*
X61069539Y-42750000D01*
X57454281Y-42750000D01*
X57509332Y-42701229D01*
X57602518Y-42566226D01*
X57660688Y-42412845D01*
X57680461Y-42250000D01*
X57660688Y-42087155D01*
X57602518Y-41933774D01*
X57509332Y-41798771D01*
X57509329Y-41798768D01*
X57509327Y-41798766D01*
X57386548Y-41689993D01*
X57241291Y-41613756D01*
X57082022Y-41574500D01*
X57082021Y-41574500D01*
X56917979Y-41574500D01*
X56917978Y-41574500D01*
X56758708Y-41613756D01*
X56613451Y-41689993D01*
X56490672Y-41798766D01*
X56490666Y-41798773D01*
X56397483Y-41933771D01*
X56339312Y-42087154D01*
X56339311Y-42087157D01*
X56319539Y-42249999D01*
X56319539Y-42250000D01*
X56339311Y-42412842D01*
X56339312Y-42412848D01*
X56393707Y-42556272D01*
X56399074Y-42625935D01*
X56365927Y-42687441D01*
X56359993Y-42693058D01*
X56240668Y-42798770D01*
X56240666Y-42798773D01*
X56147483Y-42933771D01*
X56089312Y-43087154D01*
X56089311Y-43087157D01*
X56069539Y-43249999D01*
X56069539Y-43250000D01*
X52274390Y-43250000D01*
X52260688Y-43137155D01*
X52260687Y-43137153D01*
X52260687Y-43137151D01*
X52244088Y-43093384D01*
X52238721Y-43023721D01*
X52271868Y-42962215D01*
X52330352Y-42929017D01*
X52487173Y-42890364D01*
X52632424Y-42814130D01*
X52755210Y-42705351D01*
X52848396Y-42570348D01*
X52906566Y-42416967D01*
X52926339Y-42254122D01*
X52925838Y-42250000D01*
X52918552Y-42189992D01*
X52906566Y-42091277D01*
X52848396Y-41937896D01*
X52755210Y-41802893D01*
X52755207Y-41802890D01*
X52755205Y-41802888D01*
X52632426Y-41694115D01*
X52572846Y-41662845D01*
X52487173Y-41617880D01*
X52487172Y-41617879D01*
X52487169Y-41617878D01*
X52327900Y-41578622D01*
X52327899Y-41578622D01*
X52299862Y-41578622D01*
X52232823Y-41558937D01*
X52187068Y-41506133D01*
X52176766Y-41469568D01*
X52160688Y-41337157D01*
X52160688Y-41337155D01*
X52102518Y-41183774D01*
X52009332Y-41048771D01*
X52009329Y-41048768D01*
X52009327Y-41048766D01*
X51886548Y-40939993D01*
X51741291Y-40863756D01*
X51582022Y-40824500D01*
X51582021Y-40824500D01*
X51417979Y-40824500D01*
X51417978Y-40824500D01*
X51258708Y-40863756D01*
X51113451Y-40939993D01*
X50990672Y-41048766D01*
X50990667Y-41048771D01*
X50976049Y-41069950D01*
X50921765Y-41113939D01*
X50852317Y-41121597D01*
X50789752Y-41090493D01*
X50753936Y-41030502D01*
X50750000Y-40999508D01*
X50750000Y-39925228D01*
X50769685Y-39858189D01*
X50786310Y-39837556D01*
X50902977Y-39720890D01*
X50909938Y-39709812D01*
X50992952Y-39577697D01*
X50992954Y-39577694D01*
X50992954Y-39577692D01*
X50992956Y-39577690D01*
X51048813Y-39418059D01*
X51048813Y-39418058D01*
X51048814Y-39418056D01*
X51067749Y-39250002D01*
X51067749Y-39249997D01*
X51048814Y-39081943D01*
X51030193Y-39028730D01*
X50992956Y-38922310D01*
X50992954Y-38922307D01*
X50992954Y-38922306D01*
X50937202Y-38833579D01*
X50926138Y-38815971D01*
X50907138Y-38748737D01*
X50926138Y-38684029D01*
X50992956Y-38577690D01*
X51048813Y-38418059D01*
X51048813Y-38418058D01*
X51048814Y-38418056D01*
X51067749Y-38250002D01*
X51067749Y-38249997D01*
X51048814Y-38081943D01*
X51020140Y-37999999D01*
X50992956Y-37922310D01*
X50992954Y-37922307D01*
X50992954Y-37922306D01*
X50956164Y-37863756D01*
X50926138Y-37815971D01*
X50907138Y-37748737D01*
X50926138Y-37684029D01*
X50992956Y-37577690D01*
X51020141Y-37500000D01*
X51319539Y-37500000D01*
X51339311Y-37662842D01*
X51339312Y-37662845D01*
X51397483Y-37816228D01*
X51445811Y-37886243D01*
X51490668Y-37951229D01*
X51490670Y-37951231D01*
X51490672Y-37951233D01*
X51613451Y-38060006D01*
X51613452Y-38060006D01*
X51613454Y-38060008D01*
X51758705Y-38136242D01*
X51773304Y-38139840D01*
X51833683Y-38174994D01*
X51859572Y-38216266D01*
X51897482Y-38316226D01*
X51967770Y-38418056D01*
X51990666Y-38451226D01*
X51990668Y-38451229D01*
X52047797Y-38501841D01*
X52084923Y-38561031D01*
X52084155Y-38630896D01*
X52045737Y-38689256D01*
X51985021Y-38716180D01*
X51985049Y-38716291D01*
X51984426Y-38716444D01*
X51981866Y-38717580D01*
X51980517Y-38717752D01*
X51977766Y-38718086D01*
X51818496Y-38757342D01*
X51673239Y-38833579D01*
X51550460Y-38942352D01*
X51550454Y-38942359D01*
X51457271Y-39077357D01*
X51399100Y-39230740D01*
X51399099Y-39230743D01*
X51379327Y-39393585D01*
X51379327Y-39393586D01*
X51399099Y-39556428D01*
X51399100Y-39556431D01*
X51457271Y-39709814D01*
X51476145Y-39737157D01*
X51550456Y-39844815D01*
X51550458Y-39844817D01*
X51550460Y-39844819D01*
X51592091Y-39881701D01*
X51629218Y-39940890D01*
X51632960Y-39989462D01*
X51619539Y-40099999D01*
X51619539Y-40100000D01*
X51639311Y-40262842D01*
X51639312Y-40262845D01*
X51656035Y-40306941D01*
X51697483Y-40416228D01*
X51733091Y-40467815D01*
X51790668Y-40551229D01*
X51790670Y-40551231D01*
X51790672Y-40551233D01*
X51913451Y-40660006D01*
X51913452Y-40660006D01*
X51913454Y-40660008D01*
X52058705Y-40736242D01*
X52058707Y-40736242D01*
X52058708Y-40736243D01*
X52217978Y-40775500D01*
X52304291Y-40775500D01*
X52371330Y-40795185D01*
X52406340Y-40829059D01*
X52490668Y-40951229D01*
X52490670Y-40951231D01*
X52490672Y-40951233D01*
X52613451Y-41060006D01*
X52613452Y-41060006D01*
X52613454Y-41060008D01*
X52758705Y-41136242D01*
X52758707Y-41136242D01*
X52758708Y-41136243D01*
X52917978Y-41175500D01*
X52917979Y-41175500D01*
X53082022Y-41175500D01*
X53241291Y-41136243D01*
X53241291Y-41136242D01*
X53241295Y-41136242D01*
X53386546Y-41060008D01*
X53454281Y-41000000D01*
X59819539Y-41000000D01*
X59839311Y-41162842D01*
X59839312Y-41162845D01*
X59897483Y-41316228D01*
X59964171Y-41412842D01*
X59990668Y-41451229D01*
X59990670Y-41451231D01*
X59990672Y-41451233D01*
X60113451Y-41560006D01*
X60113452Y-41560006D01*
X60113454Y-41560008D01*
X60258705Y-41636242D01*
X60258707Y-41636242D01*
X60258708Y-41636243D01*
X60417978Y-41675500D01*
X60417979Y-41675500D01*
X60582022Y-41675500D01*
X60741291Y-41636243D01*
X60741291Y-41636242D01*
X60741295Y-41636242D01*
X60886546Y-41560008D01*
X61009332Y-41451229D01*
X61102518Y-41316226D01*
X61160688Y-41162845D01*
X61180461Y-41000000D01*
X61160688Y-40837155D01*
X61102518Y-40683774D01*
X61009332Y-40548771D01*
X61009329Y-40548768D01*
X61009327Y-40548766D01*
X60917952Y-40467815D01*
X60880825Y-40408626D01*
X60881593Y-40338760D01*
X60917952Y-40282185D01*
X60956444Y-40248083D01*
X61009332Y-40201229D01*
X61102518Y-40066226D01*
X61160688Y-39912845D01*
X61180461Y-39750000D01*
X61160688Y-39587155D01*
X61102518Y-39433774D01*
X61009332Y-39298771D01*
X61009329Y-39298768D01*
X61009327Y-39298766D01*
X60886548Y-39189993D01*
X60741291Y-39113756D01*
X60582022Y-39074500D01*
X60582021Y-39074500D01*
X60417979Y-39074500D01*
X60417978Y-39074500D01*
X60258708Y-39113756D01*
X60113451Y-39189993D01*
X59990672Y-39298766D01*
X59990666Y-39298773D01*
X59897483Y-39433771D01*
X59839312Y-39587154D01*
X59839311Y-39587157D01*
X59819539Y-39749999D01*
X59819539Y-39750000D01*
X59839311Y-39912842D01*
X59839312Y-39912844D01*
X59839312Y-39912845D01*
X59874356Y-40005249D01*
X59897483Y-40066228D01*
X59990666Y-40201226D01*
X59990668Y-40201229D01*
X60082048Y-40282185D01*
X60119174Y-40341375D01*
X60118406Y-40411240D01*
X60082048Y-40467815D01*
X59990668Y-40548770D01*
X59990666Y-40548773D01*
X59897483Y-40683771D01*
X59839312Y-40837154D01*
X59839311Y-40837157D01*
X59819539Y-40999999D01*
X59819539Y-41000000D01*
X53454281Y-41000000D01*
X53509332Y-40951229D01*
X53602518Y-40816226D01*
X53660688Y-40662845D01*
X53680461Y-40500000D01*
X53660688Y-40337155D01*
X53602518Y-40183774D01*
X53509332Y-40048771D01*
X53509329Y-40048768D01*
X53509327Y-40048766D01*
X53386548Y-39939993D01*
X53241291Y-39863756D01*
X53082022Y-39824500D01*
X53082021Y-39824500D01*
X52995709Y-39824500D01*
X52928670Y-39804815D01*
X52893659Y-39770940D01*
X52879205Y-39750000D01*
X52809332Y-39648771D01*
X52809330Y-39648769D01*
X52767694Y-39611882D01*
X52730569Y-39552692D01*
X52726827Y-39504124D01*
X52727328Y-39500000D01*
X55819539Y-39500000D01*
X55839311Y-39662842D01*
X55839312Y-39662845D01*
X55893154Y-39804815D01*
X55897483Y-39816228D01*
X55930291Y-39863758D01*
X55990668Y-39951229D01*
X55990670Y-39951231D01*
X55990672Y-39951233D01*
X56113451Y-40060006D01*
X56113452Y-40060006D01*
X56113454Y-40060008D01*
X56258705Y-40136242D01*
X56258707Y-40136242D01*
X56258708Y-40136243D01*
X56417978Y-40175500D01*
X56417979Y-40175500D01*
X56582022Y-40175500D01*
X56741291Y-40136243D01*
X56741291Y-40136242D01*
X56741295Y-40136242D01*
X56886546Y-40060008D01*
X57009332Y-39951229D01*
X57044693Y-39900000D01*
X57619539Y-39900000D01*
X57639311Y-40062842D01*
X57639312Y-40062845D01*
X57697482Y-40216226D01*
X57790668Y-40351229D01*
X57790670Y-40351231D01*
X57790672Y-40351233D01*
X57913451Y-40460006D01*
X57913452Y-40460006D01*
X57913454Y-40460008D01*
X58058705Y-40536242D01*
X58058707Y-40536242D01*
X58058708Y-40536243D01*
X58217978Y-40575500D01*
X58217979Y-40575500D01*
X58382022Y-40575500D01*
X58541291Y-40536243D01*
X58541291Y-40536242D01*
X58541295Y-40536242D01*
X58686546Y-40460008D01*
X58809332Y-40351229D01*
X58902518Y-40216226D01*
X58960688Y-40062845D01*
X58980461Y-39900000D01*
X58960688Y-39737155D01*
X58902518Y-39583774D01*
X58809332Y-39448771D01*
X58809329Y-39448768D01*
X58809327Y-39448766D01*
X58686548Y-39339993D01*
X58541291Y-39263756D01*
X58382022Y-39224500D01*
X58382021Y-39224500D01*
X58217979Y-39224500D01*
X58217978Y-39224500D01*
X58058708Y-39263756D01*
X57913451Y-39339993D01*
X57790672Y-39448766D01*
X57790666Y-39448773D01*
X57697483Y-39583771D01*
X57639312Y-39737154D01*
X57639311Y-39737157D01*
X57619539Y-39899999D01*
X57619539Y-39900000D01*
X57044693Y-39900000D01*
X57102518Y-39816226D01*
X57160688Y-39662845D01*
X57180461Y-39500000D01*
X57160688Y-39337155D01*
X57102518Y-39183774D01*
X57009332Y-39048771D01*
X57009329Y-39048768D01*
X57009327Y-39048766D01*
X56886548Y-38939993D01*
X56741291Y-38863756D01*
X56582022Y-38824500D01*
X56582021Y-38824500D01*
X56417979Y-38824500D01*
X56417978Y-38824500D01*
X56258708Y-38863756D01*
X56113451Y-38939993D01*
X55990672Y-39048766D01*
X55990666Y-39048773D01*
X55897483Y-39183771D01*
X55839312Y-39337154D01*
X55839311Y-39337157D01*
X55819539Y-39499999D01*
X55819539Y-39500000D01*
X52727328Y-39500000D01*
X52740249Y-39393586D01*
X52720476Y-39230741D01*
X52662306Y-39077360D01*
X52569120Y-38942357D01*
X52566452Y-38939993D01*
X52511990Y-38891744D01*
X52474864Y-38832554D01*
X52475632Y-38762689D01*
X52514050Y-38704329D01*
X52574765Y-38677404D01*
X52574739Y-38677295D01*
X52575353Y-38677143D01*
X52577921Y-38676005D01*
X52579284Y-38675832D01*
X52582014Y-38675500D01*
X52582021Y-38675500D01*
X52741295Y-38636242D01*
X52886546Y-38560008D01*
X52954281Y-38500000D01*
X58719539Y-38500000D01*
X58739311Y-38662842D01*
X58739312Y-38662845D01*
X58759581Y-38716291D01*
X58797483Y-38816228D01*
X58830291Y-38863758D01*
X58890668Y-38951229D01*
X58890670Y-38951231D01*
X58890672Y-38951233D01*
X59013451Y-39060006D01*
X59013452Y-39060006D01*
X59013454Y-39060008D01*
X59158705Y-39136242D01*
X59158707Y-39136242D01*
X59158708Y-39136243D01*
X59317978Y-39175500D01*
X59317979Y-39175500D01*
X59482022Y-39175500D01*
X59641291Y-39136243D01*
X59641291Y-39136242D01*
X59641295Y-39136242D01*
X59786546Y-39060008D01*
X59909332Y-38951229D01*
X60002518Y-38816226D01*
X60060688Y-38662845D01*
X60080461Y-38500000D01*
X60060688Y-38337155D01*
X60002518Y-38183774D01*
X59909332Y-38048771D01*
X59909329Y-38048768D01*
X59909327Y-38048766D01*
X59786548Y-37939993D01*
X59641291Y-37863756D01*
X59482022Y-37824500D01*
X59482021Y-37824500D01*
X59317979Y-37824500D01*
X59317978Y-37824500D01*
X59158708Y-37863756D01*
X59013451Y-37939993D01*
X58890672Y-38048766D01*
X58890666Y-38048773D01*
X58797483Y-38183771D01*
X58739312Y-38337154D01*
X58739311Y-38337157D01*
X58719539Y-38499999D01*
X58719539Y-38500000D01*
X52954281Y-38500000D01*
X53009332Y-38451229D01*
X53102518Y-38316226D01*
X53160688Y-38162845D01*
X53180461Y-38000000D01*
X53160688Y-37837155D01*
X53102518Y-37683774D01*
X53009332Y-37548771D01*
X53009329Y-37548768D01*
X53009327Y-37548766D01*
X52886546Y-37439992D01*
X52886544Y-37439990D01*
X52741294Y-37363757D01*
X52726690Y-37360157D01*
X52666310Y-37324998D01*
X52640427Y-37283732D01*
X52626084Y-37245913D01*
X52602518Y-37183774D01*
X52509332Y-37048771D01*
X52509329Y-37048768D01*
X52509327Y-37048766D01*
X52386548Y-36939993D01*
X52241291Y-36863756D01*
X52082022Y-36824500D01*
X52082021Y-36824500D01*
X51917979Y-36824500D01*
X51917978Y-36824500D01*
X51758708Y-36863756D01*
X51613451Y-36939993D01*
X51490672Y-37048766D01*
X51490666Y-37048773D01*
X51397483Y-37183771D01*
X51339312Y-37337154D01*
X51339311Y-37337157D01*
X51319539Y-37499999D01*
X51319539Y-37500000D01*
X51020141Y-37500000D01*
X51048813Y-37418059D01*
X51048813Y-37418058D01*
X51048814Y-37418056D01*
X51067749Y-37250002D01*
X51067749Y-37249997D01*
X51048814Y-37081943D01*
X51002995Y-36951000D01*
X50992956Y-36922310D01*
X50992955Y-36922309D01*
X50992954Y-36922305D01*
X50992952Y-36922302D01*
X50916104Y-36800000D01*
X55819539Y-36800000D01*
X55839311Y-36962842D01*
X55839312Y-36962845D01*
X55897482Y-37116226D01*
X55990668Y-37251229D01*
X55990670Y-37251231D01*
X55990672Y-37251233D01*
X56113451Y-37360006D01*
X56113452Y-37360006D01*
X56113454Y-37360008D01*
X56258705Y-37436242D01*
X56258707Y-37436242D01*
X56258708Y-37436243D01*
X56417978Y-37475500D01*
X56417979Y-37475500D01*
X56582022Y-37475500D01*
X56741291Y-37436243D01*
X56741291Y-37436242D01*
X56741295Y-37436242D01*
X56886546Y-37360008D01*
X57009332Y-37251229D01*
X57102518Y-37116226D01*
X57160688Y-36962845D01*
X57180461Y-36800000D01*
X57160688Y-36637155D01*
X57102518Y-36483774D01*
X57009332Y-36348771D01*
X57009329Y-36348768D01*
X57009327Y-36348766D01*
X56886548Y-36239993D01*
X56741291Y-36163756D01*
X56582022Y-36124500D01*
X56582021Y-36124500D01*
X56417979Y-36124500D01*
X56417978Y-36124500D01*
X56258708Y-36163756D01*
X56113451Y-36239993D01*
X55990672Y-36348766D01*
X55990666Y-36348773D01*
X55897483Y-36483771D01*
X55839312Y-36637154D01*
X55839311Y-36637157D01*
X55819539Y-36799999D01*
X55819539Y-36800000D01*
X50916104Y-36800000D01*
X50902981Y-36779115D01*
X50902976Y-36779109D01*
X50786318Y-36662451D01*
X50752833Y-36601128D01*
X50750000Y-36574779D01*
X50750000Y-35955579D01*
X50769684Y-35888544D01*
X50822488Y-35842789D01*
X50891646Y-35832845D01*
X50931625Y-35845787D01*
X51008705Y-35886242D01*
X51167978Y-35925500D01*
X51167979Y-35925500D01*
X51332022Y-35925500D01*
X51491291Y-35886243D01*
X51491291Y-35886242D01*
X51491295Y-35886242D01*
X51636546Y-35810008D01*
X51759332Y-35701229D01*
X51852518Y-35566226D01*
X51877634Y-35500000D01*
X54569539Y-35500000D01*
X54589311Y-35662842D01*
X54589312Y-35662845D01*
X54631657Y-35774500D01*
X54647483Y-35816228D01*
X54722909Y-35925500D01*
X54740668Y-35951229D01*
X54740670Y-35951231D01*
X54740672Y-35951233D01*
X54863451Y-36060006D01*
X54863452Y-36060006D01*
X54863454Y-36060008D01*
X55008705Y-36136242D01*
X55008707Y-36136242D01*
X55008708Y-36136243D01*
X55167978Y-36175500D01*
X55167979Y-36175500D01*
X55332022Y-36175500D01*
X55491291Y-36136243D01*
X55491291Y-36136242D01*
X55491295Y-36136242D01*
X55636546Y-36060008D01*
X55759332Y-35951229D01*
X55852518Y-35816226D01*
X55910688Y-35662845D01*
X55930461Y-35500000D01*
X55910688Y-35337155D01*
X55877634Y-35250000D01*
X56319539Y-35250000D01*
X56339311Y-35412842D01*
X56339312Y-35412845D01*
X56392433Y-35552914D01*
X56397483Y-35566228D01*
X56445811Y-35636243D01*
X56490668Y-35701229D01*
X56490670Y-35701231D01*
X56490672Y-35701233D01*
X56613451Y-35810006D01*
X56613452Y-35810006D01*
X56613454Y-35810008D01*
X56758705Y-35886242D01*
X56758707Y-35886242D01*
X56758708Y-35886243D01*
X56917978Y-35925500D01*
X56917979Y-35925500D01*
X57082022Y-35925500D01*
X57241291Y-35886243D01*
X57241291Y-35886242D01*
X57241295Y-35886242D01*
X57386546Y-35810008D01*
X57509332Y-35701229D01*
X57602518Y-35566226D01*
X57660688Y-35412845D01*
X57680461Y-35250000D01*
X57660688Y-35087155D01*
X57627634Y-35000000D01*
X60319539Y-35000000D01*
X60339311Y-35162842D01*
X60339312Y-35162845D01*
X60397483Y-35316228D01*
X60464171Y-35412842D01*
X60490668Y-35451229D01*
X60490670Y-35451231D01*
X60490672Y-35451233D01*
X60613451Y-35560006D01*
X60613452Y-35560006D01*
X60613454Y-35560008D01*
X60758705Y-35636242D01*
X60758707Y-35636242D01*
X60758708Y-35636243D01*
X60917978Y-35675500D01*
X60917979Y-35675500D01*
X61082022Y-35675500D01*
X61161658Y-35655871D01*
X61241295Y-35636242D01*
X61373910Y-35566639D01*
X61442417Y-35552914D01*
X61507470Y-35578406D01*
X61548415Y-35635022D01*
X61554631Y-35691382D01*
X61544539Y-35774499D01*
X61544539Y-35774500D01*
X61564311Y-35937342D01*
X61564312Y-35937345D01*
X61610831Y-36060006D01*
X61622483Y-36090728D01*
X61653899Y-36136242D01*
X61715668Y-36225729D01*
X61715670Y-36225731D01*
X61715672Y-36225733D01*
X61838451Y-36334506D01*
X61838452Y-36334506D01*
X61838454Y-36334508D01*
X61983705Y-36410742D01*
X62073752Y-36432936D01*
X62080621Y-36434630D01*
X62141001Y-36469787D01*
X62166886Y-36511055D01*
X62191982Y-36577225D01*
X62197482Y-36591726D01*
X62290668Y-36726729D01*
X62290670Y-36726731D01*
X62290672Y-36726733D01*
X62413451Y-36835506D01*
X62413452Y-36835506D01*
X62413454Y-36835508D01*
X62558705Y-36911742D01*
X62558707Y-36911742D01*
X62558708Y-36911743D01*
X62717978Y-36951000D01*
X62717979Y-36951000D01*
X62768191Y-36951000D01*
X62835230Y-36970685D01*
X62880985Y-37023489D01*
X62884133Y-37031028D01*
X62897482Y-37066227D01*
X62975710Y-37179559D01*
X62997593Y-37245913D01*
X62980128Y-37313565D01*
X62975711Y-37320438D01*
X62897483Y-37433772D01*
X62839312Y-37587154D01*
X62839311Y-37587157D01*
X62819539Y-37749999D01*
X62819539Y-37750000D01*
X62839311Y-37912842D01*
X62839312Y-37912845D01*
X62897483Y-38066228D01*
X62948293Y-38139839D01*
X62990668Y-38201229D01*
X62990670Y-38201231D01*
X62990672Y-38201233D01*
X63113451Y-38310006D01*
X63113452Y-38310006D01*
X63113454Y-38310008D01*
X63258705Y-38386242D01*
X63258707Y-38386242D01*
X63258708Y-38386243D01*
X63417978Y-38425500D01*
X63417979Y-38425500D01*
X63582022Y-38425500D01*
X63741291Y-38386243D01*
X63741291Y-38386242D01*
X63741295Y-38386242D01*
X63886546Y-38310008D01*
X64009332Y-38201229D01*
X64102518Y-38066226D01*
X64125537Y-38005528D01*
X64167715Y-37949826D01*
X64233312Y-37925769D01*
X64241479Y-37925500D01*
X64332022Y-37925500D01*
X64491291Y-37886243D01*
X64491291Y-37886242D01*
X64491295Y-37886242D01*
X64636546Y-37810008D01*
X64759332Y-37701229D01*
X64852518Y-37566226D01*
X64910688Y-37412845D01*
X64930461Y-37250000D01*
X64910688Y-37087155D01*
X64852518Y-36933774D01*
X64759332Y-36798771D01*
X64759329Y-36798768D01*
X64759327Y-36798766D01*
X64636548Y-36689993D01*
X64491291Y-36613756D01*
X64332022Y-36574500D01*
X64332021Y-36574500D01*
X64241479Y-36574500D01*
X64174440Y-36554815D01*
X64128685Y-36502011D01*
X64125537Y-36494471D01*
X64102518Y-36433774D01*
X64009332Y-36298771D01*
X64009329Y-36298768D01*
X64009327Y-36298766D01*
X63886548Y-36189993D01*
X63741291Y-36113756D01*
X63582022Y-36074500D01*
X63582021Y-36074500D01*
X63531809Y-36074500D01*
X63464770Y-36054815D01*
X63419015Y-36002011D01*
X63415867Y-35994472D01*
X63402517Y-35959272D01*
X63309333Y-35824273D01*
X63309332Y-35824271D01*
X63309329Y-35824268D01*
X63309327Y-35824266D01*
X63186548Y-35715493D01*
X63159370Y-35701229D01*
X63041295Y-35639258D01*
X63041292Y-35639257D01*
X63041288Y-35639255D01*
X62944377Y-35615368D01*
X62883997Y-35580212D01*
X62858112Y-35538944D01*
X62827518Y-35458274D01*
X62734332Y-35323271D01*
X62734329Y-35323268D01*
X62734327Y-35323266D01*
X62611548Y-35214493D01*
X62466291Y-35138256D01*
X62307022Y-35099000D01*
X62307021Y-35099000D01*
X62142979Y-35099000D01*
X62142978Y-35099000D01*
X61983706Y-35138257D01*
X61851089Y-35207860D01*
X61782581Y-35221584D01*
X61717528Y-35196092D01*
X61676584Y-35139476D01*
X61670368Y-35083119D01*
X61680461Y-35000000D01*
X61660688Y-34837155D01*
X61602518Y-34683774D01*
X61509332Y-34548771D01*
X61509329Y-34548768D01*
X61509327Y-34548766D01*
X61386548Y-34439993D01*
X61241291Y-34363756D01*
X61082022Y-34324500D01*
X61082021Y-34324500D01*
X60917979Y-34324500D01*
X60917978Y-34324500D01*
X60758708Y-34363756D01*
X60613451Y-34439993D01*
X60490672Y-34548766D01*
X60490666Y-34548773D01*
X60397483Y-34683771D01*
X60339312Y-34837154D01*
X60339311Y-34837157D01*
X60319539Y-34999999D01*
X60319539Y-35000000D01*
X57627634Y-35000000D01*
X57602518Y-34933774D01*
X57509332Y-34798771D01*
X57509329Y-34798768D01*
X57509327Y-34798766D01*
X57386546Y-34689992D01*
X57386544Y-34689990D01*
X57312799Y-34651286D01*
X57262587Y-34602702D01*
X57246612Y-34534683D01*
X57269947Y-34468825D01*
X57325183Y-34426038D01*
X57394783Y-34419906D01*
X57400102Y-34421094D01*
X57410210Y-34423585D01*
X57417976Y-34425499D01*
X57417977Y-34425500D01*
X57417979Y-34425500D01*
X57582022Y-34425500D01*
X57741291Y-34386243D01*
X57741291Y-34386242D01*
X57741295Y-34386242D01*
X57886546Y-34310008D01*
X57954281Y-34250000D01*
X62819539Y-34250000D01*
X62839311Y-34412842D01*
X62839312Y-34412845D01*
X62891794Y-34551229D01*
X62897483Y-34566228D01*
X62930291Y-34613758D01*
X62990668Y-34701229D01*
X62990670Y-34701231D01*
X62990672Y-34701233D01*
X63113451Y-34810006D01*
X63113452Y-34810006D01*
X63113454Y-34810008D01*
X63258705Y-34886242D01*
X63258707Y-34886242D01*
X63258708Y-34886243D01*
X63417978Y-34925500D01*
X63417979Y-34925500D01*
X63582022Y-34925500D01*
X63741291Y-34886243D01*
X63741291Y-34886242D01*
X63741295Y-34886242D01*
X63886546Y-34810008D01*
X64009332Y-34701229D01*
X64102518Y-34566226D01*
X64160688Y-34412845D01*
X64180461Y-34250000D01*
X64160688Y-34087155D01*
X64102518Y-33933774D01*
X64009332Y-33798771D01*
X64009329Y-33798768D01*
X64009327Y-33798766D01*
X63886548Y-33689993D01*
X63741291Y-33613756D01*
X63582022Y-33574500D01*
X63582021Y-33574500D01*
X63417979Y-33574500D01*
X63417978Y-33574500D01*
X63258708Y-33613756D01*
X63113451Y-33689993D01*
X62990672Y-33798766D01*
X62990666Y-33798773D01*
X62897483Y-33933771D01*
X62839312Y-34087154D01*
X62839311Y-34087157D01*
X62819539Y-34249999D01*
X62819539Y-34250000D01*
X57954281Y-34250000D01*
X58009332Y-34201229D01*
X58102518Y-34066226D01*
X58160688Y-33912845D01*
X58180461Y-33750000D01*
X58160688Y-33587155D01*
X58102518Y-33433774D01*
X58009332Y-33298771D01*
X58009329Y-33298768D01*
X58009327Y-33298766D01*
X57886548Y-33189993D01*
X57741291Y-33113756D01*
X57582022Y-33074500D01*
X57582021Y-33074500D01*
X57417979Y-33074500D01*
X57417978Y-33074500D01*
X57258708Y-33113756D01*
X57113451Y-33189993D01*
X56990672Y-33298766D01*
X56990666Y-33298773D01*
X56897483Y-33433771D01*
X56839312Y-33587154D01*
X56839311Y-33587157D01*
X56819539Y-33749999D01*
X56819539Y-33750000D01*
X56839311Y-33912842D01*
X56839312Y-33912845D01*
X56867683Y-33987654D01*
X56897483Y-34066228D01*
X56955652Y-34150500D01*
X56990668Y-34201229D01*
X56990670Y-34201231D01*
X56990672Y-34201233D01*
X57113452Y-34310007D01*
X57113454Y-34310008D01*
X57187200Y-34348713D01*
X57237412Y-34397297D01*
X57253387Y-34465316D01*
X57230052Y-34531173D01*
X57174816Y-34573961D01*
X57105216Y-34580093D01*
X57099901Y-34578906D01*
X57082025Y-34574500D01*
X57082021Y-34574500D01*
X56917979Y-34574500D01*
X56917978Y-34574500D01*
X56758708Y-34613756D01*
X56613451Y-34689993D01*
X56490672Y-34798766D01*
X56490666Y-34798773D01*
X56397483Y-34933771D01*
X56339312Y-35087154D01*
X56339311Y-35087157D01*
X56319539Y-35249999D01*
X56319539Y-35250000D01*
X55877634Y-35250000D01*
X55852518Y-35183774D01*
X55759332Y-35048771D01*
X55759329Y-35048768D01*
X55759327Y-35048766D01*
X55636548Y-34939993D01*
X55491291Y-34863756D01*
X55332022Y-34824500D01*
X55332021Y-34824500D01*
X55167979Y-34824500D01*
X55167978Y-34824500D01*
X55008708Y-34863756D01*
X54863451Y-34939993D01*
X54740672Y-35048766D01*
X54740666Y-35048773D01*
X54647483Y-35183771D01*
X54589312Y-35337154D01*
X54589311Y-35337157D01*
X54569539Y-35499999D01*
X54569539Y-35500000D01*
X51877634Y-35500000D01*
X51910688Y-35412845D01*
X51930461Y-35250000D01*
X51910688Y-35087155D01*
X51852518Y-34933774D01*
X51759332Y-34798771D01*
X51759329Y-34798768D01*
X51759327Y-34798766D01*
X51636548Y-34689993D01*
X51491291Y-34613756D01*
X51332022Y-34574500D01*
X51332021Y-34574500D01*
X51167979Y-34574500D01*
X51167977Y-34574500D01*
X51087030Y-34594451D01*
X51017228Y-34591381D01*
X50960166Y-34551061D01*
X50933961Y-34486292D01*
X50941413Y-34430087D01*
X50985688Y-34313345D01*
X51005461Y-34150500D01*
X50999329Y-34100000D01*
X53519539Y-34100000D01*
X53539311Y-34262842D01*
X53539312Y-34262845D01*
X53577583Y-34363758D01*
X53597483Y-34416228D01*
X53645845Y-34486292D01*
X53690668Y-34551229D01*
X53690670Y-34551231D01*
X53690672Y-34551233D01*
X53813451Y-34660006D01*
X53813452Y-34660006D01*
X53813454Y-34660008D01*
X53958705Y-34736242D01*
X53958707Y-34736242D01*
X53958708Y-34736243D01*
X54117978Y-34775500D01*
X54117979Y-34775500D01*
X54282022Y-34775500D01*
X54441291Y-34736243D01*
X54441291Y-34736242D01*
X54441295Y-34736242D01*
X54586546Y-34660008D01*
X54709332Y-34551229D01*
X54802518Y-34416226D01*
X54860688Y-34262845D01*
X54880461Y-34100000D01*
X54860688Y-33937155D01*
X54802518Y-33783774D01*
X54709332Y-33648771D01*
X54709329Y-33648768D01*
X54709327Y-33648766D01*
X54586548Y-33539993D01*
X54441291Y-33463756D01*
X54282022Y-33424500D01*
X54282021Y-33424500D01*
X54117979Y-33424500D01*
X54117978Y-33424500D01*
X53958708Y-33463756D01*
X53813451Y-33539993D01*
X53690672Y-33648766D01*
X53690666Y-33648773D01*
X53597483Y-33783771D01*
X53539312Y-33937154D01*
X53539311Y-33937157D01*
X53519539Y-34099999D01*
X53519539Y-34100000D01*
X50999329Y-34100000D01*
X50985688Y-33987655D01*
X50927518Y-33834274D01*
X50834332Y-33699271D01*
X50791770Y-33661564D01*
X50754645Y-33602377D01*
X50750000Y-33568758D01*
X50750000Y-28000000D01*
X50750000Y-25124499D01*
X50769685Y-25057461D01*
X50822489Y-25011706D01*
X50874000Y-25000500D01*
X72330031Y-25000500D01*
X72397070Y-25020185D01*
G37*
G04 #@! TD.AperFunction*
G04 #@! TA.AperFunction,Conductor*
G36*
X49693039Y-25020185D02*
G01*
X49738794Y-25072989D01*
X49750000Y-25124500D01*
X49750000Y-32068174D01*
X49730315Y-32135213D01*
X49677511Y-32180968D01*
X49608353Y-32190912D01*
X49568375Y-32177971D01*
X49541295Y-32163758D01*
X49541292Y-32163757D01*
X49382022Y-32124500D01*
X49382021Y-32124500D01*
X49217979Y-32124500D01*
X49217978Y-32124500D01*
X49058708Y-32163756D01*
X48913451Y-32239993D01*
X48790672Y-32348766D01*
X48790666Y-32348773D01*
X48697483Y-32483771D01*
X48639312Y-32637154D01*
X48637517Y-32644438D01*
X48634567Y-32643710D01*
X48612383Y-32695131D01*
X48554415Y-32734137D01*
X48484561Y-32735611D01*
X48459356Y-32725721D01*
X48341295Y-32663758D01*
X48341294Y-32663757D01*
X48341291Y-32663756D01*
X48182022Y-32624500D01*
X48182021Y-32624500D01*
X48017979Y-32624500D01*
X48017978Y-32624500D01*
X47858708Y-32663756D01*
X47713451Y-32739993D01*
X47590672Y-32848766D01*
X47590666Y-32848773D01*
X47497483Y-32983771D01*
X47439312Y-33137154D01*
X47439311Y-33137157D01*
X47419539Y-33299999D01*
X47419539Y-33300000D01*
X47439311Y-33462842D01*
X47439312Y-33462845D01*
X47487722Y-33590492D01*
X47497483Y-33616228D01*
X47552407Y-33695799D01*
X47590668Y-33751229D01*
X47590670Y-33751231D01*
X47590672Y-33751233D01*
X47713451Y-33860006D01*
X47713452Y-33860006D01*
X47713454Y-33860008D01*
X47858705Y-33936242D01*
X47858707Y-33936242D01*
X47858708Y-33936243D01*
X48009811Y-33973486D01*
X48017979Y-33975500D01*
X48017983Y-33975500D01*
X48024261Y-33976262D01*
X48088441Y-34003879D01*
X48127502Y-34061810D01*
X48129042Y-34131662D01*
X48092573Y-34191259D01*
X48091552Y-34192174D01*
X48027668Y-34248770D01*
X48027666Y-34248773D01*
X47934483Y-34383771D01*
X47876312Y-34537154D01*
X47876311Y-34537157D01*
X47856539Y-34699999D01*
X47856539Y-34700000D01*
X47876311Y-34862842D01*
X47876312Y-34862845D01*
X47934483Y-35016228D01*
X47974816Y-35074660D01*
X48027668Y-35151229D01*
X48027670Y-35151231D01*
X48027672Y-35151233D01*
X48150451Y-35260006D01*
X48150452Y-35260006D01*
X48150454Y-35260008D01*
X48295705Y-35336242D01*
X48295707Y-35336242D01*
X48295708Y-35336243D01*
X48454978Y-35375500D01*
X48454979Y-35375500D01*
X48619022Y-35375500D01*
X48778291Y-35336243D01*
X48778291Y-35336242D01*
X48778295Y-35336242D01*
X48923546Y-35260008D01*
X49046332Y-35151229D01*
X49139518Y-35016226D01*
X49197688Y-34862845D01*
X49217461Y-34700000D01*
X49197688Y-34537155D01*
X49139518Y-34383774D01*
X49046332Y-34248771D01*
X49046329Y-34248768D01*
X49046327Y-34248766D01*
X48923548Y-34139993D01*
X48778291Y-34063756D01*
X48619020Y-34024499D01*
X48612730Y-34023736D01*
X48548552Y-33996115D01*
X48509495Y-33938182D01*
X48507959Y-33868329D01*
X48544432Y-33808735D01*
X48545323Y-33807935D01*
X48609332Y-33751229D01*
X48702518Y-33616226D01*
X48760688Y-33462845D01*
X48760688Y-33462837D01*
X48762483Y-33455562D01*
X48765451Y-33456293D01*
X48787541Y-33404959D01*
X48845472Y-33365898D01*
X48915324Y-33364358D01*
X48940646Y-33374279D01*
X49031626Y-33422030D01*
X49058705Y-33436242D01*
X49217978Y-33475500D01*
X49217979Y-33475500D01*
X49382022Y-33475500D01*
X49435112Y-33462413D01*
X49541295Y-33436242D01*
X49568374Y-33422029D01*
X49636880Y-33408303D01*
X49701934Y-33433794D01*
X49742879Y-33490409D01*
X49750000Y-33531825D01*
X49750000Y-33755767D01*
X49730315Y-33822806D01*
X49728051Y-33826206D01*
X49722483Y-33834272D01*
X49664312Y-33987654D01*
X49664311Y-33987657D01*
X49644539Y-34150499D01*
X49644539Y-34150500D01*
X49664311Y-34313342D01*
X49664312Y-34313348D01*
X49722480Y-34466723D01*
X49722483Y-34466727D01*
X49728049Y-34474791D01*
X49749933Y-34541145D01*
X49750000Y-34545232D01*
X49749999Y-34851807D01*
X49730314Y-34918847D01*
X49708227Y-34944622D01*
X49590668Y-35048770D01*
X49590666Y-35048773D01*
X49497483Y-35183771D01*
X49439312Y-35337154D01*
X49439311Y-35337157D01*
X49419539Y-35499999D01*
X49419539Y-35500000D01*
X49439311Y-35662842D01*
X49439312Y-35662845D01*
X49478054Y-35765000D01*
X49497483Y-35816228D01*
X49556970Y-35902409D01*
X49590668Y-35951229D01*
X49590670Y-35951231D01*
X49590672Y-35951233D01*
X49708227Y-36055378D01*
X49745354Y-36114567D01*
X49750000Y-36148193D01*
X49750000Y-36433206D01*
X49730315Y-36500245D01*
X49677511Y-36546000D01*
X49608353Y-36555944D01*
X49585046Y-36550248D01*
X49480557Y-36513686D01*
X49312503Y-36494751D01*
X49312497Y-36494751D01*
X49144443Y-36513685D01*
X48984807Y-36569545D01*
X48878472Y-36636361D01*
X48811236Y-36655361D01*
X48746528Y-36636361D01*
X48640192Y-36569545D01*
X48640191Y-36569544D01*
X48640190Y-36569544D01*
X48600054Y-36555500D01*
X48480556Y-36513685D01*
X48312503Y-36494751D01*
X48312497Y-36494751D01*
X48144443Y-36513685D01*
X47984805Y-36569545D01*
X47984802Y-36569547D01*
X47841615Y-36659518D01*
X47841609Y-36659523D01*
X47722023Y-36779109D01*
X47722018Y-36779115D01*
X47632047Y-36922302D01*
X47632045Y-36922305D01*
X47576185Y-37081943D01*
X47557251Y-37249997D01*
X47557251Y-37250002D01*
X47576185Y-37418056D01*
X47617860Y-37537154D01*
X47624455Y-37556003D01*
X47632045Y-37577692D01*
X47656547Y-37616686D01*
X47698699Y-37683771D01*
X47698861Y-37684028D01*
X47717861Y-37751264D01*
X47698861Y-37815972D01*
X47632045Y-37922307D01*
X47576185Y-38081943D01*
X47557251Y-38249997D01*
X47557251Y-38250002D01*
X47576185Y-38418056D01*
X47601827Y-38491335D01*
X47625045Y-38557689D01*
X47632045Y-38577692D01*
X47698861Y-38684028D01*
X47717861Y-38751264D01*
X47698861Y-38815972D01*
X47632045Y-38922307D01*
X47576185Y-39081943D01*
X47557251Y-39249997D01*
X47557251Y-39250002D01*
X47576185Y-39418056D01*
X47632045Y-39577694D01*
X47632047Y-39577697D01*
X47722018Y-39720884D01*
X47722023Y-39720890D01*
X47841609Y-39840476D01*
X47841615Y-39840481D01*
X47984802Y-39930452D01*
X47984805Y-39930454D01*
X47984809Y-39930455D01*
X47984810Y-39930456D01*
X48029773Y-39946189D01*
X48144443Y-39986314D01*
X48312497Y-40005249D01*
X48312500Y-40005249D01*
X48312503Y-40005249D01*
X48480556Y-39986314D01*
X48495977Y-39980918D01*
X48640190Y-39930456D01*
X48746528Y-39863638D01*
X48813763Y-39844638D01*
X48878470Y-39863638D01*
X48914446Y-39886243D01*
X48984806Y-39930454D01*
X48984807Y-39930454D01*
X48984810Y-39930456D01*
X49061981Y-39957459D01*
X49144443Y-39986314D01*
X49312497Y-40005249D01*
X49312500Y-40005249D01*
X49312503Y-40005249D01*
X49465693Y-39987988D01*
X49480559Y-39986313D01*
X49585045Y-39949751D01*
X49654822Y-39946189D01*
X49715450Y-39980918D01*
X49747677Y-40042911D01*
X49749999Y-40066793D01*
X49750000Y-40413310D01*
X49730316Y-40480349D01*
X49683628Y-40523105D01*
X49651454Y-40539992D01*
X49651452Y-40539993D01*
X49651451Y-40539994D01*
X49651449Y-40539995D01*
X49528672Y-40648766D01*
X49528666Y-40648773D01*
X49435483Y-40783771D01*
X49377312Y-40937154D01*
X49377311Y-40937156D01*
X49357416Y-41101010D01*
X49329794Y-41165188D01*
X49271860Y-41204244D01*
X49202007Y-41205779D01*
X49142413Y-41169305D01*
X49132270Y-41156502D01*
X49109336Y-41123276D01*
X49109327Y-41123266D01*
X48986548Y-41014493D01*
X48841291Y-40938256D01*
X48682022Y-40899000D01*
X48682021Y-40899000D01*
X48517979Y-40899000D01*
X48517978Y-40899000D01*
X48358708Y-40938256D01*
X48213451Y-41014493D01*
X48090672Y-41123266D01*
X48090666Y-41123273D01*
X47997483Y-41258271D01*
X47939312Y-41411654D01*
X47939311Y-41411657D01*
X47919539Y-41574499D01*
X47919539Y-41574500D01*
X47939311Y-41737342D01*
X47939312Y-41737345D01*
X47997483Y-41890728D01*
X48057058Y-41977037D01*
X48090668Y-42025729D01*
X48090670Y-42025731D01*
X48090672Y-42025733D01*
X48213451Y-42134506D01*
X48213452Y-42134506D01*
X48213454Y-42134508D01*
X48358705Y-42210742D01*
X48358707Y-42210742D01*
X48358708Y-42210743D01*
X48404465Y-42222021D01*
X48515187Y-42249312D01*
X48575567Y-42284467D01*
X48595309Y-42312086D01*
X48597480Y-42316224D01*
X48681114Y-42437387D01*
X48690668Y-42451229D01*
X48690670Y-42451231D01*
X48690672Y-42451233D01*
X48813451Y-42560006D01*
X48813452Y-42560006D01*
X48813454Y-42560008D01*
X48958705Y-42636242D01*
X48958707Y-42636242D01*
X48958708Y-42636243D01*
X49117978Y-42675500D01*
X49117979Y-42675500D01*
X49282022Y-42675500D01*
X49407142Y-42644660D01*
X49441295Y-42636242D01*
X49568375Y-42569544D01*
X49636882Y-42555819D01*
X49701935Y-42581311D01*
X49742880Y-42637927D01*
X49750000Y-42679341D01*
X49750000Y-54125500D01*
X49730315Y-54192539D01*
X49677511Y-54238294D01*
X49626000Y-54249500D01*
X17141713Y-54249500D01*
X17074674Y-54229815D01*
X17028919Y-54177011D01*
X17018975Y-54107853D01*
X17048000Y-54044297D01*
X17094258Y-54010939D01*
X17390833Y-53888094D01*
X17705452Y-53714211D01*
X17998623Y-53506194D01*
X18266661Y-53266661D01*
X18506194Y-52998623D01*
X18714211Y-52705452D01*
X18888094Y-52390833D01*
X19025659Y-52058724D01*
X19125173Y-51713300D01*
X19185387Y-51358907D01*
X19205543Y-51000000D01*
X19185387Y-50641093D01*
X19125173Y-50286700D01*
X19025659Y-49941276D01*
X18888094Y-49609167D01*
X18714211Y-49294548D01*
X18506194Y-49001377D01*
X18266661Y-48733339D01*
X17998623Y-48493806D01*
X17998622Y-48493805D01*
X17705454Y-48285790D01*
X17390831Y-48111905D01*
X17304086Y-48075974D01*
X17058724Y-47974341D01*
X17058720Y-47974339D01*
X17058718Y-47974339D01*
X16713305Y-47874828D01*
X16713296Y-47874826D01*
X16358914Y-47814614D01*
X16358902Y-47814612D01*
X16000000Y-47794457D01*
X15641097Y-47814612D01*
X15641085Y-47814614D01*
X15286703Y-47874826D01*
X15286694Y-47874828D01*
X14941281Y-47974339D01*
X14609168Y-48111905D01*
X14294545Y-48285790D01*
X14001377Y-48493805D01*
X13733339Y-48733339D01*
X13493805Y-49001377D01*
X13285790Y-49294545D01*
X13233028Y-49390012D01*
X13183371Y-49439165D01*
X13115023Y-49453668D01*
X13049684Y-49428918D01*
X13008099Y-49372771D01*
X13000500Y-49330031D01*
X13000500Y-43335006D01*
X17179546Y-43335006D01*
X17199326Y-43573729D01*
X17199328Y-43573737D01*
X17258136Y-43805963D01*
X17341058Y-43995005D01*
X17354364Y-44025340D01*
X17426618Y-44135933D01*
X17452468Y-44175500D01*
X17485388Y-44225887D01*
X17647634Y-44402134D01*
X17705951Y-44447523D01*
X17836668Y-44549265D01*
X17836674Y-44549269D01*
X17836677Y-44549271D01*
X18047359Y-44663287D01*
X18273935Y-44741070D01*
X18510222Y-44780500D01*
X18510223Y-44780500D01*
X18749777Y-44780500D01*
X18749778Y-44780500D01*
X18917767Y-44752467D01*
X18987132Y-44760849D01*
X19040954Y-44805402D01*
X19062145Y-44871980D01*
X19043977Y-44939446D01*
X19029408Y-44958758D01*
X19005785Y-44984419D01*
X19005782Y-44984423D01*
X18874805Y-45184897D01*
X18778610Y-45404200D01*
X18719822Y-45636349D01*
X18700048Y-45874993D01*
X18700048Y-45875006D01*
X18719822Y-46113650D01*
X18778610Y-46345799D01*
X18874805Y-46565102D01*
X18966301Y-46705145D01*
X19578372Y-46093073D01*
X19639695Y-46059588D01*
X19709386Y-46064572D01*
X19762999Y-46103440D01*
X19843905Y-46204892D01*
X19916322Y-46254265D01*
X19960624Y-46308294D01*
X19968682Y-46377698D01*
X19937940Y-46440440D01*
X19934151Y-46444400D01*
X19319134Y-47059416D01*
X19319135Y-47059417D01*
X19356949Y-47088849D01*
X19356954Y-47088853D01*
X19567554Y-47202823D01*
X19567568Y-47202829D01*
X19794055Y-47280583D01*
X20030265Y-47320000D01*
X20269735Y-47320000D01*
X20505944Y-47280583D01*
X20732431Y-47202829D01*
X20732440Y-47202826D01*
X20943048Y-47088850D01*
X20980863Y-47059416D01*
X20368311Y-46446864D01*
X20334826Y-46385541D01*
X20339810Y-46315850D01*
X20381681Y-46259916D01*
X20402192Y-46247463D01*
X20403509Y-46246829D01*
X20501844Y-46155587D01*
X20524372Y-46116566D01*
X20574936Y-46068352D01*
X20643543Y-46055128D01*
X20708408Y-46081095D01*
X20719439Y-46090886D01*
X21333697Y-46705145D01*
X21425192Y-46565104D01*
X21425197Y-46565096D01*
X21521389Y-46345799D01*
X21580176Y-46113656D01*
X21583225Y-46076861D01*
X21608378Y-46011676D01*
X21664780Y-45970437D01*
X21734523Y-45966238D01*
X21795465Y-46000412D01*
X21820925Y-46038603D01*
X21852816Y-46113650D01*
X21857577Y-46124852D01*
X21952543Y-46280459D01*
X22000592Y-46359191D01*
X22000599Y-46359201D01*
X22176199Y-46570207D01*
X22176204Y-46570212D01*
X22176209Y-46570218D01*
X22209448Y-46600000D01*
X22380672Y-46753419D01*
X22380674Y-46753420D01*
X22380677Y-46753423D01*
X22609641Y-46904904D01*
X22858221Y-47021433D01*
X23121119Y-47100527D01*
X23392731Y-47140500D01*
X23392736Y-47140500D01*
X23598552Y-47140500D01*
X23650744Y-47136679D01*
X23803805Y-47125477D01*
X24071775Y-47065784D01*
X24328198Y-46967711D01*
X24567609Y-46833347D01*
X24631254Y-46784201D01*
X24696345Y-46758809D01*
X24764832Y-46772638D01*
X24814970Y-46821300D01*
X24830842Y-46889343D01*
X24827930Y-46909939D01*
X24794616Y-47055896D01*
X24794616Y-47055898D01*
X24774451Y-47324995D01*
X24774451Y-47325004D01*
X24794616Y-47594101D01*
X24844947Y-47814613D01*
X24854666Y-47857195D01*
X24953257Y-48108398D01*
X25088185Y-48342102D01*
X25209165Y-48493805D01*
X25256442Y-48553089D01*
X25443183Y-48726358D01*
X25454259Y-48736635D01*
X25677226Y-48888651D01*
X25920359Y-49005738D01*
X26178228Y-49085280D01*
X26178229Y-49085280D01*
X26178232Y-49085281D01*
X26445063Y-49125499D01*
X26445068Y-49125499D01*
X26445071Y-49125500D01*
X26445072Y-49125500D01*
X26714928Y-49125500D01*
X26714929Y-49125500D01*
X26714936Y-49125499D01*
X26981767Y-49085281D01*
X26981768Y-49085280D01*
X26981772Y-49085280D01*
X27239641Y-49005738D01*
X27482775Y-48888651D01*
X27705741Y-48736635D01*
X27903561Y-48553085D01*
X28071815Y-48342102D01*
X28206743Y-48108398D01*
X28305334Y-47857195D01*
X28365383Y-47594103D01*
X28385549Y-47325000D01*
X28385174Y-47320000D01*
X28383675Y-47300000D01*
X46319539Y-47300000D01*
X46339311Y-47462842D01*
X46339312Y-47462845D01*
X46397482Y-47616226D01*
X46490668Y-47751229D01*
X46490670Y-47751231D01*
X46490672Y-47751233D01*
X46613451Y-47860006D01*
X46613452Y-47860006D01*
X46613454Y-47860008D01*
X46758705Y-47936242D01*
X46758707Y-47936242D01*
X46758708Y-47936243D01*
X46917978Y-47975500D01*
X46917979Y-47975500D01*
X47082022Y-47975500D01*
X47241291Y-47936243D01*
X47241291Y-47936242D01*
X47241295Y-47936242D01*
X47386546Y-47860008D01*
X47509332Y-47751229D01*
X47602518Y-47616226D01*
X47660688Y-47462845D01*
X47680461Y-47300000D01*
X47660688Y-47137155D01*
X47602518Y-46983774D01*
X47591430Y-46967711D01*
X47509333Y-46848773D01*
X47509332Y-46848771D01*
X47509329Y-46848768D01*
X47509327Y-46848766D01*
X47386548Y-46739993D01*
X47241291Y-46663756D01*
X47082022Y-46624500D01*
X47082021Y-46624500D01*
X46917979Y-46624500D01*
X46917978Y-46624500D01*
X46758708Y-46663756D01*
X46613451Y-46739993D01*
X46490672Y-46848766D01*
X46490666Y-46848773D01*
X46397483Y-46983771D01*
X46339312Y-47137154D01*
X46339311Y-47137157D01*
X46319539Y-47299999D01*
X46319539Y-47300000D01*
X28383675Y-47300000D01*
X28365383Y-47055898D01*
X28364318Y-47051233D01*
X28305334Y-46792805D01*
X28229663Y-46600000D01*
X43019539Y-46600000D01*
X43039311Y-46762842D01*
X43039312Y-46762845D01*
X43097483Y-46916228D01*
X43144105Y-46983771D01*
X43190668Y-47051229D01*
X43190670Y-47051231D01*
X43190672Y-47051233D01*
X43313451Y-47160006D01*
X43313452Y-47160006D01*
X43313454Y-47160008D01*
X43458705Y-47236242D01*
X43458707Y-47236242D01*
X43458708Y-47236243D01*
X43617978Y-47275500D01*
X43617979Y-47275500D01*
X43782022Y-47275500D01*
X43941291Y-47236243D01*
X43941291Y-47236242D01*
X43941295Y-47236242D01*
X44086546Y-47160008D01*
X44209332Y-47051229D01*
X44302518Y-46916226D01*
X44360688Y-46762845D01*
X44380461Y-46600000D01*
X44376843Y-46570207D01*
X44361867Y-46446864D01*
X44360688Y-46437155D01*
X44302518Y-46283774D01*
X44209332Y-46148771D01*
X44209329Y-46148768D01*
X44209327Y-46148766D01*
X44086548Y-46039993D01*
X43941291Y-45963756D01*
X43782022Y-45924500D01*
X43782021Y-45924500D01*
X43617979Y-45924500D01*
X43617978Y-45924500D01*
X43458708Y-45963756D01*
X43313451Y-46039993D01*
X43190672Y-46148766D01*
X43190666Y-46148773D01*
X43097483Y-46283771D01*
X43039312Y-46437154D01*
X43039311Y-46437157D01*
X43019539Y-46599999D01*
X43019539Y-46600000D01*
X28229663Y-46600000D01*
X28206743Y-46541602D01*
X28071815Y-46307898D01*
X27903561Y-46096915D01*
X27903560Y-46096914D01*
X27903557Y-46096910D01*
X27705741Y-45913365D01*
X27649479Y-45875006D01*
X27482775Y-45761349D01*
X27482771Y-45761347D01*
X27482768Y-45761345D01*
X27482767Y-45761344D01*
X27239643Y-45644263D01*
X27239645Y-45644263D01*
X26981773Y-45564720D01*
X26981767Y-45564718D01*
X26714936Y-45524500D01*
X26714929Y-45524500D01*
X26445071Y-45524500D01*
X26445063Y-45524500D01*
X26178232Y-45564718D01*
X26178226Y-45564720D01*
X25920358Y-45644262D01*
X25677229Y-45761347D01*
X25677225Y-45761349D01*
X25543589Y-45852460D01*
X25477109Y-45873960D01*
X25409560Y-45856106D01*
X25362386Y-45804565D01*
X25350566Y-45735703D01*
X25351801Y-45727483D01*
X25399234Y-45470685D01*
X25399234Y-45470684D01*
X25399236Y-45470674D01*
X25409262Y-45196320D01*
X25379236Y-44923429D01*
X25318362Y-44690582D01*
X25309797Y-44657821D01*
X25263668Y-44549271D01*
X25202423Y-44405148D01*
X25059405Y-44170804D01*
X25030385Y-44135933D01*
X24883800Y-43959792D01*
X24883795Y-43959787D01*
X24883791Y-43959782D01*
X24801716Y-43886242D01*
X24679327Y-43776580D01*
X24679324Y-43776578D01*
X24679323Y-43776577D01*
X24450359Y-43625096D01*
X24201779Y-43508567D01*
X24054362Y-43464216D01*
X23938879Y-43429472D01*
X23805915Y-43409904D01*
X23667269Y-43389500D01*
X23461453Y-43389500D01*
X23461448Y-43389500D01*
X23256195Y-43404523D01*
X23256185Y-43404524D01*
X22988229Y-43464214D01*
X22988224Y-43464216D01*
X22731799Y-43562290D01*
X22492392Y-43696652D01*
X22492387Y-43696655D01*
X22275097Y-43864441D01*
X22275088Y-43864450D01*
X22084549Y-44062080D01*
X22084547Y-44062082D01*
X21924805Y-44285361D01*
X21924802Y-44285366D01*
X21799275Y-44529515D01*
X21799271Y-44529525D01*
X21710632Y-44789344D01*
X21710629Y-44789358D01*
X21660765Y-45059314D01*
X21660763Y-45059334D01*
X21658165Y-45130409D01*
X21636045Y-45196685D01*
X21581605Y-45240480D01*
X21512129Y-45247890D01*
X21449676Y-45216563D01*
X21428344Y-45188968D01*
X21428001Y-45189193D01*
X21333697Y-45044853D01*
X20721626Y-45656924D01*
X20660303Y-45690409D01*
X20590611Y-45685425D01*
X20536998Y-45646556D01*
X20471735Y-45564720D01*
X20456095Y-45545108D01*
X20456094Y-45545107D01*
X20456093Y-45545106D01*
X20456092Y-45545105D01*
X20383676Y-45495732D01*
X20339374Y-45441703D01*
X20331316Y-45372300D01*
X20362059Y-45309557D01*
X20365847Y-45305598D01*
X20980863Y-44690582D01*
X20980863Y-44690581D01*
X20943050Y-44661150D01*
X20943045Y-44661146D01*
X20732445Y-44547176D01*
X20732431Y-44547170D01*
X20505944Y-44469416D01*
X20269735Y-44430000D01*
X20030264Y-44430000D01*
X19862482Y-44457997D01*
X19793117Y-44449615D01*
X19739295Y-44405062D01*
X19718105Y-44338483D01*
X19736273Y-44271017D01*
X19750835Y-44251715D01*
X19774612Y-44225887D01*
X19905636Y-44025340D01*
X20001864Y-43805962D01*
X20060672Y-43573737D01*
X20060673Y-43573729D01*
X20080454Y-43335006D01*
X20080454Y-43334993D01*
X20060673Y-43096270D01*
X20060672Y-43096267D01*
X20060672Y-43096263D01*
X20001864Y-42864038D01*
X19940879Y-42725005D01*
X28414529Y-42725005D01*
X28434379Y-42964559D01*
X28493389Y-43197589D01*
X28589951Y-43417729D01*
X28686970Y-43566226D01*
X28721429Y-43618969D01*
X28884236Y-43795825D01*
X28884239Y-43795827D01*
X28884242Y-43795830D01*
X29073924Y-43943466D01*
X29073930Y-43943470D01*
X29073933Y-43943472D01*
X29285344Y-44057882D01*
X29285347Y-44057883D01*
X29512699Y-44135933D01*
X29512701Y-44135933D01*
X29512703Y-44135934D01*
X29749808Y-44175500D01*
X29749809Y-44175500D01*
X29990191Y-44175500D01*
X29990192Y-44175500D01*
X30227297Y-44135934D01*
X30454656Y-44057882D01*
X30666067Y-43943472D01*
X30755897Y-43873553D01*
X30820889Y-43847912D01*
X30889429Y-43861478D01*
X30939754Y-43909946D01*
X30955886Y-43977928D01*
X30955635Y-43981642D01*
X30954529Y-43994997D01*
X30954529Y-43995005D01*
X30974379Y-44234559D01*
X31033389Y-44467589D01*
X31129951Y-44687729D01*
X31250329Y-44871980D01*
X31261429Y-44888969D01*
X31424236Y-45065825D01*
X31424239Y-45065827D01*
X31424242Y-45065830D01*
X31613924Y-45213466D01*
X31613930Y-45213470D01*
X31613933Y-45213472D01*
X31825344Y-45327882D01*
X31825347Y-45327883D01*
X32052699Y-45405933D01*
X32052701Y-45405933D01*
X32052703Y-45405934D01*
X32289808Y-45445500D01*
X32289809Y-45445500D01*
X32530191Y-45445500D01*
X32530192Y-45445500D01*
X32767297Y-45405934D01*
X32994656Y-45327882D01*
X33206067Y-45213472D01*
X33395764Y-45065825D01*
X33558571Y-44888969D01*
X33690049Y-44687728D01*
X33786610Y-44467591D01*
X33845620Y-44234563D01*
X33859912Y-44062084D01*
X33865471Y-43995005D01*
X33865471Y-43994994D01*
X33845620Y-43755440D01*
X33845620Y-43755437D01*
X33786610Y-43522409D01*
X33690049Y-43302272D01*
X33655898Y-43250000D01*
X41319539Y-43250000D01*
X41339311Y-43412842D01*
X41339312Y-43412845D01*
X41395989Y-43562290D01*
X41397483Y-43566228D01*
X41438117Y-43625096D01*
X41490668Y-43701229D01*
X41490670Y-43701231D01*
X41490672Y-43701233D01*
X41613451Y-43810006D01*
X41613452Y-43810006D01*
X41613454Y-43810008D01*
X41758705Y-43886242D01*
X41758707Y-43886242D01*
X41758708Y-43886243D01*
X41917978Y-43925500D01*
X41917979Y-43925500D01*
X42082022Y-43925500D01*
X42241291Y-43886243D01*
X42241291Y-43886242D01*
X42241295Y-43886242D01*
X42386546Y-43810008D01*
X42509332Y-43701229D01*
X42602518Y-43566226D01*
X42660688Y-43412845D01*
X42680461Y-43250000D01*
X42660688Y-43087155D01*
X42602518Y-42933774D01*
X42509332Y-42798771D01*
X42509329Y-42798768D01*
X42509327Y-42798766D01*
X42386548Y-42689993D01*
X42300179Y-42644663D01*
X42241295Y-42613758D01*
X42241294Y-42613757D01*
X42241291Y-42613756D01*
X42082022Y-42574500D01*
X42082021Y-42574500D01*
X41917979Y-42574500D01*
X41917978Y-42574500D01*
X41758708Y-42613756D01*
X41613451Y-42689993D01*
X41490672Y-42798766D01*
X41490666Y-42798773D01*
X41397483Y-42933771D01*
X41339312Y-43087154D01*
X41339311Y-43087157D01*
X41319539Y-43249999D01*
X41319539Y-43250000D01*
X33655898Y-43250000D01*
X33558571Y-43101031D01*
X33395764Y-42924175D01*
X33265585Y-42822852D01*
X33224773Y-42766143D01*
X33221098Y-42696370D01*
X33255730Y-42635687D01*
X33265579Y-42627151D01*
X33395764Y-42525825D01*
X33558571Y-42348969D01*
X33690049Y-42147728D01*
X33710984Y-42100000D01*
X34319539Y-42100000D01*
X34339311Y-42262842D01*
X34339312Y-42262845D01*
X34397483Y-42416228D01*
X34445255Y-42485437D01*
X34490668Y-42551229D01*
X34490670Y-42551231D01*
X34490672Y-42551233D01*
X34613451Y-42660006D01*
X34613452Y-42660006D01*
X34613454Y-42660008D01*
X34758705Y-42736242D01*
X34758707Y-42736242D01*
X34758708Y-42736243D01*
X34917978Y-42775500D01*
X34917979Y-42775500D01*
X35082022Y-42775500D01*
X35241291Y-42736243D01*
X35241291Y-42736242D01*
X35241295Y-42736242D01*
X35386546Y-42660008D01*
X35509332Y-42551229D01*
X35602518Y-42416226D01*
X35655045Y-42277723D01*
X35697223Y-42222021D01*
X35741309Y-42201299D01*
X35900564Y-42162046D01*
X36045815Y-42085812D01*
X36168601Y-41977033D01*
X36261787Y-41842030D01*
X36319957Y-41688649D01*
X36339730Y-41525804D01*
X36339730Y-41525803D01*
X36339730Y-41518303D01*
X36341421Y-41518303D01*
X36351376Y-41458424D01*
X36398279Y-41406637D01*
X36405359Y-41402618D01*
X36486546Y-41360008D01*
X36609332Y-41251229D01*
X36702518Y-41116226D01*
X36708672Y-41100000D01*
X40370039Y-41100000D01*
X40389811Y-41262842D01*
X40389812Y-41262845D01*
X40446248Y-41411655D01*
X40447983Y-41416228D01*
X40510313Y-41506528D01*
X40541168Y-41551229D01*
X40541170Y-41551231D01*
X40541172Y-41551233D01*
X40663951Y-41660006D01*
X40663952Y-41660006D01*
X40663954Y-41660008D01*
X40809205Y-41736242D01*
X40809207Y-41736242D01*
X40809208Y-41736243D01*
X40968478Y-41775500D01*
X40968479Y-41775500D01*
X41132522Y-41775500D01*
X41291791Y-41736243D01*
X41291791Y-41736242D01*
X41291795Y-41736242D01*
X41437046Y-41660008D01*
X41559832Y-41551229D01*
X41653018Y-41416226D01*
X41711188Y-41262845D01*
X41730961Y-41100000D01*
X41711188Y-40937155D01*
X41653018Y-40783774D01*
X41559832Y-40648771D01*
X41559829Y-40648768D01*
X41559827Y-40648766D01*
X41437048Y-40539993D01*
X41291791Y-40463756D01*
X41132522Y-40424500D01*
X41132521Y-40424500D01*
X40968479Y-40424500D01*
X40968478Y-40424500D01*
X40809208Y-40463756D01*
X40663951Y-40539993D01*
X40541172Y-40648766D01*
X40541166Y-40648773D01*
X40447983Y-40783771D01*
X40389812Y-40937154D01*
X40389811Y-40937157D01*
X40370039Y-41099999D01*
X40370039Y-41100000D01*
X36708672Y-41100000D01*
X36760688Y-40962845D01*
X36780461Y-40800000D01*
X36778490Y-40783771D01*
X36767262Y-40691296D01*
X36760688Y-40637155D01*
X36702518Y-40483774D01*
X36609332Y-40348771D01*
X36609329Y-40348768D01*
X36609327Y-40348766D01*
X36497844Y-40250000D01*
X42319539Y-40250000D01*
X42339311Y-40412842D01*
X42339312Y-40412845D01*
X42387533Y-40539994D01*
X42397483Y-40566228D01*
X42417354Y-40595016D01*
X42490668Y-40701229D01*
X42490670Y-40701231D01*
X42490672Y-40701233D01*
X42613451Y-40810006D01*
X42613452Y-40810006D01*
X42613454Y-40810008D01*
X42758705Y-40886242D01*
X42758707Y-40886242D01*
X42758708Y-40886243D01*
X42917978Y-40925500D01*
X42917979Y-40925500D01*
X43082022Y-40925500D01*
X43241291Y-40886243D01*
X43241291Y-40886242D01*
X43241295Y-40886242D01*
X43386546Y-40810008D01*
X43509332Y-40701229D01*
X43602518Y-40566226D01*
X43660688Y-40412845D01*
X43680461Y-40250000D01*
X43677525Y-40225824D01*
X43669989Y-40163756D01*
X43660688Y-40087155D01*
X43602518Y-39933774D01*
X43509332Y-39798771D01*
X43509329Y-39798768D01*
X43509327Y-39798766D01*
X43386548Y-39689993D01*
X43241291Y-39613756D01*
X43082022Y-39574500D01*
X43082021Y-39574500D01*
X42917979Y-39574500D01*
X42917978Y-39574500D01*
X42758708Y-39613756D01*
X42613451Y-39689993D01*
X42490672Y-39798766D01*
X42490666Y-39798773D01*
X42397483Y-39933771D01*
X42339312Y-40087154D01*
X42339311Y-40087157D01*
X42319539Y-40249999D01*
X42319539Y-40250000D01*
X36497844Y-40250000D01*
X36486548Y-40239993D01*
X36438129Y-40214580D01*
X36341295Y-40163758D01*
X36341294Y-40163757D01*
X36341291Y-40163756D01*
X36182022Y-40124500D01*
X36182021Y-40124500D01*
X36017979Y-40124500D01*
X36017978Y-40124500D01*
X35858708Y-40163756D01*
X35713451Y-40239993D01*
X35590672Y-40348766D01*
X35590666Y-40348773D01*
X35497483Y-40483771D01*
X35439312Y-40637154D01*
X35439311Y-40637157D01*
X35419539Y-40799999D01*
X35419539Y-40807500D01*
X35417851Y-40807500D01*
X35407884Y-40867394D01*
X35360973Y-40919174D01*
X35353882Y-40923199D01*
X35272721Y-40965796D01*
X35149941Y-41074570D01*
X35149935Y-41074577D01*
X35056752Y-41209575D01*
X35004223Y-41348080D01*
X34962044Y-41403783D01*
X34917957Y-41424505D01*
X34758708Y-41463757D01*
X34758707Y-41463757D01*
X34758705Y-41463758D01*
X34686079Y-41501874D01*
X34613451Y-41539993D01*
X34490672Y-41648766D01*
X34490666Y-41648773D01*
X34397483Y-41783771D01*
X34339312Y-41937154D01*
X34339311Y-41937157D01*
X34319539Y-42099999D01*
X34319539Y-42100000D01*
X33710984Y-42100000D01*
X33786610Y-41927591D01*
X33845620Y-41694563D01*
X33857497Y-41551229D01*
X33865471Y-41455005D01*
X33865471Y-41454994D01*
X33848586Y-41251229D01*
X33845620Y-41215437D01*
X33786610Y-40982409D01*
X33690049Y-40762272D01*
X33687257Y-40757999D01*
X33608307Y-40637157D01*
X33558571Y-40561031D01*
X33395764Y-40384175D01*
X33331872Y-40334446D01*
X33265176Y-40282534D01*
X33224364Y-40225824D01*
X33220689Y-40156051D01*
X33243626Y-40115860D01*
X33244425Y-40102979D01*
X32632057Y-39490610D01*
X32598572Y-39429287D01*
X32603556Y-39359595D01*
X32645428Y-39303662D01*
X32665930Y-39291212D01*
X32666357Y-39291007D01*
X32765798Y-39198740D01*
X32788032Y-39160228D01*
X32838599Y-39112013D01*
X32907206Y-39098789D01*
X32972071Y-39124757D01*
X32983101Y-39134547D01*
X33597310Y-39748757D01*
X33689606Y-39607490D01*
X33786134Y-39387428D01*
X33845125Y-39154476D01*
X33864969Y-38915005D01*
X33864969Y-38914994D01*
X33845125Y-38675523D01*
X33826000Y-38600000D01*
X35419539Y-38600000D01*
X35439311Y-38762842D01*
X35439312Y-38762845D01*
X35484119Y-38880992D01*
X35497483Y-38916228D01*
X35537705Y-38974499D01*
X35590668Y-39051229D01*
X35590670Y-39051231D01*
X35590672Y-39051233D01*
X35713451Y-39160006D01*
X35713452Y-39160006D01*
X35713454Y-39160008D01*
X35858705Y-39236242D01*
X35858707Y-39236242D01*
X35858708Y-39236243D01*
X36017978Y-39275500D01*
X36017979Y-39275500D01*
X36182022Y-39275500D01*
X36221839Y-39265685D01*
X36341295Y-39236242D01*
X36395228Y-39207935D01*
X36463733Y-39194210D01*
X36528787Y-39219702D01*
X36569732Y-39276317D01*
X36575948Y-39302785D01*
X36589311Y-39412843D01*
X36589312Y-39412845D01*
X36619525Y-39492511D01*
X36647483Y-39566228D01*
X36680291Y-39613758D01*
X36740668Y-39701229D01*
X36740670Y-39701231D01*
X36740672Y-39701233D01*
X36863451Y-39810006D01*
X36863452Y-39810006D01*
X36863454Y-39810008D01*
X37008705Y-39886242D01*
X37008707Y-39886242D01*
X37008708Y-39886243D01*
X37167978Y-39925500D01*
X37167979Y-39925500D01*
X37332022Y-39925500D01*
X37491291Y-39886243D01*
X37491291Y-39886242D01*
X37491295Y-39886242D01*
X37636546Y-39810008D01*
X37759332Y-39701229D01*
X37852518Y-39566226D01*
X37910688Y-39412845D01*
X37930461Y-39250000D01*
X37928790Y-39236242D01*
X37913706Y-39112013D01*
X37910688Y-39087155D01*
X37852518Y-38933774D01*
X37759332Y-38798771D01*
X37759329Y-38798768D01*
X37759327Y-38798766D01*
X37636548Y-38689993D01*
X37491291Y-38613756D01*
X37332022Y-38574500D01*
X37332021Y-38574500D01*
X37189706Y-38574500D01*
X37122667Y-38554815D01*
X37076912Y-38502011D01*
X37066968Y-38432853D01*
X37095993Y-38369297D01*
X37135639Y-38341606D01*
X37134653Y-38339727D01*
X37141291Y-38336242D01*
X37141295Y-38336242D01*
X37286546Y-38260008D01*
X37409332Y-38151229D01*
X37445182Y-38099290D01*
X37499463Y-38055302D01*
X37568912Y-38047642D01*
X37631477Y-38078745D01*
X37663172Y-38125760D01*
X37697482Y-38216226D01*
X37790668Y-38351229D01*
X37790670Y-38351231D01*
X37790672Y-38351233D01*
X37913451Y-38460006D01*
X37913452Y-38460006D01*
X37913454Y-38460008D01*
X38058705Y-38536242D01*
X38058707Y-38536242D01*
X38058708Y-38536243D01*
X38217978Y-38575500D01*
X38217979Y-38575500D01*
X38382022Y-38575500D01*
X38541291Y-38536243D01*
X38541291Y-38536242D01*
X38541295Y-38536242D01*
X38610348Y-38500000D01*
X45019539Y-38500000D01*
X45039311Y-38662842D01*
X45039312Y-38662845D01*
X45096537Y-38813735D01*
X45097483Y-38816228D01*
X45170705Y-38922307D01*
X45190668Y-38951229D01*
X45190670Y-38951231D01*
X45190672Y-38951233D01*
X45313451Y-39060006D01*
X45313452Y-39060006D01*
X45313454Y-39060008D01*
X45458705Y-39136242D01*
X45458707Y-39136242D01*
X45458708Y-39136243D01*
X45594285Y-39169660D01*
X45654666Y-39204817D01*
X45680552Y-39246086D01*
X45697481Y-39290725D01*
X45745019Y-39359595D01*
X45790668Y-39425729D01*
X45790670Y-39425731D01*
X45790672Y-39425733D01*
X45913451Y-39534506D01*
X45913452Y-39534506D01*
X45913454Y-39534508D01*
X46058705Y-39610742D01*
X46058707Y-39610742D01*
X46058708Y-39610743D01*
X46217978Y-39650000D01*
X46217979Y-39650000D01*
X46382022Y-39650000D01*
X46541291Y-39610743D01*
X46541291Y-39610742D01*
X46541295Y-39610742D01*
X46686546Y-39534508D01*
X46809332Y-39425729D01*
X46902518Y-39290726D01*
X46960688Y-39137345D01*
X46980461Y-38974500D01*
X46960688Y-38811655D01*
X46902518Y-38658274D01*
X46833088Y-38557688D01*
X46811206Y-38491335D01*
X46828671Y-38423683D01*
X46833074Y-38416832D01*
X46902518Y-38316226D01*
X46960688Y-38162845D01*
X46980461Y-38000000D01*
X46960688Y-37837155D01*
X46902518Y-37683774D01*
X46809332Y-37548771D01*
X46809329Y-37548768D01*
X46809327Y-37548766D01*
X46686548Y-37439993D01*
X46644756Y-37418059D01*
X46541295Y-37363758D01*
X46541291Y-37363757D01*
X46416382Y-37332969D01*
X46356002Y-37297812D01*
X46330116Y-37256543D01*
X46302518Y-37183774D01*
X46240059Y-37093287D01*
X46209332Y-37048771D01*
X46209329Y-37048768D01*
X46209327Y-37048766D01*
X46086548Y-36939993D01*
X45941291Y-36863756D01*
X45782022Y-36824500D01*
X45782021Y-36824500D01*
X45617979Y-36824500D01*
X45617978Y-36824500D01*
X45458708Y-36863756D01*
X45313451Y-36939993D01*
X45190672Y-37048766D01*
X45190666Y-37048773D01*
X45097483Y-37183771D01*
X45039312Y-37337154D01*
X45039311Y-37337157D01*
X45019539Y-37499999D01*
X45019539Y-37500000D01*
X45039311Y-37662842D01*
X45039312Y-37662845D01*
X45097483Y-37816228D01*
X45175710Y-37929560D01*
X45197593Y-37995915D01*
X45180127Y-38063567D01*
X45175710Y-38070440D01*
X45097483Y-38183771D01*
X45039312Y-38337154D01*
X45039311Y-38337157D01*
X45019539Y-38499999D01*
X45019539Y-38500000D01*
X38610348Y-38500000D01*
X38686546Y-38460008D01*
X38809332Y-38351229D01*
X38902518Y-38216226D01*
X38960688Y-38062845D01*
X38980461Y-37900000D01*
X38974933Y-37854477D01*
X38962401Y-37751264D01*
X38960688Y-37737155D01*
X38902518Y-37583774D01*
X38809332Y-37448771D01*
X38809329Y-37448768D01*
X38809327Y-37448766D01*
X38686548Y-37339993D01*
X38578727Y-37283404D01*
X38541295Y-37263758D01*
X38541294Y-37263757D01*
X38541291Y-37263756D01*
X38382022Y-37224500D01*
X38382021Y-37224500D01*
X38217979Y-37224500D01*
X38217978Y-37224500D01*
X38058708Y-37263756D01*
X37913451Y-37339993D01*
X37790672Y-37448766D01*
X37790667Y-37448771D01*
X37754817Y-37500709D01*
X37700533Y-37544698D01*
X37631085Y-37552356D01*
X37568520Y-37521252D01*
X37536827Y-37474240D01*
X37502518Y-37383774D01*
X37409332Y-37248771D01*
X37409329Y-37248768D01*
X37409327Y-37248766D01*
X37286548Y-37139993D01*
X37197559Y-37093288D01*
X37141295Y-37063758D01*
X37141294Y-37063757D01*
X37141291Y-37063756D01*
X36982022Y-37024500D01*
X36982021Y-37024500D01*
X36817979Y-37024500D01*
X36817978Y-37024500D01*
X36658708Y-37063756D01*
X36513451Y-37139993D01*
X36390672Y-37248766D01*
X36390666Y-37248773D01*
X36297483Y-37383771D01*
X36239312Y-37537154D01*
X36239311Y-37537157D01*
X36219539Y-37699999D01*
X36219539Y-37700000D01*
X36229927Y-37785554D01*
X36218467Y-37854477D01*
X36171563Y-37906263D01*
X36106831Y-37924500D01*
X36017978Y-37924500D01*
X35858708Y-37963756D01*
X35713451Y-38039993D01*
X35590672Y-38148766D01*
X35590666Y-38148773D01*
X35497483Y-38283771D01*
X35439312Y-38437154D01*
X35439311Y-38437157D01*
X35419539Y-38599999D01*
X35419539Y-38600000D01*
X33826000Y-38600000D01*
X33786134Y-38442571D01*
X33689608Y-38222514D01*
X33597310Y-38081241D01*
X32985184Y-38693367D01*
X32923861Y-38726852D01*
X32854169Y-38721868D01*
X32800555Y-38682998D01*
X32784481Y-38662842D01*
X32745339Y-38613758D01*
X32719535Y-38581400D01*
X32719533Y-38581399D01*
X32647274Y-38532133D01*
X32602972Y-38478104D01*
X32594914Y-38408701D01*
X32625657Y-38345958D01*
X32629445Y-38341999D01*
X33244426Y-37727019D01*
X33243564Y-37713138D01*
X33224364Y-37686459D01*
X33220691Y-37616686D01*
X33255322Y-37556003D01*
X33265165Y-37547473D01*
X33395764Y-37445825D01*
X33558571Y-37268969D01*
X33690049Y-37067728D01*
X33786610Y-36847591D01*
X33845620Y-36614563D01*
X33859154Y-36451233D01*
X33865471Y-36375005D01*
X33865471Y-36374994D01*
X33845687Y-36136243D01*
X33845620Y-36135437D01*
X33811323Y-36000000D01*
X35519539Y-36000000D01*
X35539311Y-36162842D01*
X35539312Y-36162845D01*
X35597482Y-36316226D01*
X35690668Y-36451229D01*
X35690670Y-36451231D01*
X35690672Y-36451233D01*
X35813451Y-36560006D01*
X35813452Y-36560006D01*
X35813454Y-36560008D01*
X35958705Y-36636242D01*
X35958707Y-36636242D01*
X35958708Y-36636243D01*
X36117978Y-36675500D01*
X36117979Y-36675500D01*
X36282022Y-36675500D01*
X36441291Y-36636243D01*
X36441291Y-36636242D01*
X36441295Y-36636242D01*
X36586546Y-36560008D01*
X36642774Y-36510193D01*
X36706003Y-36480474D01*
X36775267Y-36489656D01*
X36807224Y-36510193D01*
X36863454Y-36560008D01*
X37008705Y-36636242D01*
X37008707Y-36636242D01*
X37008708Y-36636243D01*
X37167978Y-36675500D01*
X37167979Y-36675500D01*
X37332022Y-36675500D01*
X37491291Y-36636243D01*
X37491291Y-36636242D01*
X37491295Y-36636242D01*
X37636546Y-36560008D01*
X37759332Y-36451229D01*
X37852518Y-36316226D01*
X37910688Y-36162845D01*
X37930461Y-36000000D01*
X37910688Y-35837155D01*
X37852518Y-35683774D01*
X37759332Y-35548771D01*
X37759329Y-35548768D01*
X37759327Y-35548766D01*
X37704282Y-35500000D01*
X41119539Y-35500000D01*
X41139311Y-35662842D01*
X41139312Y-35662845D01*
X41178054Y-35765000D01*
X41197483Y-35816228D01*
X41256970Y-35902409D01*
X41290668Y-35951229D01*
X41290670Y-35951231D01*
X41290672Y-35951233D01*
X41413451Y-36060006D01*
X41413452Y-36060006D01*
X41413454Y-36060008D01*
X41558705Y-36136242D01*
X41558707Y-36136242D01*
X41558708Y-36136243D01*
X41717978Y-36175500D01*
X41717979Y-36175500D01*
X41882022Y-36175500D01*
X42041291Y-36136243D01*
X42041291Y-36136242D01*
X42041295Y-36136242D01*
X42186546Y-36060008D01*
X42309332Y-35951229D01*
X42402518Y-35816226D01*
X42460688Y-35662845D01*
X42480461Y-35500000D01*
X42478157Y-35481029D01*
X42460688Y-35337157D01*
X42460688Y-35337155D01*
X42402518Y-35183774D01*
X42309332Y-35048771D01*
X42309329Y-35048768D01*
X42309327Y-35048766D01*
X42186548Y-34939993D01*
X42041291Y-34863756D01*
X41882022Y-34824500D01*
X41882021Y-34824500D01*
X41717979Y-34824500D01*
X41717978Y-34824500D01*
X41558708Y-34863756D01*
X41413451Y-34939993D01*
X41290672Y-35048766D01*
X41290666Y-35048773D01*
X41197483Y-35183771D01*
X41139312Y-35337154D01*
X41139311Y-35337157D01*
X41119539Y-35499999D01*
X41119539Y-35500000D01*
X37704282Y-35500000D01*
X37636548Y-35439993D01*
X37491291Y-35363756D01*
X37332022Y-35324500D01*
X37332021Y-35324500D01*
X37167979Y-35324500D01*
X37167978Y-35324500D01*
X37008708Y-35363756D01*
X36863451Y-35439993D01*
X36807225Y-35489805D01*
X36743992Y-35519526D01*
X36674728Y-35510342D01*
X36642773Y-35489805D01*
X36586546Y-35439992D01*
X36441295Y-35363758D01*
X36441294Y-35363757D01*
X36441291Y-35363756D01*
X36282022Y-35324500D01*
X36282021Y-35324500D01*
X36117979Y-35324500D01*
X36117978Y-35324500D01*
X35958708Y-35363756D01*
X35813451Y-35439993D01*
X35690672Y-35548766D01*
X35690666Y-35548773D01*
X35597483Y-35683771D01*
X35539312Y-35837154D01*
X35539311Y-35837157D01*
X35519539Y-35999999D01*
X35519539Y-36000000D01*
X33811323Y-36000000D01*
X33786610Y-35902409D01*
X33690049Y-35682272D01*
X33659677Y-35635785D01*
X33564303Y-35489805D01*
X33558571Y-35481031D01*
X33395764Y-35304175D01*
X33395759Y-35304171D01*
X33395757Y-35304169D01*
X33206075Y-35156533D01*
X33206069Y-35156529D01*
X32994657Y-35042118D01*
X32994652Y-35042116D01*
X32767300Y-34964066D01*
X32558303Y-34929191D01*
X32530192Y-34924500D01*
X32289808Y-34924500D01*
X32261697Y-34929191D01*
X32052699Y-34964066D01*
X31825347Y-35042116D01*
X31825342Y-35042118D01*
X31613931Y-35156529D01*
X31520661Y-35229124D01*
X31455667Y-35254766D01*
X31387127Y-35241199D01*
X31336802Y-35192731D01*
X31320499Y-35131270D01*
X31320499Y-34107129D01*
X31320498Y-34107123D01*
X31320497Y-34107116D01*
X31314091Y-34047517D01*
X31311535Y-34040665D01*
X31263797Y-33912671D01*
X31263793Y-33912664D01*
X31177547Y-33797455D01*
X31177544Y-33797452D01*
X31062335Y-33711206D01*
X31062328Y-33711202D01*
X30927482Y-33660908D01*
X30927483Y-33660908D01*
X30867883Y-33654501D01*
X30867881Y-33654500D01*
X30867873Y-33654500D01*
X30867864Y-33654500D01*
X28872129Y-33654500D01*
X28872123Y-33654501D01*
X28812516Y-33660908D01*
X28677671Y-33711202D01*
X28677664Y-33711206D01*
X28562455Y-33797452D01*
X28562452Y-33797455D01*
X28476206Y-33912664D01*
X28476202Y-33912671D01*
X28425908Y-34047517D01*
X28419501Y-34107116D01*
X28419501Y-34107123D01*
X28419500Y-34107135D01*
X28419500Y-36102870D01*
X28419501Y-36102876D01*
X28425908Y-36162483D01*
X28476202Y-36297328D01*
X28476206Y-36297335D01*
X28562452Y-36412544D01*
X28562455Y-36412547D01*
X28677664Y-36498793D01*
X28677671Y-36498797D01*
X28710271Y-36510956D01*
X28766204Y-36552827D01*
X28790622Y-36618291D01*
X28775771Y-36686564D01*
X28758169Y-36711120D01*
X28721430Y-36751029D01*
X28721427Y-36751033D01*
X28589951Y-36952270D01*
X28493389Y-37172410D01*
X28434379Y-37405440D01*
X28414529Y-37644994D01*
X28414529Y-37645005D01*
X28434379Y-37884559D01*
X28493389Y-38117589D01*
X28589951Y-38337729D01*
X28687639Y-38487250D01*
X28721429Y-38538969D01*
X28884236Y-38715825D01*
X28884239Y-38715827D01*
X28884242Y-38715830D01*
X29014821Y-38817464D01*
X29055634Y-38874174D01*
X29059309Y-38943947D01*
X29036373Y-38984135D01*
X29035573Y-38997019D01*
X29647942Y-39609389D01*
X29681427Y-39670712D01*
X29676443Y-39740404D01*
X29634571Y-39796337D01*
X29614073Y-39808785D01*
X29613646Y-39808990D01*
X29613645Y-39808990D01*
X29514202Y-39901260D01*
X29514198Y-39901264D01*
X29491965Y-39939773D01*
X29441397Y-39987988D01*
X29372790Y-40001209D01*
X29307925Y-39975240D01*
X29296898Y-39965452D01*
X28682687Y-39351241D01*
X28590392Y-39492511D01*
X28493865Y-39712571D01*
X28434874Y-39945523D01*
X28415031Y-40184994D01*
X28415031Y-40185005D01*
X28434874Y-40424476D01*
X28493865Y-40657428D01*
X28590391Y-40877485D01*
X28682688Y-41018756D01*
X29294814Y-40406631D01*
X29356137Y-40373146D01*
X29425829Y-40378130D01*
X29479442Y-40416999D01*
X29560465Y-40518599D01*
X29632725Y-40567865D01*
X29677026Y-40621893D01*
X29685085Y-40691296D01*
X29654342Y-40754039D01*
X29650553Y-40757999D01*
X29035572Y-41372979D01*
X29036434Y-41386859D01*
X29055636Y-41413541D01*
X29059309Y-41483314D01*
X29024677Y-41543996D01*
X29014822Y-41552535D01*
X28884242Y-41654169D01*
X28884239Y-41654172D01*
X28884236Y-41654174D01*
X28884236Y-41654175D01*
X28852503Y-41688646D01*
X28721430Y-41831029D01*
X28721427Y-41831033D01*
X28589951Y-42032270D01*
X28493389Y-42252410D01*
X28434379Y-42485440D01*
X28414529Y-42724994D01*
X28414529Y-42725005D01*
X19940879Y-42725005D01*
X19905636Y-42644660D01*
X19774612Y-42444113D01*
X19612366Y-42267866D01*
X19526839Y-42201298D01*
X19423331Y-42120734D01*
X19423325Y-42120730D01*
X19212642Y-42006713D01*
X19212637Y-42006711D01*
X18986067Y-41928930D01*
X18828540Y-41902643D01*
X18749778Y-41889500D01*
X18510222Y-41889500D01*
X18451150Y-41899357D01*
X18273932Y-41928930D01*
X18047362Y-42006711D01*
X18047357Y-42006713D01*
X17836674Y-42120730D01*
X17836668Y-42120734D01*
X17647641Y-42267860D01*
X17647631Y-42267869D01*
X17485385Y-42444116D01*
X17354362Y-42644663D01*
X17258136Y-42864036D01*
X17199328Y-43096262D01*
X17199326Y-43096270D01*
X17179546Y-43334993D01*
X17179546Y-43335006D01*
X13000500Y-43335006D01*
X13000500Y-33225006D01*
X17180048Y-33225006D01*
X17199822Y-33463650D01*
X17258610Y-33695799D01*
X17354805Y-33915102D01*
X17446301Y-34055145D01*
X18058372Y-33443073D01*
X18119695Y-33409588D01*
X18189386Y-33414572D01*
X18242999Y-33453440D01*
X18323905Y-33554892D01*
X18396322Y-33604265D01*
X18440624Y-33658294D01*
X18448682Y-33727698D01*
X18417940Y-33790440D01*
X18414151Y-33794400D01*
X17799134Y-34409416D01*
X17799135Y-34409417D01*
X17836949Y-34438849D01*
X17836954Y-34438853D01*
X18047554Y-34552823D01*
X18047568Y-34552829D01*
X18274055Y-34630583D01*
X18510265Y-34670000D01*
X18749735Y-34670000D01*
X18917516Y-34642002D01*
X18986881Y-34650384D01*
X19040703Y-34694937D01*
X19061894Y-34761515D01*
X19043726Y-34828981D01*
X19029158Y-34848292D01*
X19005385Y-34874116D01*
X18874362Y-35074663D01*
X18778136Y-35294036D01*
X18719328Y-35526262D01*
X18719326Y-35526270D01*
X18699546Y-35764993D01*
X18699546Y-35765006D01*
X18719326Y-36003729D01*
X18719328Y-36003737D01*
X18778136Y-36235963D01*
X18874362Y-36455336D01*
X18874364Y-36455340D01*
X18942747Y-36560008D01*
X18978389Y-36614563D01*
X19005388Y-36655887D01*
X19167634Y-36832134D01*
X19208262Y-36863756D01*
X19356668Y-36979265D01*
X19356674Y-36979269D01*
X19356677Y-36979271D01*
X19520130Y-37067728D01*
X19546393Y-37081941D01*
X19567359Y-37093287D01*
X19793935Y-37171070D01*
X20030222Y-37210500D01*
X20030223Y-37210500D01*
X20269777Y-37210500D01*
X20269778Y-37210500D01*
X20506065Y-37171070D01*
X20732641Y-37093287D01*
X20943323Y-36979271D01*
X21132366Y-36832134D01*
X21294612Y-36655887D01*
X21425636Y-36455340D01*
X21521864Y-36235962D01*
X21580672Y-36003737D01*
X21589068Y-35902410D01*
X21600454Y-35765006D01*
X21600454Y-35764993D01*
X21580673Y-35526270D01*
X21580672Y-35526267D01*
X21580672Y-35526263D01*
X21521864Y-35294038D01*
X21425636Y-35074660D01*
X21294612Y-34874113D01*
X21132366Y-34697866D01*
X21071361Y-34650384D01*
X20943331Y-34550734D01*
X20943325Y-34550730D01*
X20732642Y-34436713D01*
X20732637Y-34436711D01*
X20506067Y-34358930D01*
X20348540Y-34332643D01*
X20269778Y-34319500D01*
X20030222Y-34319500D01*
X19862231Y-34347532D01*
X19792866Y-34339150D01*
X19739044Y-34294597D01*
X19717854Y-34228018D01*
X19736022Y-34160552D01*
X19750594Y-34141238D01*
X19774214Y-34115580D01*
X19774217Y-34115576D01*
X19905194Y-33915102D01*
X19910205Y-33903678D01*
X21650737Y-33903678D01*
X21680762Y-34176559D01*
X21680763Y-34176569D01*
X21750202Y-34442178D01*
X21830265Y-34630583D01*
X21857577Y-34694852D01*
X21966980Y-34874116D01*
X22000592Y-34929191D01*
X22000599Y-34929201D01*
X22176199Y-35140207D01*
X22176204Y-35140212D01*
X22176209Y-35140218D01*
X22194412Y-35156528D01*
X22380672Y-35323419D01*
X22380674Y-35323420D01*
X22380677Y-35323423D01*
X22609641Y-35474904D01*
X22858221Y-35591433D01*
X23121119Y-35670527D01*
X23392731Y-35710500D01*
X23392736Y-35710500D01*
X23598552Y-35710500D01*
X23650744Y-35706679D01*
X23803805Y-35695477D01*
X24071775Y-35635784D01*
X24328198Y-35537711D01*
X24567609Y-35403347D01*
X24784904Y-35235557D01*
X24975454Y-35037916D01*
X25135196Y-34814637D01*
X25260727Y-34570479D01*
X25349370Y-34310646D01*
X25399236Y-34040674D01*
X25409262Y-33766320D01*
X25379236Y-33493429D01*
X25349104Y-33378173D01*
X25351192Y-33308338D01*
X25390706Y-33250715D01*
X25455100Y-33223602D01*
X25523931Y-33235607D01*
X25538923Y-33244358D01*
X25677226Y-33338651D01*
X25920359Y-33455738D01*
X26178228Y-33535280D01*
X26178229Y-33535280D01*
X26178232Y-33535281D01*
X26445063Y-33575499D01*
X26445068Y-33575499D01*
X26445071Y-33575500D01*
X26445072Y-33575500D01*
X26714928Y-33575500D01*
X26714929Y-33575500D01*
X26714936Y-33575499D01*
X26981767Y-33535281D01*
X26981768Y-33535280D01*
X26981772Y-33535280D01*
X27239641Y-33455738D01*
X27439785Y-33359354D01*
X27482767Y-33338655D01*
X27482767Y-33338654D01*
X27482775Y-33338651D01*
X27705741Y-33186635D01*
X27872777Y-33031648D01*
X27903557Y-33003089D01*
X27903557Y-33003087D01*
X27903561Y-33003085D01*
X28071815Y-32792102D01*
X28096122Y-32750000D01*
X36569539Y-32750000D01*
X36589311Y-32912842D01*
X36589312Y-32912845D01*
X36645343Y-33060587D01*
X36647483Y-33066228D01*
X36687954Y-33124860D01*
X36740668Y-33201229D01*
X36740670Y-33201231D01*
X36740672Y-33201233D01*
X36863451Y-33310006D01*
X36863452Y-33310006D01*
X36863454Y-33310008D01*
X37008705Y-33386242D01*
X37008707Y-33386242D01*
X37008708Y-33386243D01*
X37167978Y-33425500D01*
X37167979Y-33425500D01*
X37332022Y-33425500D01*
X37491291Y-33386243D01*
X37491291Y-33386242D01*
X37491295Y-33386242D01*
X37636546Y-33310008D01*
X37759332Y-33201229D01*
X37852518Y-33066226D01*
X37910688Y-32912845D01*
X37930461Y-32750000D01*
X37910688Y-32587155D01*
X37852518Y-32433774D01*
X37759332Y-32298771D01*
X37759329Y-32298768D01*
X37759327Y-32298766D01*
X37636548Y-32189993D01*
X37532174Y-32135213D01*
X37491295Y-32113758D01*
X37491294Y-32113757D01*
X37491291Y-32113756D01*
X37332022Y-32074500D01*
X37332021Y-32074500D01*
X37167979Y-32074500D01*
X37167978Y-32074500D01*
X37008708Y-32113756D01*
X36863451Y-32189993D01*
X36740672Y-32298766D01*
X36740666Y-32298773D01*
X36647483Y-32433771D01*
X36589312Y-32587154D01*
X36589311Y-32587157D01*
X36569539Y-32749999D01*
X36569539Y-32750000D01*
X28096122Y-32750000D01*
X28206743Y-32558398D01*
X28305334Y-32307195D01*
X28365383Y-32044103D01*
X28382221Y-31819416D01*
X28385549Y-31775004D01*
X28385549Y-31774995D01*
X28365383Y-31505898D01*
X28347033Y-31425500D01*
X28305334Y-31242805D01*
X28206743Y-30991602D01*
X28071815Y-30757898D01*
X28065517Y-30750000D01*
X46319539Y-30750000D01*
X46339311Y-30912842D01*
X46339312Y-30912845D01*
X46397482Y-31066226D01*
X46490668Y-31201229D01*
X46490670Y-31201231D01*
X46490672Y-31201233D01*
X46613451Y-31310006D01*
X46613452Y-31310006D01*
X46613454Y-31310008D01*
X46758705Y-31386242D01*
X46758707Y-31386242D01*
X46758708Y-31386243D01*
X46917978Y-31425500D01*
X46917979Y-31425500D01*
X47082022Y-31425500D01*
X47241291Y-31386243D01*
X47241291Y-31386242D01*
X47241295Y-31386242D01*
X47386546Y-31310008D01*
X47509332Y-31201229D01*
X47602518Y-31066226D01*
X47660688Y-30912845D01*
X47680461Y-30750000D01*
X47660688Y-30587155D01*
X47602518Y-30433774D01*
X47509332Y-30298771D01*
X47509329Y-30298768D01*
X47509327Y-30298766D01*
X47386548Y-30189993D01*
X47241291Y-30113756D01*
X47082022Y-30074500D01*
X47082021Y-30074500D01*
X46917979Y-30074500D01*
X46917978Y-30074500D01*
X46758708Y-30113756D01*
X46613451Y-30189993D01*
X46490672Y-30298766D01*
X46490666Y-30298773D01*
X46397483Y-30433771D01*
X46339312Y-30587154D01*
X46339311Y-30587157D01*
X46319539Y-30749999D01*
X46319539Y-30750000D01*
X28065517Y-30750000D01*
X27903561Y-30546915D01*
X27903560Y-30546914D01*
X27903557Y-30546910D01*
X27705741Y-30363365D01*
X27610999Y-30298771D01*
X27482775Y-30211349D01*
X27482769Y-30211346D01*
X27482768Y-30211345D01*
X27482767Y-30211344D01*
X27239643Y-30094263D01*
X27239645Y-30094263D01*
X26981773Y-30014720D01*
X26981767Y-30014718D01*
X26714936Y-29974500D01*
X26714929Y-29974500D01*
X26445071Y-29974500D01*
X26445063Y-29974500D01*
X26178232Y-30014718D01*
X26178226Y-30014720D01*
X25920358Y-30094262D01*
X25677230Y-30211346D01*
X25454258Y-30363365D01*
X25256442Y-30546910D01*
X25088185Y-30757898D01*
X24953258Y-30991599D01*
X24953256Y-30991603D01*
X24854666Y-31242804D01*
X24854664Y-31242811D01*
X24794616Y-31505898D01*
X24774451Y-31774995D01*
X24774451Y-31775004D01*
X24794616Y-32044101D01*
X24794616Y-32044103D01*
X24827548Y-32188387D01*
X24823275Y-32258125D01*
X24781976Y-32314483D01*
X24716764Y-32339566D01*
X24648343Y-32325412D01*
X24638238Y-32319395D01*
X24558516Y-32266652D01*
X24450359Y-32195096D01*
X24201779Y-32078567D01*
X24054362Y-32034216D01*
X23938879Y-31999472D01*
X23805915Y-31979904D01*
X23667269Y-31959500D01*
X23461453Y-31959500D01*
X23461448Y-31959500D01*
X23256195Y-31974523D01*
X23256185Y-31974524D01*
X22988229Y-32034214D01*
X22988224Y-32034216D01*
X22731799Y-32132290D01*
X22492392Y-32266652D01*
X22492387Y-32266655D01*
X22275097Y-32434441D01*
X22275088Y-32434450D01*
X22084549Y-32632080D01*
X22084547Y-32632082D01*
X21924805Y-32855361D01*
X21924802Y-32855366D01*
X21799275Y-33099515D01*
X21799271Y-33099525D01*
X21710632Y-33359344D01*
X21710629Y-33359358D01*
X21660765Y-33629314D01*
X21660763Y-33629334D01*
X21650737Y-33903678D01*
X19910205Y-33903678D01*
X20001389Y-33695799D01*
X20060177Y-33463650D01*
X20079952Y-33225006D01*
X20079952Y-33224993D01*
X20060177Y-32986349D01*
X20001389Y-32754200D01*
X19905194Y-32534897D01*
X19813697Y-32394853D01*
X19201626Y-33006924D01*
X19140303Y-33040409D01*
X19070611Y-33035425D01*
X19016998Y-32996556D01*
X18950240Y-32912845D01*
X18936095Y-32895108D01*
X18936094Y-32895107D01*
X18936093Y-32895106D01*
X18936092Y-32895105D01*
X18863676Y-32845732D01*
X18819374Y-32791703D01*
X18811316Y-32722300D01*
X18842059Y-32659557D01*
X18845847Y-32655598D01*
X19460863Y-32040582D01*
X19460863Y-32040581D01*
X19423050Y-32011150D01*
X19423045Y-32011146D01*
X19212445Y-31897176D01*
X19212431Y-31897170D01*
X18985944Y-31819416D01*
X18749735Y-31780000D01*
X18510265Y-31780000D01*
X18274055Y-31819416D01*
X18047568Y-31897170D01*
X18047554Y-31897176D01*
X17836953Y-32011147D01*
X17836950Y-32011149D01*
X17799135Y-32040581D01*
X17799135Y-32040582D01*
X18411688Y-32653135D01*
X18445173Y-32714458D01*
X18440189Y-32784150D01*
X18398317Y-32840083D01*
X18377814Y-32852534D01*
X18376489Y-32853171D01*
X18278156Y-32944412D01*
X18255628Y-32983433D01*
X18205060Y-33031648D01*
X18136453Y-33044870D01*
X18071589Y-33018902D01*
X18060560Y-33009113D01*
X17446301Y-32394853D01*
X17354803Y-32534902D01*
X17258610Y-32754200D01*
X17199822Y-32986349D01*
X17180048Y-33224993D01*
X17180048Y-33225006D01*
X13000500Y-33225006D01*
X13000500Y-29669968D01*
X13020185Y-29602929D01*
X13072989Y-29557174D01*
X13142147Y-29547230D01*
X13205703Y-29576255D01*
X13233028Y-29609987D01*
X13285790Y-29705454D01*
X13493805Y-29998622D01*
X13493806Y-29998623D01*
X13733339Y-30266661D01*
X13920339Y-30433774D01*
X14001377Y-30506194D01*
X14058760Y-30546910D01*
X14294548Y-30714211D01*
X14609167Y-30888094D01*
X14941276Y-31025659D01*
X15286700Y-31125173D01*
X15641093Y-31185387D01*
X16000000Y-31205543D01*
X16358907Y-31185387D01*
X16713300Y-31125173D01*
X17058724Y-31025659D01*
X17390833Y-30888094D01*
X17705452Y-30714211D01*
X17998623Y-30506194D01*
X18266661Y-30266661D01*
X18506194Y-29998623D01*
X18714211Y-29705452D01*
X18888094Y-29390833D01*
X19025659Y-29058724D01*
X19125173Y-28713300D01*
X19185387Y-28358907D01*
X19205543Y-28000000D01*
X19185387Y-27641093D01*
X19125173Y-27286700D01*
X19025659Y-26941276D01*
X18946429Y-26750000D01*
X39819539Y-26750000D01*
X39839311Y-26912842D01*
X39839312Y-26912845D01*
X39897482Y-27066226D01*
X39990668Y-27201229D01*
X39990670Y-27201231D01*
X39990672Y-27201233D01*
X40113451Y-27310006D01*
X40113452Y-27310006D01*
X40113454Y-27310008D01*
X40258705Y-27386242D01*
X40258707Y-27386242D01*
X40258708Y-27386243D01*
X40417978Y-27425500D01*
X40417979Y-27425500D01*
X40582022Y-27425500D01*
X40741291Y-27386243D01*
X40741291Y-27386242D01*
X40741295Y-27386242D01*
X40886546Y-27310008D01*
X41009332Y-27201229D01*
X41102518Y-27066226D01*
X41160688Y-26912845D01*
X41180461Y-26750000D01*
X41160688Y-26587155D01*
X41102518Y-26433774D01*
X41009332Y-26298771D01*
X41009329Y-26298768D01*
X41009327Y-26298766D01*
X40886548Y-26189993D01*
X40741291Y-26113756D01*
X40582022Y-26074500D01*
X40582021Y-26074500D01*
X40417979Y-26074500D01*
X40417978Y-26074500D01*
X40258708Y-26113756D01*
X40113451Y-26189993D01*
X39990672Y-26298766D01*
X39990666Y-26298773D01*
X39897483Y-26433771D01*
X39839312Y-26587154D01*
X39839311Y-26587157D01*
X39819539Y-26749999D01*
X39819539Y-26750000D01*
X18946429Y-26750000D01*
X18888094Y-26609167D01*
X18714211Y-26294548D01*
X18506194Y-26001377D01*
X18266661Y-25733339D01*
X17998623Y-25493806D01*
X17998622Y-25493805D01*
X17705454Y-25285790D01*
X17609988Y-25233028D01*
X17560835Y-25183371D01*
X17546332Y-25115023D01*
X17571082Y-25049684D01*
X17627229Y-25008099D01*
X17669969Y-25000500D01*
X49626000Y-25000500D01*
X49693039Y-25020185D01*
G37*
G04 #@! TD.AperFunction*
M02*
