G04 #@! TF.GenerationSoftware,KiCad,Pcbnew,7.0.7-2.fc38*
G04 #@! TF.CreationDate,2023-10-29T11:35:09+01:00*
G04 #@! TF.ProjectId,mangopimqpro-lan8720,6d616e67-6f70-4696-9d71-70726f2d6c61,rev?*
G04 #@! TF.SameCoordinates,Original*
G04 #@! TF.FileFunction,Legend,Bot*
G04 #@! TF.FilePolarity,Positive*
%FSLAX46Y46*%
G04 Gerber Fmt 4.6, Leading zero omitted, Abs format (unit mm)*
G04 Created by KiCad (PCBNEW 7.0.7-2.fc38) date 2023-10-29 11:35:09*
%MOMM*%
%LPD*%
G01*
G04 APERTURE LIST*
%ADD10C,0.100000*%
%ADD11C,0.150000*%
%ADD12C,0.120000*%
%ADD13C,3.250000*%
%ADD14C,1.890000*%
%ADD15R,1.900000X1.900000*%
%ADD16C,1.900000*%
%ADD17C,2.600000*%
%ADD18C,5.400000*%
%ADD19R,1.300000X0.300000*%
%ADD20R,2.200000X1.800000*%
G04 APERTURE END LIST*
D10*
X73964800Y-32011904D02*
X74012419Y-32154761D01*
X74012419Y-32154761D02*
X74012419Y-32392856D01*
X74012419Y-32392856D02*
X73964800Y-32488094D01*
X73964800Y-32488094D02*
X73917180Y-32535713D01*
X73917180Y-32535713D02*
X73821942Y-32583332D01*
X73821942Y-32583332D02*
X73726704Y-32583332D01*
X73726704Y-32583332D02*
X73631466Y-32535713D01*
X73631466Y-32535713D02*
X73583847Y-32488094D01*
X73583847Y-32488094D02*
X73536228Y-32392856D01*
X73536228Y-32392856D02*
X73488609Y-32202380D01*
X73488609Y-32202380D02*
X73440990Y-32107142D01*
X73440990Y-32107142D02*
X73393371Y-32059523D01*
X73393371Y-32059523D02*
X73298133Y-32011904D01*
X73298133Y-32011904D02*
X73202895Y-32011904D01*
X73202895Y-32011904D02*
X73107657Y-32059523D01*
X73107657Y-32059523D02*
X73060038Y-32107142D01*
X73060038Y-32107142D02*
X73012419Y-32202380D01*
X73012419Y-32202380D02*
X73012419Y-32440475D01*
X73012419Y-32440475D02*
X73060038Y-32583332D01*
X74012419Y-33440475D02*
X73488609Y-33440475D01*
X73488609Y-33440475D02*
X73393371Y-33392856D01*
X73393371Y-33392856D02*
X73345752Y-33297618D01*
X73345752Y-33297618D02*
X73345752Y-33107142D01*
X73345752Y-33107142D02*
X73393371Y-33011904D01*
X73964800Y-33440475D02*
X74012419Y-33345237D01*
X74012419Y-33345237D02*
X74012419Y-33107142D01*
X74012419Y-33107142D02*
X73964800Y-33011904D01*
X73964800Y-33011904D02*
X73869561Y-32964285D01*
X73869561Y-32964285D02*
X73774323Y-32964285D01*
X73774323Y-32964285D02*
X73679085Y-33011904D01*
X73679085Y-33011904D02*
X73631466Y-33107142D01*
X73631466Y-33107142D02*
X73631466Y-33345237D01*
X73631466Y-33345237D02*
X73583847Y-33440475D01*
X74012419Y-33916666D02*
X73345752Y-33916666D01*
X73440990Y-33916666D02*
X73393371Y-33964285D01*
X73393371Y-33964285D02*
X73345752Y-34059523D01*
X73345752Y-34059523D02*
X73345752Y-34202380D01*
X73345752Y-34202380D02*
X73393371Y-34297618D01*
X73393371Y-34297618D02*
X73488609Y-34345237D01*
X73488609Y-34345237D02*
X74012419Y-34345237D01*
X73488609Y-34345237D02*
X73393371Y-34392856D01*
X73393371Y-34392856D02*
X73345752Y-34488094D01*
X73345752Y-34488094D02*
X73345752Y-34630951D01*
X73345752Y-34630951D02*
X73393371Y-34726190D01*
X73393371Y-34726190D02*
X73488609Y-34773809D01*
X73488609Y-34773809D02*
X74012419Y-34773809D01*
X73964800Y-35630951D02*
X74012419Y-35535713D01*
X74012419Y-35535713D02*
X74012419Y-35345237D01*
X74012419Y-35345237D02*
X73964800Y-35249999D01*
X73964800Y-35249999D02*
X73869561Y-35202380D01*
X73869561Y-35202380D02*
X73488609Y-35202380D01*
X73488609Y-35202380D02*
X73393371Y-35249999D01*
X73393371Y-35249999D02*
X73345752Y-35345237D01*
X73345752Y-35345237D02*
X73345752Y-35535713D01*
X73345752Y-35535713D02*
X73393371Y-35630951D01*
X73393371Y-35630951D02*
X73488609Y-35678570D01*
X73488609Y-35678570D02*
X73583847Y-35678570D01*
X73583847Y-35678570D02*
X73679085Y-35202380D01*
X73631466Y-36107142D02*
X73631466Y-36869047D01*
X73964800Y-37297618D02*
X74012419Y-37392856D01*
X74012419Y-37392856D02*
X74012419Y-37583332D01*
X74012419Y-37583332D02*
X73964800Y-37678570D01*
X73964800Y-37678570D02*
X73869561Y-37726189D01*
X73869561Y-37726189D02*
X73821942Y-37726189D01*
X73821942Y-37726189D02*
X73726704Y-37678570D01*
X73726704Y-37678570D02*
X73679085Y-37583332D01*
X73679085Y-37583332D02*
X73679085Y-37440475D01*
X73679085Y-37440475D02*
X73631466Y-37345237D01*
X73631466Y-37345237D02*
X73536228Y-37297618D01*
X73536228Y-37297618D02*
X73488609Y-37297618D01*
X73488609Y-37297618D02*
X73393371Y-37345237D01*
X73393371Y-37345237D02*
X73345752Y-37440475D01*
X73345752Y-37440475D02*
X73345752Y-37583332D01*
X73345752Y-37583332D02*
X73393371Y-37678570D01*
X74012419Y-38154761D02*
X73345752Y-38154761D01*
X73012419Y-38154761D02*
X73060038Y-38107142D01*
X73060038Y-38107142D02*
X73107657Y-38154761D01*
X73107657Y-38154761D02*
X73060038Y-38202380D01*
X73060038Y-38202380D02*
X73012419Y-38154761D01*
X73012419Y-38154761D02*
X73107657Y-38154761D01*
X74012419Y-39059522D02*
X73012419Y-39059522D01*
X73964800Y-39059522D02*
X74012419Y-38964284D01*
X74012419Y-38964284D02*
X74012419Y-38773808D01*
X74012419Y-38773808D02*
X73964800Y-38678570D01*
X73964800Y-38678570D02*
X73917180Y-38630951D01*
X73917180Y-38630951D02*
X73821942Y-38583332D01*
X73821942Y-38583332D02*
X73536228Y-38583332D01*
X73536228Y-38583332D02*
X73440990Y-38630951D01*
X73440990Y-38630951D02*
X73393371Y-38678570D01*
X73393371Y-38678570D02*
X73345752Y-38773808D01*
X73345752Y-38773808D02*
X73345752Y-38964284D01*
X73345752Y-38964284D02*
X73393371Y-39059522D01*
X73964800Y-39916665D02*
X74012419Y-39821427D01*
X74012419Y-39821427D02*
X74012419Y-39630951D01*
X74012419Y-39630951D02*
X73964800Y-39535713D01*
X73964800Y-39535713D02*
X73869561Y-39488094D01*
X73869561Y-39488094D02*
X73488609Y-39488094D01*
X73488609Y-39488094D02*
X73393371Y-39535713D01*
X73393371Y-39535713D02*
X73345752Y-39630951D01*
X73345752Y-39630951D02*
X73345752Y-39821427D01*
X73345752Y-39821427D02*
X73393371Y-39916665D01*
X73393371Y-39916665D02*
X73488609Y-39964284D01*
X73488609Y-39964284D02*
X73583847Y-39964284D01*
X73583847Y-39964284D02*
X73679085Y-39488094D01*
X73964800Y-41107142D02*
X74012419Y-41202380D01*
X74012419Y-41202380D02*
X74012419Y-41392856D01*
X74012419Y-41392856D02*
X73964800Y-41488094D01*
X73964800Y-41488094D02*
X73869561Y-41535713D01*
X73869561Y-41535713D02*
X73821942Y-41535713D01*
X73821942Y-41535713D02*
X73726704Y-41488094D01*
X73726704Y-41488094D02*
X73679085Y-41392856D01*
X73679085Y-41392856D02*
X73679085Y-41249999D01*
X73679085Y-41249999D02*
X73631466Y-41154761D01*
X73631466Y-41154761D02*
X73536228Y-41107142D01*
X73536228Y-41107142D02*
X73488609Y-41107142D01*
X73488609Y-41107142D02*
X73393371Y-41154761D01*
X73393371Y-41154761D02*
X73345752Y-41249999D01*
X73345752Y-41249999D02*
X73345752Y-41392856D01*
X73345752Y-41392856D02*
X73393371Y-41488094D01*
X73345752Y-41821428D02*
X73345752Y-42202380D01*
X73012419Y-41964285D02*
X73869561Y-41964285D01*
X73869561Y-41964285D02*
X73964800Y-42011904D01*
X73964800Y-42011904D02*
X74012419Y-42107142D01*
X74012419Y-42107142D02*
X74012419Y-42202380D01*
X74012419Y-42535714D02*
X73345752Y-42535714D01*
X73536228Y-42535714D02*
X73440990Y-42583333D01*
X73440990Y-42583333D02*
X73393371Y-42630952D01*
X73393371Y-42630952D02*
X73345752Y-42726190D01*
X73345752Y-42726190D02*
X73345752Y-42821428D01*
X74012419Y-43583333D02*
X73488609Y-43583333D01*
X73488609Y-43583333D02*
X73393371Y-43535714D01*
X73393371Y-43535714D02*
X73345752Y-43440476D01*
X73345752Y-43440476D02*
X73345752Y-43250000D01*
X73345752Y-43250000D02*
X73393371Y-43154762D01*
X73964800Y-43583333D02*
X74012419Y-43488095D01*
X74012419Y-43488095D02*
X74012419Y-43250000D01*
X74012419Y-43250000D02*
X73964800Y-43154762D01*
X73964800Y-43154762D02*
X73869561Y-43107143D01*
X73869561Y-43107143D02*
X73774323Y-43107143D01*
X73774323Y-43107143D02*
X73679085Y-43154762D01*
X73679085Y-43154762D02*
X73631466Y-43250000D01*
X73631466Y-43250000D02*
X73631466Y-43488095D01*
X73631466Y-43488095D02*
X73583847Y-43583333D01*
X74012419Y-44059524D02*
X73345752Y-44059524D01*
X73012419Y-44059524D02*
X73060038Y-44011905D01*
X73060038Y-44011905D02*
X73107657Y-44059524D01*
X73107657Y-44059524D02*
X73060038Y-44107143D01*
X73060038Y-44107143D02*
X73012419Y-44059524D01*
X73012419Y-44059524D02*
X73107657Y-44059524D01*
X73345752Y-44964285D02*
X74155276Y-44964285D01*
X74155276Y-44964285D02*
X74250514Y-44916666D01*
X74250514Y-44916666D02*
X74298133Y-44869047D01*
X74298133Y-44869047D02*
X74345752Y-44773809D01*
X74345752Y-44773809D02*
X74345752Y-44630952D01*
X74345752Y-44630952D02*
X74298133Y-44535714D01*
X73964800Y-44964285D02*
X74012419Y-44869047D01*
X74012419Y-44869047D02*
X74012419Y-44678571D01*
X74012419Y-44678571D02*
X73964800Y-44583333D01*
X73964800Y-44583333D02*
X73917180Y-44535714D01*
X73917180Y-44535714D02*
X73821942Y-44488095D01*
X73821942Y-44488095D02*
X73536228Y-44488095D01*
X73536228Y-44488095D02*
X73440990Y-44535714D01*
X73440990Y-44535714D02*
X73393371Y-44583333D01*
X73393371Y-44583333D02*
X73345752Y-44678571D01*
X73345752Y-44678571D02*
X73345752Y-44869047D01*
X73345752Y-44869047D02*
X73393371Y-44964285D01*
X74012419Y-45440476D02*
X73012419Y-45440476D01*
X74012419Y-45869047D02*
X73488609Y-45869047D01*
X73488609Y-45869047D02*
X73393371Y-45821428D01*
X73393371Y-45821428D02*
X73345752Y-45726190D01*
X73345752Y-45726190D02*
X73345752Y-45583333D01*
X73345752Y-45583333D02*
X73393371Y-45488095D01*
X73393371Y-45488095D02*
X73440990Y-45440476D01*
X73345752Y-46202381D02*
X73345752Y-46583333D01*
X73012419Y-46345238D02*
X73869561Y-46345238D01*
X73869561Y-46345238D02*
X73964800Y-46392857D01*
X73964800Y-46392857D02*
X74012419Y-46488095D01*
X74012419Y-46488095D02*
X74012419Y-46583333D01*
X74955752Y-33892855D02*
X74955752Y-34273807D01*
X75622419Y-34035712D02*
X74765276Y-34035712D01*
X74765276Y-34035712D02*
X74670038Y-34083331D01*
X74670038Y-34083331D02*
X74622419Y-34178569D01*
X74622419Y-34178569D02*
X74622419Y-34273807D01*
X75622419Y-34749998D02*
X75574800Y-34654760D01*
X75574800Y-34654760D02*
X75479561Y-34607141D01*
X75479561Y-34607141D02*
X74622419Y-34607141D01*
X75622419Y-35559522D02*
X75098609Y-35559522D01*
X75098609Y-35559522D02*
X75003371Y-35511903D01*
X75003371Y-35511903D02*
X74955752Y-35416665D01*
X74955752Y-35416665D02*
X74955752Y-35226189D01*
X74955752Y-35226189D02*
X75003371Y-35130951D01*
X75574800Y-35559522D02*
X75622419Y-35464284D01*
X75622419Y-35464284D02*
X75622419Y-35226189D01*
X75622419Y-35226189D02*
X75574800Y-35130951D01*
X75574800Y-35130951D02*
X75479561Y-35083332D01*
X75479561Y-35083332D02*
X75384323Y-35083332D01*
X75384323Y-35083332D02*
X75289085Y-35130951D01*
X75289085Y-35130951D02*
X75241466Y-35226189D01*
X75241466Y-35226189D02*
X75241466Y-35464284D01*
X75241466Y-35464284D02*
X75193847Y-35559522D01*
X74955752Y-35892856D02*
X74955752Y-36273808D01*
X74622419Y-36035713D02*
X75479561Y-36035713D01*
X75479561Y-36035713D02*
X75574800Y-36083332D01*
X75574800Y-36083332D02*
X75622419Y-36178570D01*
X75622419Y-36178570D02*
X75622419Y-36273808D01*
X74955752Y-37226190D02*
X74955752Y-37607142D01*
X75622419Y-37369047D02*
X74765276Y-37369047D01*
X74765276Y-37369047D02*
X74670038Y-37416666D01*
X74670038Y-37416666D02*
X74622419Y-37511904D01*
X74622419Y-37511904D02*
X74622419Y-37607142D01*
X75622419Y-38083333D02*
X75574800Y-37988095D01*
X75574800Y-37988095D02*
X75479561Y-37940476D01*
X75479561Y-37940476D02*
X74622419Y-37940476D01*
X75574800Y-38845238D02*
X75622419Y-38750000D01*
X75622419Y-38750000D02*
X75622419Y-38559524D01*
X75622419Y-38559524D02*
X75574800Y-38464286D01*
X75574800Y-38464286D02*
X75479561Y-38416667D01*
X75479561Y-38416667D02*
X75098609Y-38416667D01*
X75098609Y-38416667D02*
X75003371Y-38464286D01*
X75003371Y-38464286D02*
X74955752Y-38559524D01*
X74955752Y-38559524D02*
X74955752Y-38750000D01*
X74955752Y-38750000D02*
X75003371Y-38845238D01*
X75003371Y-38845238D02*
X75098609Y-38892857D01*
X75098609Y-38892857D02*
X75193847Y-38892857D01*
X75193847Y-38892857D02*
X75289085Y-38416667D01*
X75622419Y-39226191D02*
X74955752Y-39750000D01*
X74955752Y-39226191D02*
X75622419Y-39750000D01*
X75574800Y-41321429D02*
X75622419Y-41226191D01*
X75622419Y-41226191D02*
X75622419Y-41035715D01*
X75622419Y-41035715D02*
X75574800Y-40940477D01*
X75574800Y-40940477D02*
X75527180Y-40892858D01*
X75527180Y-40892858D02*
X75431942Y-40845239D01*
X75431942Y-40845239D02*
X75146228Y-40845239D01*
X75146228Y-40845239D02*
X75050990Y-40892858D01*
X75050990Y-40892858D02*
X75003371Y-40940477D01*
X75003371Y-40940477D02*
X74955752Y-41035715D01*
X74955752Y-41035715D02*
X74955752Y-41226191D01*
X74955752Y-41226191D02*
X75003371Y-41321429D01*
X75622419Y-42178572D02*
X75098609Y-42178572D01*
X75098609Y-42178572D02*
X75003371Y-42130953D01*
X75003371Y-42130953D02*
X74955752Y-42035715D01*
X74955752Y-42035715D02*
X74955752Y-41845239D01*
X74955752Y-41845239D02*
X75003371Y-41750001D01*
X75574800Y-42178572D02*
X75622419Y-42083334D01*
X75622419Y-42083334D02*
X75622419Y-41845239D01*
X75622419Y-41845239D02*
X75574800Y-41750001D01*
X75574800Y-41750001D02*
X75479561Y-41702382D01*
X75479561Y-41702382D02*
X75384323Y-41702382D01*
X75384323Y-41702382D02*
X75289085Y-41750001D01*
X75289085Y-41750001D02*
X75241466Y-41845239D01*
X75241466Y-41845239D02*
X75241466Y-42083334D01*
X75241466Y-42083334D02*
X75193847Y-42178572D01*
X75622419Y-42654763D02*
X74622419Y-42654763D01*
X75003371Y-42654763D02*
X74955752Y-42750001D01*
X74955752Y-42750001D02*
X74955752Y-42940477D01*
X74955752Y-42940477D02*
X75003371Y-43035715D01*
X75003371Y-43035715D02*
X75050990Y-43083334D01*
X75050990Y-43083334D02*
X75146228Y-43130953D01*
X75146228Y-43130953D02*
X75431942Y-43130953D01*
X75431942Y-43130953D02*
X75527180Y-43083334D01*
X75527180Y-43083334D02*
X75574800Y-43035715D01*
X75574800Y-43035715D02*
X75622419Y-42940477D01*
X75622419Y-42940477D02*
X75622419Y-42750001D01*
X75622419Y-42750001D02*
X75574800Y-42654763D01*
X75622419Y-43702382D02*
X75574800Y-43607144D01*
X75574800Y-43607144D02*
X75479561Y-43559525D01*
X75479561Y-43559525D02*
X74622419Y-43559525D01*
X75574800Y-44464287D02*
X75622419Y-44369049D01*
X75622419Y-44369049D02*
X75622419Y-44178573D01*
X75622419Y-44178573D02*
X75574800Y-44083335D01*
X75574800Y-44083335D02*
X75479561Y-44035716D01*
X75479561Y-44035716D02*
X75098609Y-44035716D01*
X75098609Y-44035716D02*
X75003371Y-44083335D01*
X75003371Y-44083335D02*
X74955752Y-44178573D01*
X74955752Y-44178573D02*
X74955752Y-44369049D01*
X74955752Y-44369049D02*
X75003371Y-44464287D01*
X75003371Y-44464287D02*
X75098609Y-44511906D01*
X75098609Y-44511906D02*
X75193847Y-44511906D01*
X75193847Y-44511906D02*
X75289085Y-44035716D01*
D11*
X62804819Y-39166666D02*
X63519104Y-39166666D01*
X63519104Y-39166666D02*
X63661961Y-39119047D01*
X63661961Y-39119047D02*
X63757200Y-39023809D01*
X63757200Y-39023809D02*
X63804819Y-38880952D01*
X63804819Y-38880952D02*
X63804819Y-38785714D01*
X62900057Y-39595238D02*
X62852438Y-39642857D01*
X62852438Y-39642857D02*
X62804819Y-39738095D01*
X62804819Y-39738095D02*
X62804819Y-39976190D01*
X62804819Y-39976190D02*
X62852438Y-40071428D01*
X62852438Y-40071428D02*
X62900057Y-40119047D01*
X62900057Y-40119047D02*
X62995295Y-40166666D01*
X62995295Y-40166666D02*
X63090533Y-40166666D01*
X63090533Y-40166666D02*
X63233390Y-40119047D01*
X63233390Y-40119047D02*
X63804819Y-39547619D01*
X63804819Y-39547619D02*
X63804819Y-40166666D01*
D12*
X71550000Y-31850000D02*
X71550000Y-47150000D01*
X69810000Y-31850000D02*
X71550000Y-31850000D01*
X65750000Y-31850000D02*
X67090000Y-31850000D01*
X65750000Y-33340000D02*
X65750000Y-31850000D01*
X65750000Y-33340000D02*
X64550000Y-33340000D01*
X65750000Y-45660000D02*
X65750000Y-47150000D01*
X71550000Y-47150000D02*
X69810000Y-47150000D01*
X65750000Y-47150000D02*
X67090000Y-47150000D01*
%LPC*%
D13*
X23530000Y-33835000D03*
X23530000Y-45265000D03*
D14*
X20150000Y-45875000D03*
X18630000Y-43335000D03*
X20150000Y-35765000D03*
X18630000Y-33225000D03*
D15*
X29870000Y-35105000D03*
D16*
X32410000Y-36375000D03*
X29870000Y-37645000D03*
X32410000Y-38915000D03*
X29870000Y-40185000D03*
X32410000Y-41455000D03*
X29870000Y-42725000D03*
X32410000Y-43995000D03*
D17*
X26580000Y-31775000D03*
X26580000Y-47325000D03*
D18*
X74000000Y-28000000D03*
X74000000Y-51000000D03*
X16000000Y-51000000D03*
X16000000Y-28000000D03*
D19*
X65200000Y-33750000D03*
X65200000Y-34250000D03*
X65200000Y-34750000D03*
X65200000Y-35250000D03*
X65200000Y-35750000D03*
X65200000Y-36250000D03*
X65200000Y-36750000D03*
X65200000Y-37250000D03*
X65200000Y-37750000D03*
X65200000Y-38250000D03*
X65200000Y-38750000D03*
X65200000Y-39250000D03*
X65200000Y-39750000D03*
X65200000Y-40250000D03*
X65200000Y-40750000D03*
X65200000Y-41250000D03*
X65200000Y-41750000D03*
X65200000Y-42250000D03*
X65200000Y-42750000D03*
X65200000Y-43250000D03*
X65200000Y-43750000D03*
X65200000Y-44250000D03*
X65200000Y-44750000D03*
X65200000Y-45250000D03*
D20*
X68450000Y-31850000D03*
X68450000Y-47150000D03*
%LPD*%
M02*
