G04 #@! TF.GenerationSoftware,KiCad,Pcbnew,7.0.7-2.fc38*
G04 #@! TF.CreationDate,2023-10-29T11:35:08+01:00*
G04 #@! TF.ProjectId,mangopimqpro-lan8720,6d616e67-6f70-4696-9d71-70726f2d6c61,rev?*
G04 #@! TF.SameCoordinates,Original*
G04 #@! TF.FileFunction,Copper,L1,Top*
G04 #@! TF.FilePolarity,Positive*
%FSLAX46Y46*%
G04 Gerber Fmt 4.6, Leading zero omitted, Abs format (unit mm)*
G04 Created by KiCad (PCBNEW 7.0.7-2.fc38) date 2023-10-29 11:35:08*
%MOMM*%
%LPD*%
G01*
G04 APERTURE LIST*
G04 Aperture macros list*
%AMRoundRect*
0 Rectangle with rounded corners*
0 $1 Rounding radius*
0 $2 $3 $4 $5 $6 $7 $8 $9 X,Y pos of 4 corners*
0 Add a 4 corners polygon primitive as box body*
4,1,4,$2,$3,$4,$5,$6,$7,$8,$9,$2,$3,0*
0 Add four circle primitives for the rounded corners*
1,1,$1+$1,$2,$3*
1,1,$1+$1,$4,$5*
1,1,$1+$1,$6,$7*
1,1,$1+$1,$8,$9*
0 Add four rect primitives between the rounded corners*
20,1,$1+$1,$2,$3,$4,$5,0*
20,1,$1+$1,$4,$5,$6,$7,0*
20,1,$1+$1,$6,$7,$8,$9,0*
20,1,$1+$1,$8,$9,$2,$3,0*%
G04 Aperture macros list end*
G04 #@! TA.AperFunction,SMDPad,CuDef*
%ADD10RoundRect,0.250000X-0.350000X-0.450000X0.350000X-0.450000X0.350000X0.450000X-0.350000X0.450000X0*%
G04 #@! TD*
G04 #@! TA.AperFunction,SMDPad,CuDef*
%ADD11RoundRect,0.250000X0.350000X0.450000X-0.350000X0.450000X-0.350000X-0.450000X0.350000X-0.450000X0*%
G04 #@! TD*
G04 #@! TA.AperFunction,SMDPad,CuDef*
%ADD12RoundRect,0.250000X0.337500X0.475000X-0.337500X0.475000X-0.337500X-0.475000X0.337500X-0.475000X0*%
G04 #@! TD*
G04 #@! TA.AperFunction,ComponentPad*
%ADD13C,1.890000*%
G04 #@! TD*
G04 #@! TA.AperFunction,ComponentPad*
%ADD14R,1.900000X1.900000*%
G04 #@! TD*
G04 #@! TA.AperFunction,ComponentPad*
%ADD15C,1.900000*%
G04 #@! TD*
G04 #@! TA.AperFunction,ComponentPad*
%ADD16C,2.600000*%
G04 #@! TD*
G04 #@! TA.AperFunction,SMDPad,CuDef*
%ADD17RoundRect,0.250000X-0.475000X0.337500X-0.475000X-0.337500X0.475000X-0.337500X0.475000X0.337500X0*%
G04 #@! TD*
G04 #@! TA.AperFunction,ComponentPad*
%ADD18C,5.400000*%
G04 #@! TD*
G04 #@! TA.AperFunction,SMDPad,CuDef*
%ADD19RoundRect,0.062500X0.062500X-0.375000X0.062500X0.375000X-0.062500X0.375000X-0.062500X-0.375000X0*%
G04 #@! TD*
G04 #@! TA.AperFunction,SMDPad,CuDef*
%ADD20RoundRect,0.062500X0.375000X-0.062500X0.375000X0.062500X-0.375000X0.062500X-0.375000X-0.062500X0*%
G04 #@! TD*
G04 #@! TA.AperFunction,ComponentPad*
%ADD21C,0.500000*%
G04 #@! TD*
G04 #@! TA.AperFunction,SMDPad,CuDef*
%ADD22R,2.500000X2.500000*%
G04 #@! TD*
G04 #@! TA.AperFunction,SMDPad,CuDef*
%ADD23RoundRect,0.250000X-0.337500X-0.475000X0.337500X-0.475000X0.337500X0.475000X-0.337500X0.475000X0*%
G04 #@! TD*
G04 #@! TA.AperFunction,SMDPad,CuDef*
%ADD24RoundRect,0.250000X0.362500X0.700000X-0.362500X0.700000X-0.362500X-0.700000X0.362500X-0.700000X0*%
G04 #@! TD*
G04 #@! TA.AperFunction,SMDPad,CuDef*
%ADD25RoundRect,0.250000X0.475000X-0.337500X0.475000X0.337500X-0.475000X0.337500X-0.475000X-0.337500X0*%
G04 #@! TD*
G04 #@! TA.AperFunction,SMDPad,CuDef*
%ADD26R,1.300000X0.300000*%
G04 #@! TD*
G04 #@! TA.AperFunction,SMDPad,CuDef*
%ADD27R,2.200000X1.800000*%
G04 #@! TD*
G04 #@! TA.AperFunction,SMDPad,CuDef*
%ADD28R,1.800000X2.000000*%
G04 #@! TD*
G04 #@! TA.AperFunction,ViaPad*
%ADD29C,0.350000*%
G04 #@! TD*
G04 #@! TA.AperFunction,Conductor*
%ADD30C,0.300000*%
G04 #@! TD*
G04 #@! TA.AperFunction,Conductor*
%ADD31C,0.200000*%
G04 #@! TD*
G04 APERTURE END LIST*
D10*
X58500000Y-44250000D03*
X60500000Y-44250000D03*
D11*
X39250000Y-39250000D03*
X37250000Y-39250000D03*
D12*
X44037500Y-26750000D03*
X41962500Y-26750000D03*
D11*
X39250000Y-36000000D03*
X37250000Y-36000000D03*
D13*
X20150000Y-45875000D03*
X18630000Y-43335000D03*
X20150000Y-35765000D03*
X18630000Y-33225000D03*
D14*
X29870000Y-35105000D03*
D15*
X32410000Y-36375000D03*
X29870000Y-37645000D03*
X32410000Y-38915000D03*
X29870000Y-40185000D03*
X32410000Y-41455000D03*
X29870000Y-42725000D03*
X32410000Y-43995000D03*
D16*
X26580000Y-31775000D03*
X26580000Y-47325000D03*
D17*
X43000000Y-37212500D03*
X43000000Y-39287500D03*
D18*
X74000000Y-28000000D03*
D19*
X48062500Y-40187500D03*
X48562500Y-40187500D03*
X49062500Y-40187500D03*
X49562500Y-40187500D03*
X50062500Y-40187500D03*
X50562500Y-40187500D03*
D20*
X51250000Y-39500000D03*
X51250000Y-39000000D03*
X51250000Y-38500000D03*
X51250000Y-38000000D03*
X51250000Y-37500000D03*
X51250000Y-37000000D03*
D19*
X50562500Y-36312500D03*
X50062500Y-36312500D03*
X49562500Y-36312500D03*
X49062500Y-36312500D03*
X48562500Y-36312500D03*
X48062500Y-36312500D03*
D20*
X47375000Y-37000000D03*
X47375000Y-37500000D03*
X47375000Y-38000000D03*
X47375000Y-38500000D03*
X47375000Y-39000000D03*
X47375000Y-39500000D03*
D21*
X48312500Y-39250000D03*
X49312500Y-39250000D03*
X50312500Y-39250000D03*
X48312500Y-38250000D03*
X49312500Y-38250000D03*
D22*
X49312500Y-38250000D03*
D21*
X50312500Y-38250000D03*
X48312500Y-37250000D03*
X49312500Y-37250000D03*
X50312500Y-37250000D03*
D23*
X48212500Y-43250000D03*
X50287500Y-43250000D03*
D18*
X74000000Y-51000000D03*
D11*
X39250000Y-32750000D03*
X37250000Y-32750000D03*
D24*
X50750000Y-27000000D03*
X47425000Y-27000000D03*
D12*
X60537500Y-33750000D03*
X58462500Y-33750000D03*
X50325000Y-30750000D03*
X48250000Y-30750000D03*
D11*
X55250000Y-30750000D03*
X53250000Y-30750000D03*
X34800000Y-27600000D03*
X32800000Y-27600000D03*
D10*
X58500000Y-41000000D03*
X60500000Y-41000000D03*
D25*
X55250000Y-38537500D03*
X55250000Y-36462500D03*
D11*
X39250000Y-42500000D03*
X37250000Y-42500000D03*
D23*
X55712500Y-53000000D03*
X57787500Y-53000000D03*
D11*
X43750000Y-48000000D03*
X41750000Y-48000000D03*
D18*
X16000000Y-51000000D03*
D11*
X35700000Y-51800000D03*
X33700000Y-51800000D03*
D18*
X16000000Y-28000000D03*
D10*
X58500000Y-37500000D03*
X60500000Y-37500000D03*
D11*
X45000000Y-43250000D03*
X43000000Y-43250000D03*
D12*
X44037500Y-30250000D03*
X41962500Y-30250000D03*
D26*
X65200000Y-45250000D03*
X65200000Y-44750000D03*
X65200000Y-44250000D03*
X65200000Y-43750000D03*
X65200000Y-43250000D03*
X65200000Y-42750000D03*
X65200000Y-42250000D03*
X65200000Y-41750000D03*
X65200000Y-41250000D03*
X65200000Y-40750000D03*
X65200000Y-40250000D03*
X65200000Y-39750000D03*
X65200000Y-39250000D03*
X65200000Y-38750000D03*
X65200000Y-38250000D03*
X65200000Y-37750000D03*
X65200000Y-37250000D03*
X65200000Y-36750000D03*
X65200000Y-36250000D03*
X65200000Y-35750000D03*
X65200000Y-35250000D03*
X65200000Y-34750000D03*
X65200000Y-34250000D03*
X65200000Y-33750000D03*
D27*
X68450000Y-47150000D03*
X68450000Y-31850000D03*
D11*
X43750000Y-51750000D03*
X41750000Y-51750000D03*
D23*
X53712500Y-43250000D03*
X55787500Y-43250000D03*
D28*
X52040000Y-48650000D03*
X46960000Y-48650000D03*
X46960000Y-52850000D03*
X52040000Y-52850000D03*
D29*
X58750000Y-53000000D03*
X64250000Y-37250000D03*
X42000000Y-43250000D03*
X63500000Y-34250000D03*
X43000000Y-40250000D03*
X56750000Y-43250000D03*
X40500000Y-26750000D03*
X55250000Y-35500000D03*
X57500000Y-33750000D03*
X47000000Y-30750000D03*
X63750000Y-40750000D03*
X47000000Y-47300000D03*
X50325000Y-34150500D03*
X54800000Y-44900000D03*
X64250000Y-44750000D03*
X54200000Y-34100000D03*
X40500000Y-32750000D03*
X43000000Y-36250000D03*
X45500000Y-30250000D03*
X40500000Y-36000000D03*
X40250000Y-39250000D03*
X40300000Y-43500000D03*
X46000000Y-27000000D03*
X47000000Y-43250000D03*
X46250000Y-37000000D03*
X49300000Y-32800000D03*
X63750000Y-44250000D03*
X62800000Y-36275500D03*
X62800000Y-44300000D03*
X62225000Y-35774500D03*
X64250000Y-43750000D03*
X48100000Y-33300000D03*
X62200000Y-43800000D03*
X52500000Y-38000000D03*
X60500000Y-44250000D03*
X59400000Y-38500000D03*
X63750000Y-43250000D03*
X64250000Y-42750000D03*
X61750000Y-42750000D03*
X61000000Y-35000000D03*
X48537000Y-34700000D03*
X63750000Y-42250000D03*
X57000000Y-42250000D03*
X57000000Y-35250000D03*
X51250000Y-35250000D03*
X64275000Y-41775000D03*
X51500000Y-41500000D03*
X60500000Y-41000000D03*
X63250000Y-41250000D03*
X53000000Y-40500000D03*
X60500000Y-39750000D03*
X63500000Y-39750000D03*
X52000000Y-37500000D03*
X63500000Y-37750000D03*
X63500000Y-36750000D03*
X56500000Y-39500000D03*
X52059788Y-39393586D03*
X56500000Y-36800000D03*
X35000000Y-42100000D03*
X49200000Y-42000000D03*
X35659269Y-41525804D03*
X48600000Y-41574500D03*
X51600000Y-43300000D03*
X58300000Y-39900000D03*
X52245878Y-42254122D03*
X43700000Y-46600000D03*
X51600000Y-45700000D03*
X52300000Y-40100000D03*
X50100000Y-35500000D03*
X41800000Y-35500000D03*
X50038000Y-41100000D03*
X41050500Y-41100000D03*
X46300000Y-38000000D03*
X37250000Y-32750000D03*
X38300000Y-37900000D03*
X37250000Y-36000000D03*
X45700000Y-37500000D03*
X36200000Y-36000000D03*
X36900000Y-37700000D03*
X37250000Y-39250000D03*
X46300000Y-38974500D03*
X45700000Y-38500000D03*
X36100000Y-40800000D03*
X36100000Y-38600000D03*
X63500000Y-35250000D03*
X55250000Y-38674500D03*
X56250000Y-30750000D03*
X51900000Y-38500000D03*
X57500000Y-41000000D03*
X55750000Y-51750000D03*
X51750000Y-27000000D03*
X57500000Y-44250000D03*
D30*
X58462500Y-33750000D02*
X57500000Y-33750000D01*
D31*
X46960000Y-48650000D02*
X46960000Y-47340000D01*
D30*
X55787500Y-43250000D02*
X56750000Y-43250000D01*
X65200000Y-37250000D02*
X64250000Y-37250000D01*
X41962500Y-26750000D02*
X41962500Y-30250000D01*
X55250000Y-36462500D02*
X55250000Y-35500000D01*
X43000000Y-43250000D02*
X42000000Y-43250000D01*
D31*
X48250000Y-30750000D02*
X47000000Y-30750000D01*
D30*
X41962500Y-26750000D02*
X40500000Y-26750000D01*
X65200000Y-40750000D02*
X63750000Y-40750000D01*
D31*
X57787500Y-53000000D02*
X58750000Y-53000000D01*
D30*
X43000000Y-39287500D02*
X43000000Y-40250000D01*
X65200000Y-34250000D02*
X63500000Y-34250000D01*
D31*
X46960000Y-47340000D02*
X47000000Y-47300000D01*
X65200000Y-44750000D02*
X64300000Y-44750000D01*
X50325000Y-30750000D02*
X53250000Y-30750000D01*
X54800000Y-39800000D02*
X54200000Y-39200000D01*
X49562500Y-34913000D02*
X50325000Y-34150500D01*
X54200000Y-39200000D02*
X54200000Y-34100000D01*
X50325000Y-30750000D02*
X50325000Y-34175000D01*
X54800000Y-44900000D02*
X54800000Y-39800000D01*
X49562500Y-36312500D02*
X49562500Y-34913000D01*
D30*
X47425000Y-27000000D02*
X46000000Y-27000000D01*
X48062500Y-40187500D02*
X48062500Y-43100000D01*
X44037500Y-26750000D02*
X44037500Y-30250000D01*
X46000000Y-27000000D02*
X44287500Y-27000000D01*
X43000000Y-37212500D02*
X43000000Y-36250000D01*
D31*
X39300000Y-42500000D02*
X40300000Y-43500000D01*
X39250000Y-32750000D02*
X40000000Y-32750000D01*
D30*
X47375000Y-37000000D02*
X46250000Y-37000000D01*
D31*
X40500000Y-36000000D02*
X39250000Y-36000000D01*
D30*
X44287500Y-27000000D02*
X44037500Y-26750000D01*
D31*
X40000000Y-32750000D02*
X40500000Y-32750000D01*
D30*
X48212500Y-43250000D02*
X47000000Y-43250000D01*
X44037500Y-30250000D02*
X45500000Y-30250000D01*
D31*
X39250000Y-39250000D02*
X40250000Y-39250000D01*
X39250000Y-42500000D02*
X39300000Y-42500000D01*
D30*
X48062500Y-43100000D02*
X48212500Y-43250000D01*
D31*
X62775000Y-44275000D02*
X62775000Y-36300500D01*
X62775000Y-36300500D02*
X62800000Y-36275500D01*
X49062500Y-33037500D02*
X49300000Y-32800000D01*
X65200000Y-44250000D02*
X63750000Y-44250000D01*
X62800000Y-44300000D02*
X62775000Y-44275000D01*
X49062500Y-36312500D02*
X49062500Y-33037500D01*
X62200000Y-43800000D02*
X62225000Y-43775000D01*
X48062500Y-36312500D02*
X48062500Y-33337500D01*
X62225000Y-43775000D02*
X62225000Y-35774500D01*
X65200000Y-43750000D02*
X64250000Y-43750000D01*
X48062500Y-33337500D02*
X48100000Y-33300000D01*
X59600000Y-43350000D02*
X60500000Y-44250000D01*
X51250000Y-38000000D02*
X52500000Y-38000000D01*
X59400000Y-38500000D02*
X59600000Y-38700000D01*
X63750000Y-43250000D02*
X65200000Y-43250000D01*
X59600000Y-38700000D02*
X59600000Y-43350000D01*
X48562500Y-34725500D02*
X48537000Y-34700000D01*
X61750000Y-35750000D02*
X61000000Y-35000000D01*
X48562500Y-36312500D02*
X48562500Y-34725500D01*
X61750000Y-42750000D02*
X61750000Y-35750000D01*
X65200000Y-42750000D02*
X64250000Y-42750000D01*
X57025000Y-42225000D02*
X57025000Y-35275000D01*
X65200000Y-42250000D02*
X63750000Y-42250000D01*
X50562500Y-35937500D02*
X51250000Y-35250000D01*
X57025000Y-35275000D02*
X57000000Y-35250000D01*
X50562500Y-36312500D02*
X50562500Y-35937500D01*
X57000000Y-42250000D02*
X57025000Y-42225000D01*
X64275000Y-41775000D02*
X64300000Y-41750000D01*
X51500000Y-41500000D02*
X51500000Y-39750000D01*
X64300000Y-41750000D02*
X65200000Y-41750000D01*
X51500000Y-39750000D02*
X51250000Y-39500000D01*
X52171752Y-37000000D02*
X53000000Y-37828248D01*
X63250000Y-41250000D02*
X65200000Y-41250000D01*
X53000000Y-37828248D02*
X53000000Y-40500000D01*
X52000000Y-37000000D02*
X52171752Y-37000000D01*
X52000000Y-37000000D02*
X51250000Y-37000000D01*
X65200000Y-39750000D02*
X63500000Y-39750000D01*
X60500000Y-39750000D02*
X60500000Y-37500000D01*
X65200000Y-37750000D02*
X63500000Y-37750000D01*
X52000000Y-37500000D02*
X51250000Y-37500000D01*
X56500000Y-39500000D02*
X56500000Y-36800000D01*
X51700152Y-39000000D02*
X52059788Y-39359636D01*
X51250000Y-39000000D02*
X51700152Y-39000000D01*
X52059788Y-39359636D02*
X52059788Y-39393586D01*
X65200000Y-36750000D02*
X63500000Y-36750000D01*
X35000000Y-42100000D02*
X35000000Y-27800000D01*
X35000000Y-27800000D02*
X34800000Y-27600000D01*
X49062500Y-40187500D02*
X49062500Y-41365248D01*
X49200000Y-41502748D02*
X49200000Y-42000000D01*
X49062500Y-41365248D02*
X49200000Y-41502748D01*
X48562500Y-41537000D02*
X48600000Y-41574500D01*
X48562500Y-40187500D02*
X48562500Y-41537000D01*
X35700000Y-51800000D02*
X35700000Y-41566535D01*
X35700000Y-41566535D02*
X35659269Y-41525804D01*
X43750000Y-48000000D02*
X43750000Y-46650000D01*
X43750000Y-51750000D02*
X43750000Y-48000000D01*
X58500000Y-37500000D02*
X58250000Y-37750000D01*
X58300000Y-37700000D02*
X58500000Y-37500000D01*
X43750000Y-46650000D02*
X43700000Y-46600000D01*
X44850000Y-52850000D02*
X43750000Y-51750000D01*
X52245878Y-40154122D02*
X52300000Y-40100000D01*
X46960000Y-52850000D02*
X44850000Y-52850000D01*
X58300000Y-39900000D02*
X58300000Y-37700000D01*
X51600000Y-45700000D02*
X51600000Y-43300000D01*
X52245878Y-42254122D02*
X52245878Y-40154122D01*
X50062500Y-35537500D02*
X50100000Y-35500000D01*
X41800000Y-35500000D02*
X41525000Y-35775000D01*
X50062500Y-36312500D02*
X50062500Y-35537500D01*
X41525000Y-35775000D02*
X41525000Y-47775000D01*
X41525000Y-47775000D02*
X41750000Y-48000000D01*
X40850000Y-41300500D02*
X40850000Y-50850000D01*
X50062500Y-40187500D02*
X50062500Y-41075500D01*
X50062500Y-41075500D02*
X50038000Y-41100000D01*
X40850000Y-50850000D02*
X41750000Y-51750000D01*
X41050500Y-41100000D02*
X40850000Y-41300500D01*
X47375000Y-39500000D02*
X45400000Y-39500000D01*
X45000000Y-39900000D02*
X45000000Y-43250000D01*
X45400000Y-39500000D02*
X45000000Y-39900000D01*
X19916431Y-43335000D02*
X19961431Y-43290000D01*
X19961431Y-43290000D02*
X26390000Y-43290000D01*
X18580000Y-43335000D02*
X19916431Y-43335000D01*
X33700000Y-50600000D02*
X33700000Y-51800000D01*
X26390000Y-43290000D02*
X33700000Y-50600000D01*
X21094999Y-36709999D02*
X20150000Y-35765000D01*
X24990001Y-36709999D02*
X21094999Y-36709999D01*
X32800000Y-28900000D02*
X24990001Y-36709999D01*
X32800000Y-27600000D02*
X32800000Y-28900000D01*
X47375000Y-38000000D02*
X46300000Y-38000000D01*
X38300000Y-37900000D02*
X38300000Y-33800000D01*
X38300000Y-33800000D02*
X37250000Y-32750000D01*
X37250000Y-36000000D02*
X36200000Y-36000000D01*
X47375000Y-37500000D02*
X45700000Y-37500000D01*
X37250000Y-39250000D02*
X37250000Y-38050000D01*
X37250000Y-38050000D02*
X36900000Y-37700000D01*
X46325500Y-39000000D02*
X46300000Y-38974500D01*
X47375000Y-39000000D02*
X46325500Y-39000000D01*
X37250000Y-41950000D02*
X36100000Y-40800000D01*
X47375000Y-38500000D02*
X45700000Y-38500000D01*
X37250000Y-42500000D02*
X37250000Y-41950000D01*
X36100000Y-38600000D02*
X36100000Y-40800000D01*
D30*
X62037500Y-35250000D02*
X60537500Y-33750000D01*
X51250000Y-38500000D02*
X51900000Y-38500000D01*
D31*
X55712500Y-51787500D02*
X55750000Y-51750000D01*
D30*
X65200000Y-35250000D02*
X63500000Y-35250000D01*
D31*
X52040000Y-52850000D02*
X52040000Y-48650000D01*
X55562500Y-52850000D02*
X52040000Y-52850000D01*
D30*
X63500000Y-35250000D02*
X62037500Y-35250000D01*
X50750000Y-27000000D02*
X51750000Y-27000000D01*
D31*
X55712500Y-53000000D02*
X55712500Y-51787500D01*
D30*
X55250000Y-30750000D02*
X56250000Y-30750000D01*
D31*
X58500000Y-41000000D02*
X57500000Y-41000000D01*
X58500000Y-44250000D02*
X57500000Y-44250000D01*
X55712500Y-53000000D02*
X55562500Y-52850000D01*
D30*
X50562500Y-41312500D02*
X52500000Y-43250000D01*
X50562500Y-40187500D02*
X50562500Y-41312500D01*
X52500000Y-43250000D02*
X53712500Y-43250000D01*
G04 #@! TA.AperFunction,Conductor*
G36*
X63994688Y-40370185D02*
G01*
X64040443Y-40422989D01*
X64050939Y-40461252D01*
X64053931Y-40489096D01*
X64053931Y-40515596D01*
X64051442Y-40538752D01*
X64024705Y-40603304D01*
X63967314Y-40643154D01*
X63928152Y-40649500D01*
X63694449Y-40649500D01*
X63627410Y-40629815D01*
X63581655Y-40577011D01*
X63571711Y-40507853D01*
X63600736Y-40444297D01*
X63659514Y-40406523D01*
X63664774Y-40405103D01*
X63674171Y-40402786D01*
X63741295Y-40386242D01*
X63782332Y-40364703D01*
X63839958Y-40350500D01*
X63927649Y-40350500D01*
X63994688Y-40370185D01*
G37*
G04 #@! TD.AperFunction*
G04 #@! TA.AperFunction,Conductor*
G36*
X48682227Y-37270184D02*
G01*
X48702869Y-37286818D01*
X48812497Y-37396446D01*
X48922126Y-37286818D01*
X48983449Y-37253333D01*
X49009800Y-37250499D01*
X49126074Y-37250499D01*
X49193113Y-37270184D01*
X49226391Y-37301613D01*
X49250694Y-37335062D01*
X49250696Y-37335064D01*
X49250697Y-37335065D01*
X49296662Y-37350000D01*
X49296663Y-37350000D01*
X49328337Y-37350000D01*
X49328338Y-37350000D01*
X49374303Y-37335065D01*
X49398607Y-37301612D01*
X49453934Y-37258949D01*
X49498919Y-37250499D01*
X49615189Y-37250499D01*
X49682228Y-37270184D01*
X49702870Y-37286817D01*
X49812499Y-37396445D01*
X49922127Y-37286818D01*
X49983450Y-37253333D01*
X50009801Y-37250499D01*
X50126074Y-37250499D01*
X50193113Y-37270184D01*
X50226391Y-37301613D01*
X50250694Y-37335062D01*
X50250695Y-37335063D01*
X50250697Y-37335065D01*
X50250699Y-37335065D01*
X50260883Y-37342465D01*
X50303550Y-37397794D01*
X50312000Y-37442785D01*
X50312000Y-37552689D01*
X50292315Y-37619728D01*
X50275681Y-37640370D01*
X50166053Y-37749997D01*
X50166053Y-37749998D01*
X50275682Y-37859628D01*
X50309166Y-37920951D01*
X50312000Y-37947309D01*
X50312000Y-38057214D01*
X50292315Y-38124253D01*
X50260885Y-38157532D01*
X50250698Y-38164933D01*
X50212499Y-38217508D01*
X50212499Y-38282491D01*
X50250696Y-38335064D01*
X50260883Y-38342465D01*
X50303550Y-38397794D01*
X50312000Y-38442785D01*
X50312000Y-38552690D01*
X50292315Y-38619729D01*
X50275682Y-38640371D01*
X50166053Y-38750000D01*
X50275681Y-38859628D01*
X50309166Y-38920951D01*
X50312000Y-38947309D01*
X50312000Y-39057214D01*
X50292315Y-39124253D01*
X50260885Y-39157532D01*
X50250698Y-39164933D01*
X50226393Y-39198386D01*
X50171063Y-39241051D01*
X50126075Y-39249500D01*
X50009810Y-39249500D01*
X49942771Y-39229815D01*
X49922129Y-39213182D01*
X49812500Y-39103553D01*
X49702871Y-39213182D01*
X49641548Y-39246666D01*
X49615190Y-39249500D01*
X49498925Y-39249500D01*
X49431886Y-39229815D01*
X49398607Y-39198386D01*
X49374303Y-39164935D01*
X49328339Y-39150000D01*
X49328338Y-39150000D01*
X49296662Y-39150000D01*
X49296660Y-39150000D01*
X49250696Y-39164935D01*
X49226393Y-39198386D01*
X49171063Y-39241051D01*
X49126075Y-39249500D01*
X49009810Y-39249500D01*
X48942771Y-39229815D01*
X48922129Y-39213182D01*
X48812498Y-39103553D01*
X48702872Y-39213181D01*
X48641549Y-39246666D01*
X48615190Y-39249500D01*
X48498925Y-39249500D01*
X48431886Y-39229815D01*
X48398607Y-39198386D01*
X48374303Y-39164935D01*
X48364116Y-39157534D01*
X48321449Y-39102204D01*
X48312999Y-39057218D01*
X48312999Y-38947308D01*
X48332684Y-38880270D01*
X48349318Y-38859627D01*
X48458946Y-38749999D01*
X48458945Y-38749998D01*
X49166053Y-38749998D01*
X49312500Y-38896446D01*
X49458947Y-38750000D01*
X49458947Y-38749999D01*
X49312501Y-38603553D01*
X49166053Y-38749998D01*
X48458945Y-38749998D01*
X48349318Y-38640371D01*
X48315833Y-38579048D01*
X48312999Y-38552697D01*
X48312999Y-38442784D01*
X48332684Y-38375746D01*
X48364118Y-38342464D01*
X48374300Y-38335065D01*
X48374303Y-38335065D01*
X48412500Y-38282492D01*
X48412500Y-38250000D01*
X48666053Y-38250000D01*
X48812500Y-38396447D01*
X48926456Y-38282491D01*
X49212499Y-38282491D01*
X49247994Y-38331344D01*
X49250697Y-38335065D01*
X49296662Y-38350000D01*
X49296663Y-38350000D01*
X49328337Y-38350000D01*
X49328338Y-38350000D01*
X49374303Y-38335065D01*
X49412500Y-38282492D01*
X49412500Y-38250000D01*
X49666053Y-38250000D01*
X49812499Y-38396447D01*
X49958947Y-38250000D01*
X49812498Y-38103553D01*
X49666053Y-38250000D01*
X49412500Y-38250000D01*
X49412500Y-38217508D01*
X49374303Y-38164935D01*
X49374297Y-38164933D01*
X49328339Y-38150000D01*
X49328338Y-38150000D01*
X49296662Y-38150000D01*
X49296660Y-38150000D01*
X49250696Y-38164935D01*
X49212499Y-38217508D01*
X49212499Y-38282491D01*
X48926456Y-38282491D01*
X48958947Y-38250000D01*
X48812500Y-38103553D01*
X48666053Y-38250000D01*
X48412500Y-38250000D01*
X48412500Y-38217508D01*
X48374303Y-38164935D01*
X48364116Y-38157534D01*
X48321449Y-38102204D01*
X48312999Y-38057218D01*
X48312999Y-37947308D01*
X48332684Y-37880270D01*
X48349318Y-37859628D01*
X48458946Y-37750000D01*
X49166053Y-37750000D01*
X49312500Y-37896447D01*
X49458947Y-37750000D01*
X49312500Y-37603553D01*
X49166053Y-37750000D01*
X48458946Y-37750000D01*
X48458947Y-37749999D01*
X48349318Y-37640372D01*
X48315833Y-37579049D01*
X48312999Y-37552697D01*
X48312999Y-37442784D01*
X48332684Y-37375746D01*
X48364118Y-37342464D01*
X48374300Y-37335065D01*
X48374303Y-37335065D01*
X48398607Y-37301612D01*
X48453934Y-37258949D01*
X48498919Y-37250499D01*
X48615188Y-37250499D01*
X48682227Y-37270184D01*
G37*
G04 #@! TD.AperFunction*
G04 #@! TA.AperFunction,Conductor*
G36*
X72397070Y-25020185D02*
G01*
X72442825Y-25072989D01*
X72452769Y-25142147D01*
X72423744Y-25205703D01*
X72390012Y-25233028D01*
X72294545Y-25285790D01*
X72001377Y-25493805D01*
X71733339Y-25733339D01*
X71493805Y-26001377D01*
X71285790Y-26294545D01*
X71111905Y-26609168D01*
X70974339Y-26941281D01*
X70874828Y-27286694D01*
X70874826Y-27286703D01*
X70814614Y-27641085D01*
X70814612Y-27641097D01*
X70794457Y-28000000D01*
X70814612Y-28358902D01*
X70814614Y-28358914D01*
X70874826Y-28713296D01*
X70874828Y-28713305D01*
X70974339Y-29058718D01*
X70974341Y-29058724D01*
X71034037Y-29202841D01*
X71111905Y-29390831D01*
X71285790Y-29705454D01*
X71493805Y-29998622D01*
X71499658Y-30005171D01*
X71733339Y-30266661D01*
X72001377Y-30506194D01*
X72294548Y-30714211D01*
X72609167Y-30888094D01*
X72941276Y-31025659D01*
X73286700Y-31125173D01*
X73641093Y-31185387D01*
X74000000Y-31205543D01*
X74358907Y-31185387D01*
X74713300Y-31125173D01*
X75058724Y-31025659D01*
X75390833Y-30888094D01*
X75705452Y-30714211D01*
X75998623Y-30506194D01*
X76266661Y-30266661D01*
X76506194Y-29998623D01*
X76714211Y-29705452D01*
X76766972Y-29609986D01*
X76816628Y-29560834D01*
X76884976Y-29546331D01*
X76950315Y-29571081D01*
X76991901Y-29627227D01*
X76999500Y-29669968D01*
X76999500Y-49330031D01*
X76979815Y-49397070D01*
X76927011Y-49442825D01*
X76857853Y-49452769D01*
X76794297Y-49423744D01*
X76766972Y-49390012D01*
X76714209Y-49294545D01*
X76506194Y-49001377D01*
X76415598Y-48900000D01*
X76266661Y-48733339D01*
X75998623Y-48493806D01*
X75997986Y-48493354D01*
X75705454Y-48285790D01*
X75548142Y-48198847D01*
X75390833Y-48111906D01*
X75338640Y-48090287D01*
X75242191Y-48050336D01*
X75058724Y-47974341D01*
X75058720Y-47974339D01*
X75058718Y-47974339D01*
X74713305Y-47874828D01*
X74713296Y-47874826D01*
X74358914Y-47814614D01*
X74358902Y-47814612D01*
X74000000Y-47794457D01*
X73641097Y-47814612D01*
X73641085Y-47814614D01*
X73286703Y-47874826D01*
X73286694Y-47874828D01*
X72941281Y-47974339D01*
X72609168Y-48111905D01*
X72294545Y-48285790D01*
X72001377Y-48493805D01*
X71733339Y-48733339D01*
X71493805Y-49001377D01*
X71285790Y-49294545D01*
X71111905Y-49609168D01*
X70974339Y-49941281D01*
X70874828Y-50286694D01*
X70874826Y-50286703D01*
X70814614Y-50641085D01*
X70814612Y-50641097D01*
X70794457Y-50999999D01*
X70814612Y-51358902D01*
X70814614Y-51358914D01*
X70874826Y-51713296D01*
X70874828Y-51713305D01*
X70973745Y-52056655D01*
X70974341Y-52058724D01*
X71038320Y-52213181D01*
X71111905Y-52390831D01*
X71285790Y-52705454D01*
X71485430Y-52986818D01*
X71493806Y-52998623D01*
X71733339Y-53266661D01*
X71944854Y-53455682D01*
X72001377Y-53506194D01*
X72172618Y-53627697D01*
X72294548Y-53714211D01*
X72609167Y-53888094D01*
X72905741Y-54010939D01*
X72960143Y-54054780D01*
X72982208Y-54121074D01*
X72964929Y-54188774D01*
X72913791Y-54236384D01*
X72858287Y-54249500D01*
X58710523Y-54249500D01*
X58643484Y-54229815D01*
X58597729Y-54177011D01*
X58587785Y-54107853D01*
X58616810Y-54044297D01*
X58622842Y-54037819D01*
X58717315Y-53943345D01*
X58809356Y-53794124D01*
X58809358Y-53794119D01*
X58864505Y-53627697D01*
X58864506Y-53627690D01*
X58874999Y-53524986D01*
X58875000Y-53524973D01*
X58875000Y-53250000D01*
X57661500Y-53250000D01*
X57594461Y-53230315D01*
X57548706Y-53177511D01*
X57537500Y-53126000D01*
X57537499Y-51775000D01*
X58037500Y-51775000D01*
X58037500Y-52750000D01*
X58874999Y-52750000D01*
X58874999Y-52475028D01*
X58874998Y-52475013D01*
X58864505Y-52372302D01*
X58809358Y-52205880D01*
X58809356Y-52205875D01*
X58717315Y-52056654D01*
X58593345Y-51932684D01*
X58444124Y-51840643D01*
X58444119Y-51840641D01*
X58277697Y-51785494D01*
X58277690Y-51785493D01*
X58174986Y-51775000D01*
X58037500Y-51775000D01*
X57537499Y-51775000D01*
X57400027Y-51775000D01*
X57400012Y-51775001D01*
X57297302Y-51785494D01*
X57130880Y-51840641D01*
X57130875Y-51840643D01*
X56981654Y-51932684D01*
X56857683Y-52056655D01*
X56857679Y-52056660D01*
X56855826Y-52059665D01*
X56854018Y-52061290D01*
X56853202Y-52062323D01*
X56853025Y-52062183D01*
X56803874Y-52106385D01*
X56734911Y-52117601D01*
X56670831Y-52089752D01*
X56644753Y-52059653D01*
X56644176Y-52058718D01*
X56642712Y-52056344D01*
X56518656Y-51932288D01*
X56518655Y-51932287D01*
X56483581Y-51910653D01*
X56436857Y-51858704D01*
X56425583Y-51790169D01*
X56430461Y-51750000D01*
X56410688Y-51587155D01*
X56352518Y-51433774D01*
X56259332Y-51298771D01*
X56259329Y-51298768D01*
X56259327Y-51298766D01*
X56136548Y-51189993D01*
X55991291Y-51113756D01*
X55832022Y-51074500D01*
X55832021Y-51074500D01*
X55667979Y-51074500D01*
X55667978Y-51074500D01*
X55508708Y-51113756D01*
X55363451Y-51189993D01*
X55240672Y-51298766D01*
X55240666Y-51298773D01*
X55147483Y-51433771D01*
X55089312Y-51587154D01*
X55089311Y-51587157D01*
X55069539Y-51749999D01*
X55069539Y-51757500D01*
X55067471Y-51757500D01*
X55057718Y-51816080D01*
X55011191Y-51867618D01*
X54906342Y-51932289D01*
X54782289Y-52056342D01*
X54779237Y-52061290D01*
X54707861Y-52177011D01*
X54699481Y-52190597D01*
X54647533Y-52237321D01*
X54593942Y-52249500D01*
X53564499Y-52249500D01*
X53497460Y-52229815D01*
X53451705Y-52177011D01*
X53440499Y-52125500D01*
X53440499Y-51802129D01*
X53440498Y-51802123D01*
X53440497Y-51802116D01*
X53434091Y-51742517D01*
X53423192Y-51713296D01*
X53383797Y-51607671D01*
X53383793Y-51607664D01*
X53297547Y-51492455D01*
X53297544Y-51492452D01*
X53182335Y-51406206D01*
X53182328Y-51406202D01*
X53047482Y-51355908D01*
X53047483Y-51355908D01*
X52987883Y-51349501D01*
X52987881Y-51349500D01*
X52987873Y-51349500D01*
X52987865Y-51349500D01*
X52764500Y-51349500D01*
X52697461Y-51329815D01*
X52651706Y-51277011D01*
X52640500Y-51225500D01*
X52640500Y-50274499D01*
X52660185Y-50207460D01*
X52712989Y-50161705D01*
X52764500Y-50150499D01*
X52987871Y-50150499D01*
X52987872Y-50150499D01*
X53047483Y-50144091D01*
X53182331Y-50093796D01*
X53297546Y-50007546D01*
X53383796Y-49892331D01*
X53434091Y-49757483D01*
X53440500Y-49697873D01*
X53440499Y-47602128D01*
X53434091Y-47542517D01*
X53419778Y-47504143D01*
X53383797Y-47407671D01*
X53383793Y-47407664D01*
X53378056Y-47400000D01*
X66850000Y-47400000D01*
X66850000Y-48097844D01*
X66856401Y-48157372D01*
X66856403Y-48157379D01*
X66906645Y-48292086D01*
X66906649Y-48292093D01*
X66992809Y-48407187D01*
X66992812Y-48407190D01*
X67107906Y-48493350D01*
X67107913Y-48493354D01*
X67242620Y-48543596D01*
X67242627Y-48543598D01*
X67302155Y-48549999D01*
X67302172Y-48550000D01*
X68200000Y-48550000D01*
X68200000Y-47400000D01*
X68700000Y-47400000D01*
X68700000Y-48550000D01*
X69597828Y-48550000D01*
X69597844Y-48549999D01*
X69657372Y-48543598D01*
X69657379Y-48543596D01*
X69792086Y-48493354D01*
X69792093Y-48493350D01*
X69907187Y-48407190D01*
X69907190Y-48407187D01*
X69993350Y-48292093D01*
X69993354Y-48292086D01*
X70043596Y-48157379D01*
X70043598Y-48157372D01*
X70049999Y-48097844D01*
X70050000Y-48097827D01*
X70050000Y-47400000D01*
X68700000Y-47400000D01*
X68200000Y-47400000D01*
X66850000Y-47400000D01*
X53378056Y-47400000D01*
X53297547Y-47292455D01*
X53297544Y-47292452D01*
X53182335Y-47206206D01*
X53182328Y-47206202D01*
X53047482Y-47155908D01*
X53047483Y-47155908D01*
X52987883Y-47149501D01*
X52987881Y-47149500D01*
X52987873Y-47149500D01*
X52987864Y-47149500D01*
X51092129Y-47149500D01*
X51092123Y-47149501D01*
X51032516Y-47155908D01*
X50897671Y-47206202D01*
X50897664Y-47206206D01*
X50782455Y-47292452D01*
X50782452Y-47292455D01*
X50696206Y-47407664D01*
X50696202Y-47407671D01*
X50645908Y-47542517D01*
X50639501Y-47602116D01*
X50639501Y-47602123D01*
X50639500Y-47602135D01*
X50639500Y-49697870D01*
X50639501Y-49697876D01*
X50645908Y-49757483D01*
X50696202Y-49892328D01*
X50696206Y-49892335D01*
X50782452Y-50007544D01*
X50782455Y-50007547D01*
X50897664Y-50093793D01*
X50897671Y-50093797D01*
X50942618Y-50110561D01*
X51032517Y-50144091D01*
X51092127Y-50150500D01*
X51315499Y-50150499D01*
X51382538Y-50170183D01*
X51428293Y-50222987D01*
X51439499Y-50274499D01*
X51439500Y-51225500D01*
X51419816Y-51292539D01*
X51367012Y-51338294D01*
X51315501Y-51349500D01*
X51092130Y-51349500D01*
X51092123Y-51349501D01*
X51032516Y-51355908D01*
X50897671Y-51406202D01*
X50897664Y-51406206D01*
X50782455Y-51492452D01*
X50782452Y-51492455D01*
X50696206Y-51607664D01*
X50696202Y-51607671D01*
X50645908Y-51742517D01*
X50642416Y-51775001D01*
X50639501Y-51802123D01*
X50639500Y-51802135D01*
X50639500Y-53897870D01*
X50639501Y-53897876D01*
X50645908Y-53957483D01*
X50692413Y-54082167D01*
X50697397Y-54151859D01*
X50663912Y-54213182D01*
X50602589Y-54246666D01*
X50576231Y-54249500D01*
X48423769Y-54249500D01*
X48356730Y-54229815D01*
X48310975Y-54177011D01*
X48301031Y-54107853D01*
X48307587Y-54082167D01*
X48317802Y-54054780D01*
X48354091Y-53957483D01*
X48360500Y-53897873D01*
X48360499Y-51802128D01*
X48354091Y-51742517D01*
X48343192Y-51713296D01*
X48303797Y-51607671D01*
X48303793Y-51607664D01*
X48217547Y-51492455D01*
X48217544Y-51492452D01*
X48102335Y-51406206D01*
X48102328Y-51406202D01*
X47967482Y-51355908D01*
X47967483Y-51355908D01*
X47907883Y-51349501D01*
X47907881Y-51349500D01*
X47907873Y-51349500D01*
X47907864Y-51349500D01*
X46012129Y-51349500D01*
X46012123Y-51349501D01*
X45952516Y-51355908D01*
X45817671Y-51406202D01*
X45817664Y-51406206D01*
X45702455Y-51492452D01*
X45702452Y-51492455D01*
X45616206Y-51607664D01*
X45616202Y-51607671D01*
X45565908Y-51742517D01*
X45562416Y-51775001D01*
X45559501Y-51802123D01*
X45559500Y-51802135D01*
X45559500Y-52125500D01*
X45539815Y-52192539D01*
X45487011Y-52238294D01*
X45435500Y-52249500D01*
X45150097Y-52249500D01*
X45083058Y-52229815D01*
X45062416Y-52213181D01*
X44886818Y-52037583D01*
X44853333Y-51976260D01*
X44850499Y-51949902D01*
X44850499Y-51249998D01*
X44850498Y-51249981D01*
X44839999Y-51147203D01*
X44839998Y-51147200D01*
X44828916Y-51113756D01*
X44784814Y-50980666D01*
X44692712Y-50831344D01*
X44568656Y-50707288D01*
X44419334Y-50615186D01*
X44419332Y-50615185D01*
X44413187Y-50611395D01*
X44414290Y-50609605D01*
X44369649Y-50570290D01*
X44350500Y-50504091D01*
X44350500Y-49245908D01*
X44370185Y-49178869D01*
X44414271Y-49140363D01*
X44413187Y-49138605D01*
X44419332Y-49134814D01*
X44419334Y-49134814D01*
X44568656Y-49042712D01*
X44692712Y-48918656D01*
X44704219Y-48900000D01*
X45560000Y-48900000D01*
X45560000Y-49697844D01*
X45566401Y-49757372D01*
X45566403Y-49757379D01*
X45616645Y-49892086D01*
X45616649Y-49892093D01*
X45702809Y-50007187D01*
X45702812Y-50007190D01*
X45817906Y-50093350D01*
X45817913Y-50093354D01*
X45952620Y-50143596D01*
X45952627Y-50143598D01*
X46012155Y-50149999D01*
X46012172Y-50150000D01*
X46710000Y-50150000D01*
X46710000Y-50149999D01*
X47209999Y-50149999D01*
X47210000Y-50150000D01*
X47907828Y-50150000D01*
X47907844Y-50149999D01*
X47967372Y-50143598D01*
X47967379Y-50143596D01*
X48102086Y-50093354D01*
X48102093Y-50093350D01*
X48217187Y-50007190D01*
X48217190Y-50007187D01*
X48303350Y-49892093D01*
X48303354Y-49892086D01*
X48353596Y-49757379D01*
X48353598Y-49757372D01*
X48359999Y-49697844D01*
X48360000Y-49697827D01*
X48360000Y-48900000D01*
X47210000Y-48900000D01*
X47209999Y-50149999D01*
X46710000Y-50149999D01*
X46710000Y-48900000D01*
X45560000Y-48900000D01*
X44704219Y-48900000D01*
X44784814Y-48769334D01*
X44839999Y-48602797D01*
X44850500Y-48500009D01*
X44850500Y-48400000D01*
X45560000Y-48400000D01*
X46710000Y-48400000D01*
X47209999Y-48400000D01*
X48360000Y-48400000D01*
X48360000Y-47602172D01*
X48359999Y-47602155D01*
X48353598Y-47542627D01*
X48353596Y-47542620D01*
X48303354Y-47407913D01*
X48303350Y-47407906D01*
X48217190Y-47292812D01*
X48217187Y-47292809D01*
X48102093Y-47206649D01*
X48102086Y-47206645D01*
X47967379Y-47156403D01*
X47967372Y-47156401D01*
X47907844Y-47150000D01*
X47210000Y-47150000D01*
X47209999Y-48400000D01*
X46710000Y-48400000D01*
X46710000Y-47150000D01*
X46012155Y-47150000D01*
X45952627Y-47156401D01*
X45952620Y-47156403D01*
X45817913Y-47206645D01*
X45817906Y-47206649D01*
X45702812Y-47292809D01*
X45702809Y-47292812D01*
X45616649Y-47407906D01*
X45616645Y-47407913D01*
X45566403Y-47542620D01*
X45566401Y-47542627D01*
X45560000Y-47602155D01*
X45560000Y-48400000D01*
X44850500Y-48400000D01*
X44850499Y-47499992D01*
X44839999Y-47397203D01*
X44784814Y-47230666D01*
X44692712Y-47081344D01*
X44568656Y-46957288D01*
X44475778Y-46900000D01*
X66850000Y-46900000D01*
X68200000Y-46900000D01*
X68200000Y-45750000D01*
X68700000Y-45750000D01*
X68700000Y-46900000D01*
X70050000Y-46900000D01*
X70050000Y-46202172D01*
X70049999Y-46202155D01*
X70043598Y-46142627D01*
X70043596Y-46142620D01*
X69993354Y-46007913D01*
X69993350Y-46007906D01*
X69907190Y-45892812D01*
X69907187Y-45892809D01*
X69792093Y-45806649D01*
X69792086Y-45806645D01*
X69657379Y-45756403D01*
X69657372Y-45756401D01*
X69597844Y-45750000D01*
X68700000Y-45750000D01*
X68200000Y-45750000D01*
X67302155Y-45750000D01*
X67242627Y-45756401D01*
X67242620Y-45756403D01*
X67107913Y-45806645D01*
X67107906Y-45806649D01*
X66992812Y-45892809D01*
X66992809Y-45892812D01*
X66906649Y-46007906D01*
X66906645Y-46007913D01*
X66856403Y-46142620D01*
X66856401Y-46142627D01*
X66850000Y-46202155D01*
X66850000Y-46900000D01*
X44475778Y-46900000D01*
X44420780Y-46866077D01*
X44374057Y-46814131D01*
X44362782Y-46745595D01*
X44380461Y-46600000D01*
X44360688Y-46437155D01*
X44302518Y-46283774D01*
X44209332Y-46148771D01*
X44209329Y-46148768D01*
X44209327Y-46148766D01*
X44086548Y-46039993D01*
X43941291Y-45963756D01*
X43782022Y-45924500D01*
X43782021Y-45924500D01*
X43617979Y-45924500D01*
X43617978Y-45924500D01*
X43458708Y-45963756D01*
X43313451Y-46039993D01*
X43190672Y-46148766D01*
X43190666Y-46148773D01*
X43097483Y-46283771D01*
X43039312Y-46437154D01*
X43039311Y-46437157D01*
X43019539Y-46599999D01*
X43039311Y-46762842D01*
X43039312Y-46762847D01*
X43042293Y-46770705D01*
X43047660Y-46840368D01*
X43014513Y-46901874D01*
X42991449Y-46920214D01*
X42931344Y-46957287D01*
X42931343Y-46957288D01*
X42837681Y-47050951D01*
X42776358Y-47084436D01*
X42706666Y-47079452D01*
X42662319Y-47050951D01*
X42568657Y-46957289D01*
X42568656Y-46957288D01*
X42419334Y-46865186D01*
X42252797Y-46810001D01*
X42248965Y-46809609D01*
X42236894Y-46808376D01*
X42172203Y-46781978D01*
X42132053Y-46724796D01*
X42125500Y-46685018D01*
X42125500Y-44479854D01*
X42145185Y-44412815D01*
X42197989Y-44367060D01*
X42267147Y-44357116D01*
X42314598Y-44374316D01*
X42330873Y-44384355D01*
X42330880Y-44384358D01*
X42497302Y-44439505D01*
X42497309Y-44439506D01*
X42600019Y-44449999D01*
X42749999Y-44449999D01*
X43250000Y-44449999D01*
X43399972Y-44449999D01*
X43399986Y-44449998D01*
X43502697Y-44439505D01*
X43669119Y-44384358D01*
X43669124Y-44384356D01*
X43818342Y-44292317D01*
X43911964Y-44198695D01*
X43973287Y-44165210D01*
X44042979Y-44170194D01*
X44087327Y-44198695D01*
X44181344Y-44292712D01*
X44330666Y-44384814D01*
X44497203Y-44439999D01*
X44599991Y-44450500D01*
X45400008Y-44450499D01*
X45400016Y-44450498D01*
X45400019Y-44450498D01*
X45456302Y-44444748D01*
X45502797Y-44439999D01*
X45669334Y-44384814D01*
X45818656Y-44292712D01*
X45942712Y-44168656D01*
X46034814Y-44019334D01*
X46089999Y-43852797D01*
X46100500Y-43750009D01*
X46100499Y-43459792D01*
X46120183Y-43392756D01*
X46172987Y-43347001D01*
X46242146Y-43337057D01*
X46305701Y-43366082D01*
X46340441Y-43415823D01*
X46397483Y-43566228D01*
X46444825Y-43634814D01*
X46490668Y-43701229D01*
X46490670Y-43701231D01*
X46490672Y-43701233D01*
X46613451Y-43810006D01*
X46613452Y-43810006D01*
X46613454Y-43810008D01*
X46758705Y-43886242D01*
X46758707Y-43886242D01*
X46758708Y-43886243D01*
X46917978Y-43925500D01*
X47061267Y-43925500D01*
X47128306Y-43945185D01*
X47174061Y-43997989D01*
X47178972Y-44010494D01*
X47190184Y-44044328D01*
X47190187Y-44044336D01*
X47199854Y-44060008D01*
X47282288Y-44193656D01*
X47406344Y-44317712D01*
X47555666Y-44409814D01*
X47722203Y-44464999D01*
X47824991Y-44475500D01*
X48600008Y-44475499D01*
X48600016Y-44475498D01*
X48600019Y-44475498D01*
X48679018Y-44467428D01*
X48702797Y-44464999D01*
X48869334Y-44409814D01*
X49018656Y-44317712D01*
X49142712Y-44193656D01*
X49144752Y-44190347D01*
X49146745Y-44188555D01*
X49147193Y-44187989D01*
X49147289Y-44188065D01*
X49196694Y-44143623D01*
X49265656Y-44132395D01*
X49329740Y-44160234D01*
X49355829Y-44190339D01*
X49357681Y-44193341D01*
X49357683Y-44193344D01*
X49481654Y-44317315D01*
X49630875Y-44409356D01*
X49630880Y-44409358D01*
X49797302Y-44464505D01*
X49797309Y-44464506D01*
X49900019Y-44474999D01*
X50037499Y-44474999D01*
X50037500Y-44474998D01*
X50037500Y-43124000D01*
X50057185Y-43056961D01*
X50109989Y-43011206D01*
X50161500Y-43000000D01*
X50413500Y-43000000D01*
X50480539Y-43019685D01*
X50526294Y-43072489D01*
X50537500Y-43124000D01*
X50537500Y-44474999D01*
X50674972Y-44474999D01*
X50674986Y-44474998D01*
X50777699Y-44464505D01*
X50836495Y-44445022D01*
X50906323Y-44442619D01*
X50966365Y-44478350D01*
X50997558Y-44540870D01*
X50999500Y-44562727D01*
X50999500Y-45355729D01*
X50991442Y-45399700D01*
X50939312Y-45537151D01*
X50939311Y-45537157D01*
X50919539Y-45699999D01*
X50919539Y-45700000D01*
X50939311Y-45862842D01*
X50939312Y-45862845D01*
X50994329Y-46007913D01*
X50997483Y-46016228D01*
X51013887Y-46039993D01*
X51090668Y-46151229D01*
X51090670Y-46151231D01*
X51090672Y-46151233D01*
X51213451Y-46260006D01*
X51213452Y-46260006D01*
X51213454Y-46260008D01*
X51358705Y-46336242D01*
X51358707Y-46336242D01*
X51358708Y-46336243D01*
X51517978Y-46375500D01*
X51517979Y-46375500D01*
X51682022Y-46375500D01*
X51841291Y-46336243D01*
X51841291Y-46336242D01*
X51841295Y-46336242D01*
X51986546Y-46260008D01*
X52109332Y-46151229D01*
X52202518Y-46016226D01*
X52260688Y-45862845D01*
X52280461Y-45700000D01*
X52260688Y-45537155D01*
X52260687Y-45537153D01*
X52260687Y-45537151D01*
X52208558Y-45399700D01*
X52200500Y-45355729D01*
X52200500Y-44006357D01*
X52220185Y-43939318D01*
X52272989Y-43893563D01*
X52342147Y-43883619D01*
X52343846Y-43883875D01*
X52365057Y-43887235D01*
X52370760Y-43888416D01*
X52417823Y-43900500D01*
X52439045Y-43900500D01*
X52458442Y-43902026D01*
X52479405Y-43905347D01*
X52524104Y-43901121D01*
X52527770Y-43900775D01*
X52533608Y-43900500D01*
X52552983Y-43900500D01*
X52620022Y-43920185D01*
X52665777Y-43972989D01*
X52670686Y-43985489D01*
X52685336Y-44029698D01*
X52690186Y-44044333D01*
X52690187Y-44044336D01*
X52699854Y-44060008D01*
X52782288Y-44193656D01*
X52906344Y-44317712D01*
X53055666Y-44409814D01*
X53222203Y-44464999D01*
X53324991Y-44475500D01*
X54058900Y-44475499D01*
X54125939Y-44495183D01*
X54171694Y-44547987D01*
X54181638Y-44617146D01*
X54174842Y-44643470D01*
X54139312Y-44737151D01*
X54139311Y-44737157D01*
X54119539Y-44899999D01*
X54119539Y-44900000D01*
X54139311Y-45062842D01*
X54139312Y-45062845D01*
X54197235Y-45215576D01*
X54197483Y-45216228D01*
X54262214Y-45310006D01*
X54290668Y-45351229D01*
X54290670Y-45351231D01*
X54290672Y-45351233D01*
X54413451Y-45460006D01*
X54413452Y-45460006D01*
X54413454Y-45460008D01*
X54558705Y-45536242D01*
X54558707Y-45536242D01*
X54558708Y-45536243D01*
X54717978Y-45575500D01*
X54717979Y-45575500D01*
X54882022Y-45575500D01*
X55041291Y-45536243D01*
X55041291Y-45536242D01*
X55041295Y-45536242D01*
X55186546Y-45460008D01*
X55309332Y-45351229D01*
X55402518Y-45216226D01*
X55460688Y-45062845D01*
X55480461Y-44900000D01*
X55478790Y-44886242D01*
X55473869Y-44845718D01*
X55460688Y-44737155D01*
X55424967Y-44642969D01*
X55419601Y-44573307D01*
X55452748Y-44511801D01*
X55513886Y-44477980D01*
X55537077Y-44475421D01*
X55537500Y-44474998D01*
X55537500Y-42025000D01*
X55524500Y-42025000D01*
X55457461Y-42005315D01*
X55411706Y-41952511D01*
X55400500Y-41901000D01*
X55400500Y-39843428D01*
X55401031Y-39835326D01*
X55401677Y-39830419D01*
X55405682Y-39800000D01*
X55401164Y-39765683D01*
X55411929Y-39696650D01*
X55458309Y-39644394D01*
X55524103Y-39625499D01*
X55739557Y-39625499D01*
X55806596Y-39645184D01*
X55852351Y-39697988D01*
X55855499Y-39705527D01*
X55859875Y-39717065D01*
X55895123Y-39810007D01*
X55897483Y-39816228D01*
X55945811Y-39886243D01*
X55990668Y-39951229D01*
X55990670Y-39951231D01*
X55990672Y-39951233D01*
X56113451Y-40060006D01*
X56113452Y-40060006D01*
X56113454Y-40060008D01*
X56258705Y-40136242D01*
X56258707Y-40136242D01*
X56258708Y-40136243D01*
X56330175Y-40153858D01*
X56390556Y-40189015D01*
X56422344Y-40251234D01*
X56424500Y-40274255D01*
X56424500Y-41855991D01*
X56404815Y-41923030D01*
X56402551Y-41926429D01*
X56397484Y-41933768D01*
X56397481Y-41933776D01*
X56389652Y-41954417D01*
X56347472Y-42010118D01*
X56281873Y-42034172D01*
X56261110Y-42033799D01*
X56174988Y-42025000D01*
X56037500Y-42025000D01*
X56037500Y-43000000D01*
X56874999Y-43000000D01*
X56911318Y-42963681D01*
X56913657Y-42966020D01*
X56947488Y-42936706D01*
X56998999Y-42925500D01*
X57082022Y-42925500D01*
X57241291Y-42886243D01*
X57241291Y-42886242D01*
X57241295Y-42886242D01*
X57386546Y-42810008D01*
X57509332Y-42701229D01*
X57602518Y-42566226D01*
X57660688Y-42412845D01*
X57680461Y-42250000D01*
X57680460Y-42249999D01*
X57681365Y-42242555D01*
X57684519Y-42242938D01*
X57700146Y-42189721D01*
X57752950Y-42143966D01*
X57822108Y-42134022D01*
X57843452Y-42139051D01*
X57997203Y-42189999D01*
X58099991Y-42200500D01*
X58875500Y-42200499D01*
X58942539Y-42220183D01*
X58988294Y-42272987D01*
X58999500Y-42324499D01*
X58999500Y-42925500D01*
X58979815Y-42992539D01*
X58927011Y-43038294D01*
X58875500Y-43049500D01*
X58099998Y-43049500D01*
X58099980Y-43049501D01*
X57997203Y-43060000D01*
X57997200Y-43060001D01*
X57830668Y-43115185D01*
X57830663Y-43115187D01*
X57681342Y-43207289D01*
X57557289Y-43331342D01*
X57465184Y-43480669D01*
X57465183Y-43480672D01*
X57457063Y-43505174D01*
X57417289Y-43562618D01*
X57369035Y-43586562D01*
X57258711Y-43613755D01*
X57258705Y-43613757D01*
X57258705Y-43613758D01*
X57113454Y-43689992D01*
X57089448Y-43711260D01*
X57081227Y-43718543D01*
X57017994Y-43748264D01*
X56948730Y-43739080D01*
X56895427Y-43693908D01*
X56875007Y-43627089D01*
X56875000Y-43625727D01*
X56875000Y-43500000D01*
X56037500Y-43500000D01*
X56037500Y-44474999D01*
X56174972Y-44474999D01*
X56174986Y-44474998D01*
X56277697Y-44464505D01*
X56444119Y-44409358D01*
X56444124Y-44409356D01*
X56593342Y-44317317D01*
X56622254Y-44288405D01*
X56683577Y-44254919D01*
X56753269Y-44259903D01*
X56809203Y-44301773D01*
X56833033Y-44361137D01*
X56839311Y-44412843D01*
X56839312Y-44412845D01*
X56892135Y-44552128D01*
X56897483Y-44566228D01*
X56962716Y-44660734D01*
X56990668Y-44701229D01*
X56990670Y-44701231D01*
X56990672Y-44701233D01*
X57113451Y-44810006D01*
X57113452Y-44810006D01*
X57113454Y-44810008D01*
X57258705Y-44886242D01*
X57258707Y-44886242D01*
X57258708Y-44886243D01*
X57369034Y-44913436D01*
X57429415Y-44948593D01*
X57457064Y-44994826D01*
X57465185Y-45019331D01*
X57465186Y-45019334D01*
X57557288Y-45168656D01*
X57681344Y-45292712D01*
X57830666Y-45384814D01*
X57997203Y-45439999D01*
X58099991Y-45450500D01*
X58900008Y-45450499D01*
X58900016Y-45450498D01*
X58900019Y-45450498D01*
X58956302Y-45444748D01*
X59002797Y-45439999D01*
X59169334Y-45384814D01*
X59318656Y-45292712D01*
X59412318Y-45199048D01*
X59473642Y-45165564D01*
X59543334Y-45170548D01*
X59587681Y-45199049D01*
X59681344Y-45292712D01*
X59830666Y-45384814D01*
X59997203Y-45439999D01*
X60099991Y-45450500D01*
X60900008Y-45450499D01*
X60900016Y-45450498D01*
X60900019Y-45450498D01*
X60956302Y-45444748D01*
X61002797Y-45439999D01*
X61169334Y-45384814D01*
X61318656Y-45292712D01*
X61442712Y-45168656D01*
X61534814Y-45019334D01*
X61589999Y-44852797D01*
X61600500Y-44750009D01*
X61600499Y-44446861D01*
X61620183Y-44379824D01*
X61672987Y-44334069D01*
X61742146Y-44324125D01*
X61805701Y-44353150D01*
X61806679Y-44354005D01*
X61813454Y-44360008D01*
X61958705Y-44436242D01*
X61958707Y-44436242D01*
X61958708Y-44436243D01*
X62016543Y-44450498D01*
X62083616Y-44467030D01*
X62143997Y-44502186D01*
X62169883Y-44543455D01*
X62197482Y-44616227D01*
X62246672Y-44687490D01*
X62290668Y-44751229D01*
X62290670Y-44751231D01*
X62290672Y-44751233D01*
X62413451Y-44860006D01*
X62413452Y-44860006D01*
X62413454Y-44860008D01*
X62558705Y-44936242D01*
X62558707Y-44936242D01*
X62558708Y-44936243D01*
X62717978Y-44975500D01*
X62717979Y-44975500D01*
X62882022Y-44975500D01*
X63041291Y-44936243D01*
X63041291Y-44936242D01*
X63041295Y-44936242D01*
X63186546Y-44860008D01*
X63223735Y-44827060D01*
X63286967Y-44797339D01*
X63356231Y-44806521D01*
X63363589Y-44810079D01*
X63508703Y-44886241D01*
X63508705Y-44886242D01*
X63523304Y-44889840D01*
X63583683Y-44924994D01*
X63609572Y-44966266D01*
X63647482Y-45066226D01*
X63740668Y-45201229D01*
X63740670Y-45201231D01*
X63740672Y-45201233D01*
X63863451Y-45310006D01*
X63863452Y-45310006D01*
X63863454Y-45310008D01*
X63986329Y-45374498D01*
X64036539Y-45423081D01*
X64051991Y-45471039D01*
X64055908Y-45507483D01*
X64106202Y-45642328D01*
X64106206Y-45642335D01*
X64192452Y-45757544D01*
X64192455Y-45757547D01*
X64307664Y-45843793D01*
X64307671Y-45843797D01*
X64442517Y-45894091D01*
X64442516Y-45894091D01*
X64449444Y-45894835D01*
X64502127Y-45900500D01*
X65897872Y-45900499D01*
X65957483Y-45894091D01*
X66092331Y-45843796D01*
X66207546Y-45757546D01*
X66293796Y-45642331D01*
X66344091Y-45507483D01*
X66350500Y-45447873D01*
X66350499Y-45052128D01*
X66350498Y-45052111D01*
X66346320Y-45013253D01*
X66346320Y-44986747D01*
X66350500Y-44947873D01*
X66350499Y-44552128D01*
X66350498Y-44552111D01*
X66346320Y-44513253D01*
X66346320Y-44486747D01*
X66350500Y-44447873D01*
X66350499Y-44052128D01*
X66350498Y-44052111D01*
X66346320Y-44013253D01*
X66346320Y-43986747D01*
X66350500Y-43947873D01*
X66350499Y-43552128D01*
X66350498Y-43552111D01*
X66346320Y-43513253D01*
X66346320Y-43486747D01*
X66350500Y-43447873D01*
X66350499Y-43052128D01*
X66350498Y-43052111D01*
X66346320Y-43013253D01*
X66346320Y-42986747D01*
X66350500Y-42947873D01*
X66350499Y-42552128D01*
X66350498Y-42552111D01*
X66346320Y-42513253D01*
X66346320Y-42486747D01*
X66350500Y-42447873D01*
X66350499Y-42052128D01*
X66350498Y-42052111D01*
X66346320Y-42013253D01*
X66346320Y-41986747D01*
X66350500Y-41947873D01*
X66350499Y-41552128D01*
X66350498Y-41552111D01*
X66346320Y-41513253D01*
X66346320Y-41486747D01*
X66350500Y-41447873D01*
X66350499Y-41052128D01*
X66346067Y-41010898D01*
X66346068Y-40984393D01*
X66349999Y-40947833D01*
X66350000Y-40947819D01*
X66350000Y-40900000D01*
X66334388Y-40884388D01*
X66320516Y-40880315D01*
X66288290Y-40850313D01*
X66268825Y-40824312D01*
X66244406Y-40758848D01*
X66259256Y-40690575D01*
X66268818Y-40675696D01*
X66282961Y-40656804D01*
X66288292Y-40649684D01*
X66336100Y-40613899D01*
X66350000Y-40600000D01*
X66350000Y-40552182D01*
X66349999Y-40552164D01*
X66346068Y-40515602D01*
X66346068Y-40489094D01*
X66350500Y-40447873D01*
X66350499Y-40052128D01*
X66350498Y-40052111D01*
X66346320Y-40013253D01*
X66346320Y-39986747D01*
X66350500Y-39947873D01*
X66350499Y-39552128D01*
X66350498Y-39552111D01*
X66346320Y-39513253D01*
X66346320Y-39486747D01*
X66350500Y-39447873D01*
X66350499Y-39052128D01*
X66350499Y-39052127D01*
X66350498Y-39052111D01*
X66346320Y-39013253D01*
X66346320Y-38986745D01*
X66350500Y-38947873D01*
X66350499Y-38552128D01*
X66350499Y-38552127D01*
X66350498Y-38552111D01*
X66346320Y-38513253D01*
X66346320Y-38486747D01*
X66350500Y-38447873D01*
X66350499Y-38052128D01*
X66350498Y-38052111D01*
X66346320Y-38013253D01*
X66346320Y-37986747D01*
X66350500Y-37947873D01*
X66350499Y-37552128D01*
X66346067Y-37510898D01*
X66346068Y-37484393D01*
X66349999Y-37447833D01*
X66350000Y-37447819D01*
X66350000Y-37400000D01*
X66334388Y-37384388D01*
X66320516Y-37380315D01*
X66288291Y-37350314D01*
X66268826Y-37324314D01*
X66244406Y-37258851D01*
X66259255Y-37190578D01*
X66268826Y-37175686D01*
X66288291Y-37149686D01*
X66336105Y-37113894D01*
X66350000Y-37099999D01*
X66350000Y-37052182D01*
X66349999Y-37052164D01*
X66346068Y-37015602D01*
X66346068Y-36989094D01*
X66350500Y-36947873D01*
X66350499Y-36552128D01*
X66350498Y-36552111D01*
X66346320Y-36513253D01*
X66346320Y-36486747D01*
X66350500Y-36447873D01*
X66350499Y-36052128D01*
X66350499Y-36052127D01*
X66350498Y-36052111D01*
X66346320Y-36013253D01*
X66346320Y-35986747D01*
X66350500Y-35947873D01*
X66350499Y-35552128D01*
X66350498Y-35552111D01*
X66346320Y-35513253D01*
X66346320Y-35486747D01*
X66350500Y-35447873D01*
X66350499Y-35052128D01*
X66350498Y-35052111D01*
X66346320Y-35013253D01*
X66346320Y-34986747D01*
X66350500Y-34947873D01*
X66350499Y-34552128D01*
X66346067Y-34510898D01*
X66346068Y-34484393D01*
X66349999Y-34447833D01*
X66350000Y-34447819D01*
X66350000Y-34400000D01*
X66334388Y-34384388D01*
X66320516Y-34380315D01*
X66288291Y-34350314D01*
X66268826Y-34324314D01*
X66244406Y-34258851D01*
X66259255Y-34190578D01*
X66268826Y-34175686D01*
X66288291Y-34149686D01*
X66336105Y-34113894D01*
X66350000Y-34099999D01*
X66350000Y-34052182D01*
X66349999Y-34052164D01*
X66346068Y-34015602D01*
X66346068Y-33989093D01*
X66350500Y-33947873D01*
X66350499Y-33552128D01*
X66344091Y-33492517D01*
X66330198Y-33455269D01*
X66293797Y-33357671D01*
X66293793Y-33357664D01*
X66207547Y-33242455D01*
X66207544Y-33242452D01*
X66092335Y-33156206D01*
X66092328Y-33156202D01*
X65957482Y-33105908D01*
X65957483Y-33105908D01*
X65897883Y-33099501D01*
X65897881Y-33099500D01*
X65897873Y-33099500D01*
X65897864Y-33099500D01*
X64502129Y-33099500D01*
X64502123Y-33099501D01*
X64442516Y-33105908D01*
X64307671Y-33156202D01*
X64307664Y-33156206D01*
X64192455Y-33242452D01*
X64192452Y-33242455D01*
X64106206Y-33357664D01*
X64106202Y-33357671D01*
X64066635Y-33463758D01*
X64055909Y-33492517D01*
X64049500Y-33552127D01*
X64049500Y-33552134D01*
X64049500Y-33552135D01*
X64049500Y-33947869D01*
X64049501Y-33947880D01*
X64053931Y-33989093D01*
X64053931Y-34015596D01*
X64050000Y-34052165D01*
X64050000Y-34100000D01*
X64065611Y-34115611D01*
X64079484Y-34119685D01*
X64111711Y-34149689D01*
X64131174Y-34175688D01*
X64155592Y-34241152D01*
X64140741Y-34309425D01*
X64131177Y-34324307D01*
X64111714Y-34350308D01*
X64063885Y-34386114D01*
X64050000Y-34399999D01*
X64050000Y-34447829D01*
X64051550Y-34462246D01*
X64039144Y-34531005D01*
X63991533Y-34582142D01*
X63928260Y-34599500D01*
X63698506Y-34599500D01*
X63668832Y-34595897D01*
X63582021Y-34574500D01*
X63417979Y-34574500D01*
X63331167Y-34595897D01*
X63301494Y-34599500D01*
X62358308Y-34599500D01*
X62291269Y-34579815D01*
X62270627Y-34563181D01*
X61661818Y-33954371D01*
X61628333Y-33893048D01*
X61625499Y-33866690D01*
X61625499Y-33224998D01*
X61625498Y-33224981D01*
X61614999Y-33122203D01*
X61614998Y-33122200D01*
X61607476Y-33099500D01*
X61559814Y-32955666D01*
X61467712Y-32806344D01*
X61343656Y-32682288D01*
X61225190Y-32609218D01*
X61194336Y-32590187D01*
X61194331Y-32590185D01*
X61185184Y-32587154D01*
X61027797Y-32535001D01*
X61027795Y-32535000D01*
X60925010Y-32524500D01*
X60149998Y-32524500D01*
X60149980Y-32524501D01*
X60047203Y-32535000D01*
X60047200Y-32535001D01*
X59880668Y-32590185D01*
X59880663Y-32590187D01*
X59731342Y-32682289D01*
X59607288Y-32806343D01*
X59607283Y-32806349D01*
X59605241Y-32809661D01*
X59603247Y-32811453D01*
X59602807Y-32812011D01*
X59602711Y-32811935D01*
X59553291Y-32856383D01*
X59484328Y-32867602D01*
X59420247Y-32839755D01*
X59394168Y-32809656D01*
X59392319Y-32806659D01*
X59392316Y-32806655D01*
X59268345Y-32682684D01*
X59119124Y-32590643D01*
X59119119Y-32590641D01*
X58952697Y-32535494D01*
X58952690Y-32535493D01*
X58849986Y-32525000D01*
X58712500Y-32525000D01*
X58712500Y-34974999D01*
X58849972Y-34974999D01*
X58849986Y-34974998D01*
X58952697Y-34964505D01*
X59119119Y-34909358D01*
X59119124Y-34909356D01*
X59268345Y-34817315D01*
X59392318Y-34693342D01*
X59394165Y-34690348D01*
X59395969Y-34688724D01*
X59396798Y-34687677D01*
X59396976Y-34687818D01*
X59446110Y-34643621D01*
X59515073Y-34632396D01*
X59579156Y-34660236D01*
X59605243Y-34690341D01*
X59607288Y-34693656D01*
X59731344Y-34817712D01*
X59880666Y-34909814D01*
X60047203Y-34964999D01*
X60149991Y-34975500D01*
X60206709Y-34975499D01*
X60273747Y-34995182D01*
X60319503Y-35047986D01*
X60329805Y-35084552D01*
X60339311Y-35162842D01*
X60339312Y-35162845D01*
X60392909Y-35304169D01*
X60397483Y-35316228D01*
X60472218Y-35424500D01*
X60490668Y-35451229D01*
X60490670Y-35451231D01*
X60490672Y-35451233D01*
X60613451Y-35560006D01*
X60613452Y-35560006D01*
X60613454Y-35560008D01*
X60758705Y-35636242D01*
X60762695Y-35637225D01*
X60765565Y-35638844D01*
X60765721Y-35638903D01*
X60765712Y-35638926D01*
X60820707Y-35669942D01*
X61113181Y-35962416D01*
X61146666Y-36023739D01*
X61149500Y-36050097D01*
X61149500Y-36188051D01*
X61129815Y-36255090D01*
X61077011Y-36300845D01*
X61009545Y-36310545D01*
X61009531Y-36310689D01*
X61008956Y-36310630D01*
X61007853Y-36310789D01*
X61004304Y-36310155D01*
X60900010Y-36299500D01*
X60099998Y-36299500D01*
X60099980Y-36299501D01*
X59997203Y-36310000D01*
X59997200Y-36310001D01*
X59830668Y-36365185D01*
X59830663Y-36365187D01*
X59681342Y-36457289D01*
X59587681Y-36550951D01*
X59526358Y-36584436D01*
X59456666Y-36579452D01*
X59412319Y-36550951D01*
X59318657Y-36457289D01*
X59318656Y-36457288D01*
X59185245Y-36375000D01*
X59169336Y-36365187D01*
X59169331Y-36365185D01*
X59138036Y-36354815D01*
X59002797Y-36310001D01*
X59002795Y-36310000D01*
X58900010Y-36299500D01*
X58099998Y-36299500D01*
X58099980Y-36299501D01*
X57997203Y-36310000D01*
X57997200Y-36310001D01*
X57830668Y-36365185D01*
X57830666Y-36365185D01*
X57830666Y-36365186D01*
X57830663Y-36365188D01*
X57814594Y-36375099D01*
X57747201Y-36393537D01*
X57680538Y-36372612D01*
X57635770Y-36318969D01*
X57625500Y-36269558D01*
X57625500Y-35528351D01*
X57633558Y-35484379D01*
X57634828Y-35481031D01*
X57660688Y-35412845D01*
X57680461Y-35250000D01*
X57660688Y-35087155D01*
X57655097Y-35072415D01*
X57649731Y-35002753D01*
X57682878Y-34941246D01*
X57744016Y-34907425D01*
X57810044Y-34910738D01*
X57972302Y-34964505D01*
X57972309Y-34964506D01*
X58075019Y-34974999D01*
X58212499Y-34974999D01*
X58212500Y-34974998D01*
X58212500Y-34000000D01*
X57375001Y-34000000D01*
X57375001Y-34274986D01*
X57385494Y-34377697D01*
X57413943Y-34463549D01*
X57416345Y-34533377D01*
X57380613Y-34593419D01*
X57318093Y-34624612D01*
X57248634Y-34617052D01*
X57242953Y-34614386D01*
X57241294Y-34613757D01*
X57082022Y-34574500D01*
X57082021Y-34574500D01*
X56917979Y-34574500D01*
X56917978Y-34574500D01*
X56758708Y-34613756D01*
X56613451Y-34689993D01*
X56490672Y-34798766D01*
X56490666Y-34798773D01*
X56397483Y-34933771D01*
X56339312Y-35087154D01*
X56339311Y-35087157D01*
X56319539Y-35249999D01*
X56319539Y-35250000D01*
X56335808Y-35383992D01*
X56324347Y-35452915D01*
X56277443Y-35504701D01*
X56209988Y-35522908D01*
X56147616Y-35504477D01*
X56044128Y-35440645D01*
X56044119Y-35440641D01*
X55877697Y-35385494D01*
X55877690Y-35385493D01*
X55774986Y-35375000D01*
X55500000Y-35375000D01*
X55500000Y-36588500D01*
X55480315Y-36655539D01*
X55427511Y-36701294D01*
X55376000Y-36712500D01*
X55124000Y-36712500D01*
X55056961Y-36692815D01*
X55011206Y-36640011D01*
X55000000Y-36588500D01*
X54999999Y-35375000D01*
X54924500Y-35375000D01*
X54857461Y-35355315D01*
X54811706Y-35302511D01*
X54800500Y-35251000D01*
X54800500Y-34444270D01*
X54808557Y-34400301D01*
X54860688Y-34262845D01*
X54880461Y-34100000D01*
X54860688Y-33937155D01*
X54802518Y-33783774D01*
X54709332Y-33648771D01*
X54709329Y-33648768D01*
X54709327Y-33648766D01*
X54586548Y-33539993D01*
X54510348Y-33500000D01*
X57375000Y-33500000D01*
X58212500Y-33500000D01*
X58212500Y-32525000D01*
X58075027Y-32525000D01*
X58075012Y-32525001D01*
X57972302Y-32535494D01*
X57805880Y-32590641D01*
X57805875Y-32590643D01*
X57656654Y-32682684D01*
X57532684Y-32806654D01*
X57440643Y-32955875D01*
X57440641Y-32955880D01*
X57385494Y-33122302D01*
X57385493Y-33122309D01*
X57375000Y-33225013D01*
X57375000Y-33500000D01*
X54510348Y-33500000D01*
X54496090Y-33492517D01*
X54441295Y-33463758D01*
X54441294Y-33463757D01*
X54441291Y-33463756D01*
X54282022Y-33424500D01*
X54282021Y-33424500D01*
X54117979Y-33424500D01*
X54117978Y-33424500D01*
X53958708Y-33463756D01*
X53813451Y-33539993D01*
X53690672Y-33648766D01*
X53690666Y-33648773D01*
X53597483Y-33783771D01*
X53539312Y-33937154D01*
X53539311Y-33937157D01*
X53519539Y-34099999D01*
X53519539Y-34100000D01*
X53539311Y-34262842D01*
X53539312Y-34262845D01*
X53591442Y-34400301D01*
X53599500Y-34444270D01*
X53599500Y-37279151D01*
X53579815Y-37346190D01*
X53527011Y-37391945D01*
X53457853Y-37401889D01*
X53394297Y-37372864D01*
X53387819Y-37366832D01*
X53010076Y-36989089D01*
X52627072Y-36606085D01*
X52621732Y-36599995D01*
X52600034Y-36571718D01*
X52474593Y-36475464D01*
X52430712Y-36457288D01*
X52328514Y-36414956D01*
X52328512Y-36414955D01*
X52218709Y-36400500D01*
X52171752Y-36394318D01*
X52136422Y-36398969D01*
X52128324Y-36399500D01*
X51822008Y-36399500D01*
X51774558Y-36390062D01*
X51771975Y-36388992D01*
X51771970Y-36388990D01*
X51661910Y-36374501D01*
X51661907Y-36374500D01*
X51661901Y-36374500D01*
X51661894Y-36374500D01*
X51311999Y-36374500D01*
X51244960Y-36354815D01*
X51199205Y-36302011D01*
X51187999Y-36250500D01*
X51187999Y-36212596D01*
X51207684Y-36145557D01*
X51224313Y-36124920D01*
X51429293Y-35919940D01*
X51484289Y-35888925D01*
X51484281Y-35888902D01*
X51484435Y-35888843D01*
X51487304Y-35887225D01*
X51491295Y-35886242D01*
X51636546Y-35810008D01*
X51759332Y-35701229D01*
X51852518Y-35566226D01*
X51910688Y-35412845D01*
X51930461Y-35250000D01*
X51928707Y-35235558D01*
X51919112Y-35156533D01*
X51910688Y-35087155D01*
X51852518Y-34933774D01*
X51849361Y-34929201D01*
X51772406Y-34817712D01*
X51759332Y-34798771D01*
X51759329Y-34798768D01*
X51759327Y-34798766D01*
X51636548Y-34689993D01*
X51548194Y-34643621D01*
X51491295Y-34613758D01*
X51491294Y-34613757D01*
X51491291Y-34613756D01*
X51332022Y-34574500D01*
X51332021Y-34574500D01*
X51167979Y-34574500D01*
X51167977Y-34574500D01*
X51087030Y-34594451D01*
X51017228Y-34591381D01*
X50960166Y-34551061D01*
X50933961Y-34486292D01*
X50941413Y-34430087D01*
X50985688Y-34313345D01*
X51005461Y-34150500D01*
X51004320Y-34141107D01*
X50996233Y-34074499D01*
X50985688Y-33987655D01*
X50985687Y-33987653D01*
X50985687Y-33987651D01*
X50933558Y-33850200D01*
X50925500Y-33806229D01*
X50925500Y-32100000D01*
X66850000Y-32100000D01*
X66850000Y-32797844D01*
X66856401Y-32857372D01*
X66856403Y-32857379D01*
X66906645Y-32992086D01*
X66906649Y-32992093D01*
X66992809Y-33107187D01*
X66992812Y-33107190D01*
X67107906Y-33193350D01*
X67107913Y-33193354D01*
X67242620Y-33243596D01*
X67242627Y-33243598D01*
X67302155Y-33249999D01*
X67302172Y-33250000D01*
X68200000Y-33250000D01*
X68200000Y-32100000D01*
X68700000Y-32100000D01*
X68700000Y-33250000D01*
X69597828Y-33250000D01*
X69597844Y-33249999D01*
X69657372Y-33243598D01*
X69657379Y-33243596D01*
X69792086Y-33193354D01*
X69792093Y-33193350D01*
X69907187Y-33107190D01*
X69907190Y-33107187D01*
X69993350Y-32992093D01*
X69993354Y-32992086D01*
X70043596Y-32857379D01*
X70043598Y-32857372D01*
X70049999Y-32797844D01*
X70050000Y-32797827D01*
X70050000Y-32100000D01*
X68700000Y-32100000D01*
X68200000Y-32100000D01*
X66850000Y-32100000D01*
X50925500Y-32100000D01*
X50925500Y-32013767D01*
X50945185Y-31946728D01*
X50984401Y-31908230D01*
X51131156Y-31817712D01*
X51255212Y-31693656D01*
X51347314Y-31544334D01*
X51383379Y-31435494D01*
X51423152Y-31378051D01*
X51487667Y-31351228D01*
X51501085Y-31350500D01*
X52069699Y-31350500D01*
X52136738Y-31370185D01*
X52182493Y-31422989D01*
X52187403Y-31435492D01*
X52200661Y-31475500D01*
X52215185Y-31519331D01*
X52215187Y-31519336D01*
X52230604Y-31544331D01*
X52307288Y-31668656D01*
X52431344Y-31792712D01*
X52580666Y-31884814D01*
X52747203Y-31939999D01*
X52849991Y-31950500D01*
X53650008Y-31950499D01*
X53650016Y-31950498D01*
X53650019Y-31950498D01*
X53706302Y-31944748D01*
X53752797Y-31939999D01*
X53919334Y-31884814D01*
X54068656Y-31792712D01*
X54162319Y-31699048D01*
X54223642Y-31665564D01*
X54293334Y-31670548D01*
X54337681Y-31699049D01*
X54431344Y-31792712D01*
X54580666Y-31884814D01*
X54747203Y-31939999D01*
X54849991Y-31950500D01*
X55650008Y-31950499D01*
X55650016Y-31950498D01*
X55650019Y-31950498D01*
X55706302Y-31944748D01*
X55752797Y-31939999D01*
X55919334Y-31884814D01*
X56068656Y-31792712D01*
X56192712Y-31668656D01*
X56235059Y-31600000D01*
X66850000Y-31600000D01*
X68200000Y-31600000D01*
X68200000Y-30450000D01*
X68700000Y-30450000D01*
X68700000Y-31600000D01*
X70050000Y-31600000D01*
X70050000Y-30902172D01*
X70049999Y-30902155D01*
X70043598Y-30842627D01*
X70043596Y-30842620D01*
X69993354Y-30707913D01*
X69993350Y-30707906D01*
X69907190Y-30592812D01*
X69907187Y-30592809D01*
X69792093Y-30506649D01*
X69792086Y-30506645D01*
X69657379Y-30456403D01*
X69657372Y-30456401D01*
X69597844Y-30450000D01*
X68700000Y-30450000D01*
X68200000Y-30450000D01*
X67302155Y-30450000D01*
X67242627Y-30456401D01*
X67242620Y-30456403D01*
X67107913Y-30506645D01*
X67107906Y-30506649D01*
X66992812Y-30592809D01*
X66992809Y-30592812D01*
X66906649Y-30707906D01*
X66906645Y-30707913D01*
X66856403Y-30842620D01*
X66856401Y-30842627D01*
X66850000Y-30902155D01*
X66850000Y-31600000D01*
X56235059Y-31600000D01*
X56284814Y-31519334D01*
X56292934Y-31494828D01*
X56332707Y-31437384D01*
X56380964Y-31413436D01*
X56491295Y-31386242D01*
X56636546Y-31310008D01*
X56759332Y-31201229D01*
X56852518Y-31066226D01*
X56910688Y-30912845D01*
X56930461Y-30750000D01*
X56910688Y-30587155D01*
X56852518Y-30433774D01*
X56759332Y-30298771D01*
X56759329Y-30298768D01*
X56759327Y-30298766D01*
X56636548Y-30189993D01*
X56630266Y-30186696D01*
X56491295Y-30113758D01*
X56491291Y-30113757D01*
X56380964Y-30086563D01*
X56320584Y-30051406D01*
X56292934Y-30005171D01*
X56284814Y-29980666D01*
X56192712Y-29831344D01*
X56068656Y-29707288D01*
X55938856Y-29627227D01*
X55919336Y-29615187D01*
X55919331Y-29615185D01*
X55903644Y-29609987D01*
X55752797Y-29560001D01*
X55752795Y-29560000D01*
X55650010Y-29549500D01*
X54849998Y-29549500D01*
X54849980Y-29549501D01*
X54747203Y-29560000D01*
X54747200Y-29560001D01*
X54580668Y-29615185D01*
X54580663Y-29615187D01*
X54431342Y-29707289D01*
X54337681Y-29800951D01*
X54276358Y-29834436D01*
X54206666Y-29829452D01*
X54162319Y-29800951D01*
X54068657Y-29707289D01*
X54068656Y-29707288D01*
X53938856Y-29627227D01*
X53919336Y-29615187D01*
X53919331Y-29615185D01*
X53903644Y-29609987D01*
X53752797Y-29560001D01*
X53752795Y-29560000D01*
X53650010Y-29549500D01*
X52849998Y-29549500D01*
X52849980Y-29549501D01*
X52747203Y-29560000D01*
X52747200Y-29560001D01*
X52580668Y-29615185D01*
X52580663Y-29615187D01*
X52431342Y-29707289D01*
X52307289Y-29831342D01*
X52215187Y-29980663D01*
X52215185Y-29980668D01*
X52187405Y-30064504D01*
X52147632Y-30121949D01*
X52083116Y-30148772D01*
X52069699Y-30149500D01*
X51501085Y-30149500D01*
X51434046Y-30129815D01*
X51388291Y-30077011D01*
X51383379Y-30064504D01*
X51379039Y-30051406D01*
X51347314Y-29955666D01*
X51255212Y-29806344D01*
X51131156Y-29682288D01*
X51002494Y-29602929D01*
X50981836Y-29590187D01*
X50981831Y-29590185D01*
X50939793Y-29576255D01*
X50815297Y-29535001D01*
X50815295Y-29535000D01*
X50712510Y-29524500D01*
X49937498Y-29524500D01*
X49937480Y-29524501D01*
X49834703Y-29535000D01*
X49834700Y-29535001D01*
X49668168Y-29590185D01*
X49668163Y-29590187D01*
X49518842Y-29682289D01*
X49394788Y-29806343D01*
X49394783Y-29806349D01*
X49392741Y-29809661D01*
X49390747Y-29811453D01*
X49390307Y-29812011D01*
X49390211Y-29811935D01*
X49340791Y-29856383D01*
X49271828Y-29867602D01*
X49207747Y-29839755D01*
X49181668Y-29809656D01*
X49179819Y-29806659D01*
X49179816Y-29806655D01*
X49055845Y-29682684D01*
X48906624Y-29590643D01*
X48906619Y-29590641D01*
X48740197Y-29535494D01*
X48740190Y-29535493D01*
X48637486Y-29525000D01*
X48500000Y-29525000D01*
X48500000Y-31974999D01*
X48637472Y-31974999D01*
X48637486Y-31974998D01*
X48740197Y-31964505D01*
X48906619Y-31909358D01*
X48906624Y-31909356D01*
X49055845Y-31817315D01*
X49179818Y-31693342D01*
X49181665Y-31690348D01*
X49183469Y-31688724D01*
X49184298Y-31687677D01*
X49184476Y-31687818D01*
X49233610Y-31643621D01*
X49302573Y-31632396D01*
X49366656Y-31660236D01*
X49392743Y-31690341D01*
X49394788Y-31693656D01*
X49518844Y-31817712D01*
X49665597Y-31908229D01*
X49712321Y-31960175D01*
X49724500Y-32013767D01*
X49724500Y-32054790D01*
X49704815Y-32121829D01*
X49652011Y-32167584D01*
X49582853Y-32177528D01*
X49548327Y-32166352D01*
X49548303Y-32166416D01*
X49547020Y-32165929D01*
X49542882Y-32164590D01*
X49541299Y-32163759D01*
X49541294Y-32163757D01*
X49382022Y-32124500D01*
X49382021Y-32124500D01*
X49217979Y-32124500D01*
X49217978Y-32124500D01*
X49058708Y-32163756D01*
X48913451Y-32239993D01*
X48790672Y-32348766D01*
X48790666Y-32348773D01*
X48697481Y-32483774D01*
X48668840Y-32559291D01*
X48637699Y-32601212D01*
X48639961Y-32603474D01*
X48634220Y-32609214D01*
X48622492Y-32624500D01*
X48610050Y-32640715D01*
X48601407Y-32651978D01*
X48583838Y-32674873D01*
X48527409Y-32716074D01*
X48457663Y-32720226D01*
X48427840Y-32709180D01*
X48341293Y-32663757D01*
X48182022Y-32624500D01*
X48182021Y-32624500D01*
X48017979Y-32624500D01*
X48017978Y-32624500D01*
X47858708Y-32663756D01*
X47713451Y-32739993D01*
X47590672Y-32848766D01*
X47590666Y-32848773D01*
X47497483Y-32983771D01*
X47439312Y-33137154D01*
X47439311Y-33137157D01*
X47419539Y-33299999D01*
X47419539Y-33300000D01*
X47439311Y-33462842D01*
X47439312Y-33462845D01*
X47450911Y-33493430D01*
X47453942Y-33501420D01*
X47462000Y-33545392D01*
X47462000Y-35740492D01*
X47452562Y-35787942D01*
X47451492Y-35790524D01*
X47451490Y-35790529D01*
X47438540Y-35888902D01*
X47437000Y-35900599D01*
X47437000Y-36124915D01*
X47437001Y-36225500D01*
X47417317Y-36292539D01*
X47364513Y-36338294D01*
X47313001Y-36349500D01*
X46448506Y-36349500D01*
X46418832Y-36345897D01*
X46332021Y-36324500D01*
X46167979Y-36324500D01*
X46167978Y-36324500D01*
X46008708Y-36363756D01*
X45863451Y-36439993D01*
X45740672Y-36548766D01*
X45740666Y-36548773D01*
X45647482Y-36683772D01*
X45614728Y-36770138D01*
X45572549Y-36825840D01*
X45528463Y-36846562D01*
X45458707Y-36863756D01*
X45458704Y-36863757D01*
X45313455Y-36939990D01*
X45313453Y-36939992D01*
X45190672Y-37048766D01*
X45190666Y-37048773D01*
X45097483Y-37183771D01*
X45039312Y-37337154D01*
X45039311Y-37337157D01*
X45019539Y-37499999D01*
X45019539Y-37500000D01*
X45039311Y-37662842D01*
X45039312Y-37662845D01*
X45097483Y-37816228D01*
X45175710Y-37929560D01*
X45197593Y-37995915D01*
X45180127Y-38063567D01*
X45175710Y-38070440D01*
X45097483Y-38183771D01*
X45039312Y-38337154D01*
X45039311Y-38337157D01*
X45019539Y-38499999D01*
X45019539Y-38500000D01*
X45039311Y-38662842D01*
X45039312Y-38662845D01*
X45097483Y-38816229D01*
X45097484Y-38816230D01*
X45102246Y-38823129D01*
X45124128Y-38889484D01*
X45106662Y-38957135D01*
X45075682Y-38991943D01*
X44971717Y-39071718D01*
X44950019Y-39099994D01*
X44944668Y-39106096D01*
X44606096Y-39444668D01*
X44599994Y-39450019D01*
X44571716Y-39471718D01*
X44508367Y-39554279D01*
X44475464Y-39597158D01*
X44475462Y-39597161D01*
X44463561Y-39625894D01*
X44419719Y-39680298D01*
X44353425Y-39702362D01*
X44285726Y-39685082D01*
X44238116Y-39633945D01*
X44225000Y-39578441D01*
X44225000Y-39537500D01*
X43250000Y-39537500D01*
X43250000Y-40374999D01*
X43524972Y-40374999D01*
X43524986Y-40374998D01*
X43627697Y-40364505D01*
X43794119Y-40309358D01*
X43794124Y-40309356D01*
X43943345Y-40217315D01*
X44067315Y-40093345D01*
X44159356Y-39944124D01*
X44162408Y-39937579D01*
X44164815Y-39938701D01*
X44197561Y-39891400D01*
X44262076Y-39864573D01*
X44330852Y-39876884D01*
X44382055Y-39924424D01*
X44399500Y-39987844D01*
X44399500Y-42004091D01*
X44379815Y-42071130D01*
X44335731Y-42109641D01*
X44336813Y-42111395D01*
X44330667Y-42115185D01*
X44330666Y-42115186D01*
X44300128Y-42134022D01*
X44181345Y-42207287D01*
X44087327Y-42301305D01*
X44026003Y-42334789D01*
X43956312Y-42329805D01*
X43911965Y-42301304D01*
X43818345Y-42207684D01*
X43669124Y-42115643D01*
X43669119Y-42115641D01*
X43502697Y-42060494D01*
X43502690Y-42060493D01*
X43399986Y-42050000D01*
X43250000Y-42050000D01*
X43250000Y-44449999D01*
X42749999Y-44449999D01*
X42750000Y-44449998D01*
X42750000Y-42050000D01*
X42600027Y-42050000D01*
X42600012Y-42050001D01*
X42497302Y-42060494D01*
X42330880Y-42115641D01*
X42330868Y-42115647D01*
X42314594Y-42125685D01*
X42247202Y-42144124D01*
X42180538Y-42123200D01*
X42135770Y-42069557D01*
X42125500Y-42020145D01*
X42125500Y-40454443D01*
X42145185Y-40387404D01*
X42197989Y-40341649D01*
X42267147Y-40331705D01*
X42288504Y-40336737D01*
X42372302Y-40364505D01*
X42372309Y-40364506D01*
X42475019Y-40374999D01*
X42749999Y-40374999D01*
X42750000Y-40374998D01*
X42750000Y-39161500D01*
X42769685Y-39094461D01*
X42822489Y-39048706D01*
X42874000Y-39037500D01*
X44224998Y-39037500D01*
X44224999Y-38900028D01*
X44224998Y-38900013D01*
X44214505Y-38797302D01*
X44159358Y-38630880D01*
X44159356Y-38630875D01*
X44067315Y-38481654D01*
X43943344Y-38357683D01*
X43943341Y-38357681D01*
X43940339Y-38355829D01*
X43938713Y-38354021D01*
X43937677Y-38353202D01*
X43937817Y-38353024D01*
X43893617Y-38303880D01*
X43882397Y-38234917D01*
X43910243Y-38170836D01*
X43940344Y-38144754D01*
X43943656Y-38142712D01*
X44067712Y-38018656D01*
X44159814Y-37869334D01*
X44214999Y-37702797D01*
X44225500Y-37600009D01*
X44225499Y-36824992D01*
X44219813Y-36769334D01*
X44214999Y-36722203D01*
X44214998Y-36722200D01*
X44193024Y-36655887D01*
X44159814Y-36555666D01*
X44067712Y-36406344D01*
X43943656Y-36282288D01*
X43794334Y-36190186D01*
X43794333Y-36190185D01*
X43794332Y-36190185D01*
X43763732Y-36180045D01*
X43741458Y-36172664D01*
X43684014Y-36132892D01*
X43664571Y-36093705D01*
X43663348Y-36094169D01*
X43660688Y-36087155D01*
X43602518Y-35933774D01*
X43509332Y-35798771D01*
X43509329Y-35798768D01*
X43509327Y-35798766D01*
X43386548Y-35689993D01*
X43334822Y-35662845D01*
X43241295Y-35613758D01*
X43241294Y-35613757D01*
X43241291Y-35613756D01*
X43082022Y-35574500D01*
X43082021Y-35574500D01*
X42917979Y-35574500D01*
X42917978Y-35574500D01*
X42758706Y-35613757D01*
X42655968Y-35667678D01*
X42587459Y-35681402D01*
X42522406Y-35655910D01*
X42481463Y-35599294D01*
X42475247Y-35542937D01*
X42480461Y-35500000D01*
X42460688Y-35337155D01*
X42402518Y-35183774D01*
X42309332Y-35048771D01*
X42309329Y-35048768D01*
X42309327Y-35048766D01*
X42186548Y-34939993D01*
X42041291Y-34863756D01*
X41882022Y-34824500D01*
X41882021Y-34824500D01*
X41717979Y-34824500D01*
X41717978Y-34824500D01*
X41558708Y-34863756D01*
X41413451Y-34939993D01*
X41290672Y-35048766D01*
X41290666Y-35048773D01*
X41197481Y-35183775D01*
X41164451Y-35270864D01*
X41136191Y-35314572D01*
X41131096Y-35319668D01*
X41124994Y-35325019D01*
X41096716Y-35346719D01*
X41048911Y-35409021D01*
X40992483Y-35450224D01*
X40922737Y-35454379D01*
X40892909Y-35443332D01*
X40886547Y-35439993D01*
X40886546Y-35439992D01*
X40741295Y-35363758D01*
X40741294Y-35363757D01*
X40741291Y-35363756D01*
X40582022Y-35324500D01*
X40582021Y-35324500D01*
X40417979Y-35324500D01*
X40410479Y-35324500D01*
X40410479Y-35322503D01*
X40351658Y-35312719D01*
X40299875Y-35265812D01*
X40287937Y-35240092D01*
X40284814Y-35230666D01*
X40192712Y-35081344D01*
X40068656Y-34957288D01*
X39919334Y-34865186D01*
X39752797Y-34810001D01*
X39752795Y-34810000D01*
X39650016Y-34799500D01*
X39650009Y-34799500D01*
X39024500Y-34799500D01*
X38957461Y-34779815D01*
X38911706Y-34727011D01*
X38900500Y-34675500D01*
X38900500Y-34074499D01*
X38920185Y-34007460D01*
X38972989Y-33961705D01*
X39024500Y-33950499D01*
X39650002Y-33950499D01*
X39650008Y-33950499D01*
X39752797Y-33939999D01*
X39919334Y-33884814D01*
X40068656Y-33792712D01*
X40192712Y-33668656D01*
X40284814Y-33519334D01*
X40287935Y-33509913D01*
X40327706Y-33452467D01*
X40392221Y-33425642D01*
X40410478Y-33425754D01*
X40410478Y-33425500D01*
X40582022Y-33425500D01*
X40741291Y-33386243D01*
X40741291Y-33386242D01*
X40741295Y-33386242D01*
X40886546Y-33310008D01*
X41009332Y-33201229D01*
X41102518Y-33066226D01*
X41160688Y-32912845D01*
X41180461Y-32750000D01*
X41179344Y-32740804D01*
X41166143Y-32632080D01*
X41160688Y-32587155D01*
X41102518Y-32433774D01*
X41009332Y-32298771D01*
X41009329Y-32298768D01*
X41009327Y-32298766D01*
X40886548Y-32189993D01*
X40805019Y-32147203D01*
X40741295Y-32113758D01*
X40741294Y-32113757D01*
X40741291Y-32113756D01*
X40582022Y-32074500D01*
X40582021Y-32074500D01*
X40417979Y-32074500D01*
X40410479Y-32074500D01*
X40410479Y-32072503D01*
X40351658Y-32062719D01*
X40299875Y-32015812D01*
X40287937Y-31990092D01*
X40284814Y-31980666D01*
X40192712Y-31831344D01*
X40068656Y-31707288D01*
X39919334Y-31615186D01*
X39752797Y-31560001D01*
X39752795Y-31560000D01*
X39650010Y-31549500D01*
X38849998Y-31549500D01*
X38849980Y-31549501D01*
X38747203Y-31560000D01*
X38747200Y-31560001D01*
X38580668Y-31615185D01*
X38580663Y-31615187D01*
X38431342Y-31707289D01*
X38337681Y-31800951D01*
X38276358Y-31834436D01*
X38206666Y-31829452D01*
X38162319Y-31800951D01*
X38068657Y-31707289D01*
X38068656Y-31707288D01*
X37919334Y-31615186D01*
X37752797Y-31560001D01*
X37752795Y-31560000D01*
X37650010Y-31549500D01*
X36849998Y-31549500D01*
X36849980Y-31549501D01*
X36747203Y-31560000D01*
X36747200Y-31560001D01*
X36580668Y-31615185D01*
X36580663Y-31615187D01*
X36431342Y-31707289D01*
X36307289Y-31831342D01*
X36215187Y-31980663D01*
X36215185Y-31980668D01*
X36194190Y-32044028D01*
X36160001Y-32147203D01*
X36160001Y-32147204D01*
X36160000Y-32147204D01*
X36149500Y-32249983D01*
X36149500Y-32249991D01*
X36149500Y-32749999D01*
X36149501Y-33250000D01*
X36149501Y-33250019D01*
X36160000Y-33352796D01*
X36160001Y-33352799D01*
X36215185Y-33519331D01*
X36215187Y-33519336D01*
X36235410Y-33552123D01*
X36307288Y-33668656D01*
X36431344Y-33792712D01*
X36580666Y-33884814D01*
X36747203Y-33939999D01*
X36849991Y-33950500D01*
X37549902Y-33950499D01*
X37616941Y-33970183D01*
X37637583Y-33986818D01*
X37663181Y-34012416D01*
X37696666Y-34073739D01*
X37699500Y-34100097D01*
X37699500Y-34675500D01*
X37679815Y-34742539D01*
X37627011Y-34788294D01*
X37575500Y-34799500D01*
X36849998Y-34799500D01*
X36849980Y-34799501D01*
X36747203Y-34810000D01*
X36747200Y-34810001D01*
X36580668Y-34865185D01*
X36580663Y-34865187D01*
X36431342Y-34957289D01*
X36307289Y-35081342D01*
X36215184Y-35230669D01*
X36215182Y-35230673D01*
X36211509Y-35241757D01*
X36171733Y-35299200D01*
X36123482Y-35323143D01*
X35958708Y-35363757D01*
X35958707Y-35363757D01*
X35958705Y-35363758D01*
X35920153Y-35383992D01*
X35813451Y-35439993D01*
X35806726Y-35445952D01*
X35743493Y-35475673D01*
X35674230Y-35466489D01*
X35620927Y-35421316D01*
X35600507Y-35354497D01*
X35600500Y-35353136D01*
X35600500Y-30500000D01*
X40875001Y-30500000D01*
X40875001Y-30774986D01*
X40885494Y-30877697D01*
X40940641Y-31044119D01*
X40940643Y-31044124D01*
X41032684Y-31193345D01*
X41156654Y-31317315D01*
X41305875Y-31409356D01*
X41305880Y-31409358D01*
X41472302Y-31464505D01*
X41472309Y-31464506D01*
X41575019Y-31474999D01*
X41712499Y-31474999D01*
X42212500Y-31474999D01*
X42349972Y-31474999D01*
X42349986Y-31474998D01*
X42452697Y-31464505D01*
X42619119Y-31409358D01*
X42619124Y-31409356D01*
X42768345Y-31317315D01*
X42892318Y-31193342D01*
X42894165Y-31190348D01*
X42895969Y-31188724D01*
X42896798Y-31187677D01*
X42896976Y-31187818D01*
X42946110Y-31143621D01*
X43015073Y-31132396D01*
X43079156Y-31160236D01*
X43105243Y-31190341D01*
X43107288Y-31193656D01*
X43231344Y-31317712D01*
X43380666Y-31409814D01*
X43547203Y-31464999D01*
X43649991Y-31475500D01*
X44425008Y-31475499D01*
X44425016Y-31475498D01*
X44425019Y-31475498D01*
X44481302Y-31469748D01*
X44527797Y-31464999D01*
X44694334Y-31409814D01*
X44843656Y-31317712D01*
X44967712Y-31193656D01*
X45059814Y-31044334D01*
X45074504Y-31000000D01*
X47162501Y-31000000D01*
X47162501Y-31274986D01*
X47172994Y-31377697D01*
X47228141Y-31544119D01*
X47228143Y-31544124D01*
X47320184Y-31693345D01*
X47444154Y-31817315D01*
X47593375Y-31909356D01*
X47593380Y-31909358D01*
X47759802Y-31964505D01*
X47759809Y-31964506D01*
X47862519Y-31974999D01*
X47999999Y-31974999D01*
X48000000Y-31974998D01*
X48000000Y-31000000D01*
X47162501Y-31000000D01*
X45074504Y-31000000D01*
X45079311Y-30985493D01*
X45119084Y-30928051D01*
X45183600Y-30901228D01*
X45197017Y-30900500D01*
X45301494Y-30900500D01*
X45331167Y-30904102D01*
X45417979Y-30925500D01*
X45417980Y-30925500D01*
X45582022Y-30925500D01*
X45741291Y-30886243D01*
X45741291Y-30886242D01*
X45741295Y-30886242D01*
X45886546Y-30810008D01*
X46009332Y-30701229D01*
X46102518Y-30566226D01*
X46127634Y-30500000D01*
X47162500Y-30500000D01*
X48000000Y-30500000D01*
X48000000Y-29525000D01*
X47862527Y-29525000D01*
X47862512Y-29525001D01*
X47759802Y-29535494D01*
X47593380Y-29590641D01*
X47593375Y-29590643D01*
X47444154Y-29682684D01*
X47320184Y-29806654D01*
X47228143Y-29955875D01*
X47228141Y-29955880D01*
X47172994Y-30122302D01*
X47172993Y-30122309D01*
X47162500Y-30225013D01*
X47162500Y-30500000D01*
X46127634Y-30500000D01*
X46160688Y-30412845D01*
X46180461Y-30250000D01*
X46160688Y-30087155D01*
X46102518Y-29933774D01*
X46009332Y-29798771D01*
X46009329Y-29798768D01*
X46009327Y-29798766D01*
X45886548Y-29689993D01*
X45757574Y-29622302D01*
X45741295Y-29613758D01*
X45741294Y-29613757D01*
X45741291Y-29613756D01*
X45582022Y-29574500D01*
X45582021Y-29574500D01*
X45417979Y-29574500D01*
X45331167Y-29595897D01*
X45301494Y-29599500D01*
X45197017Y-29599500D01*
X45129978Y-29579815D01*
X45084223Y-29527011D01*
X45079311Y-29514505D01*
X45059814Y-29455666D01*
X44967712Y-29306344D01*
X44843656Y-29182288D01*
X44746902Y-29122610D01*
X44700179Y-29070663D01*
X44688000Y-29017072D01*
X44688000Y-27982927D01*
X44707685Y-27915888D01*
X44746901Y-27877390D01*
X44843656Y-27817712D01*
X44967712Y-27693656D01*
X44967712Y-27693655D01*
X44972819Y-27688549D01*
X44974705Y-27690435D01*
X45021625Y-27657212D01*
X45061868Y-27650500D01*
X45801494Y-27650500D01*
X45831167Y-27654102D01*
X45917979Y-27675500D01*
X45917980Y-27675500D01*
X46082023Y-27675500D01*
X46082025Y-27675499D01*
X46160393Y-27656183D01*
X46230195Y-27659251D01*
X46287257Y-27699570D01*
X46313427Y-27763976D01*
X46322501Y-27852797D01*
X46322501Y-27852799D01*
X46343407Y-27915888D01*
X46377686Y-28019334D01*
X46469788Y-28168656D01*
X46593844Y-28292712D01*
X46743166Y-28384814D01*
X46909703Y-28439999D01*
X47012491Y-28450500D01*
X47837508Y-28450499D01*
X47837516Y-28450498D01*
X47837519Y-28450498D01*
X47893802Y-28444748D01*
X47940297Y-28439999D01*
X48106834Y-28384814D01*
X48256156Y-28292712D01*
X48380212Y-28168656D01*
X48472314Y-28019334D01*
X48527499Y-27852797D01*
X48538000Y-27750009D01*
X48538000Y-27750001D01*
X49637000Y-27750001D01*
X49637001Y-27750018D01*
X49647500Y-27852796D01*
X49647501Y-27852799D01*
X49668407Y-27915888D01*
X49702686Y-28019334D01*
X49794788Y-28168656D01*
X49918844Y-28292712D01*
X50068166Y-28384814D01*
X50234703Y-28439999D01*
X50337491Y-28450500D01*
X51162508Y-28450499D01*
X51162516Y-28450498D01*
X51162519Y-28450498D01*
X51218802Y-28444748D01*
X51265297Y-28439999D01*
X51431834Y-28384814D01*
X51581156Y-28292712D01*
X51705212Y-28168656D01*
X51797314Y-28019334D01*
X51852499Y-27852797D01*
X51862731Y-27752633D01*
X51889128Y-27687942D01*
X51946309Y-27647790D01*
X51956416Y-27644839D01*
X51971646Y-27641085D01*
X51991295Y-27636242D01*
X52136546Y-27560008D01*
X52259332Y-27451229D01*
X52352518Y-27316226D01*
X52410688Y-27162845D01*
X52430461Y-27000000D01*
X52410688Y-26837155D01*
X52352518Y-26683774D01*
X52259332Y-26548771D01*
X52259329Y-26548768D01*
X52259327Y-26548766D01*
X52136546Y-26439992D01*
X52136544Y-26439990D01*
X51991297Y-26363758D01*
X51963490Y-26356904D01*
X51956411Y-26355159D01*
X51896032Y-26320003D01*
X51864244Y-26257783D01*
X51862731Y-26247376D01*
X51852499Y-26147203D01*
X51797314Y-25980666D01*
X51705212Y-25831344D01*
X51581156Y-25707288D01*
X51431834Y-25615186D01*
X51265297Y-25560001D01*
X51265295Y-25560000D01*
X51162510Y-25549500D01*
X50337498Y-25549500D01*
X50337480Y-25549501D01*
X50234703Y-25560000D01*
X50234700Y-25560001D01*
X50068168Y-25615185D01*
X50068163Y-25615187D01*
X49918842Y-25707289D01*
X49794789Y-25831342D01*
X49702687Y-25980663D01*
X49702685Y-25980666D01*
X49702686Y-25980666D01*
X49647501Y-26147203D01*
X49647501Y-26147204D01*
X49647500Y-26147204D01*
X49637000Y-26249983D01*
X49637000Y-27750001D01*
X48538000Y-27750001D01*
X48537999Y-26249992D01*
X48527499Y-26147203D01*
X48472314Y-25980666D01*
X48380212Y-25831344D01*
X48256156Y-25707288D01*
X48106834Y-25615186D01*
X47940297Y-25560001D01*
X47940295Y-25560000D01*
X47837510Y-25549500D01*
X47012498Y-25549500D01*
X47012480Y-25549501D01*
X46909703Y-25560000D01*
X46909700Y-25560001D01*
X46743168Y-25615185D01*
X46743163Y-25615187D01*
X46593842Y-25707289D01*
X46469789Y-25831342D01*
X46377687Y-25980663D01*
X46377685Y-25980666D01*
X46377686Y-25980666D01*
X46322501Y-26147203D01*
X46322501Y-26147204D01*
X46322500Y-26147204D01*
X46313426Y-26236024D01*
X46287029Y-26300715D01*
X46229848Y-26340866D01*
X46160393Y-26343817D01*
X46082022Y-26324500D01*
X46082021Y-26324500D01*
X45917979Y-26324500D01*
X45831167Y-26345897D01*
X45801494Y-26349500D01*
X45249499Y-26349500D01*
X45182460Y-26329815D01*
X45136705Y-26277011D01*
X45126068Y-26228120D01*
X45125659Y-26228141D01*
X45125532Y-26225653D01*
X45125499Y-26225500D01*
X45125499Y-26224998D01*
X45125498Y-26224981D01*
X45114999Y-26122203D01*
X45114998Y-26122200D01*
X45074961Y-26001377D01*
X45059814Y-25955666D01*
X44967712Y-25806344D01*
X44843656Y-25682288D01*
X44694334Y-25590186D01*
X44527797Y-25535001D01*
X44527795Y-25535000D01*
X44425010Y-25524500D01*
X43649998Y-25524500D01*
X43649980Y-25524501D01*
X43547203Y-25535000D01*
X43547200Y-25535001D01*
X43380668Y-25590185D01*
X43380663Y-25590187D01*
X43231342Y-25682289D01*
X43107288Y-25806343D01*
X43107283Y-25806349D01*
X43105241Y-25809661D01*
X43103247Y-25811453D01*
X43102807Y-25812011D01*
X43102711Y-25811935D01*
X43053291Y-25856383D01*
X42984328Y-25867602D01*
X42920247Y-25839755D01*
X42894168Y-25809656D01*
X42892319Y-25806659D01*
X42892316Y-25806655D01*
X42768345Y-25682684D01*
X42619124Y-25590643D01*
X42619119Y-25590641D01*
X42452697Y-25535494D01*
X42452690Y-25535493D01*
X42349986Y-25525000D01*
X42212500Y-25525000D01*
X42212500Y-27974999D01*
X42349972Y-27974999D01*
X42349986Y-27974998D01*
X42452697Y-27964505D01*
X42619119Y-27909358D01*
X42619124Y-27909356D01*
X42768345Y-27817315D01*
X42892318Y-27693342D01*
X42894165Y-27690348D01*
X42895969Y-27688724D01*
X42896798Y-27687677D01*
X42896976Y-27687818D01*
X42946110Y-27643621D01*
X43015073Y-27632396D01*
X43079156Y-27660236D01*
X43105243Y-27690341D01*
X43107288Y-27693656D01*
X43231344Y-27817712D01*
X43328097Y-27877389D01*
X43374821Y-27929335D01*
X43387000Y-27982927D01*
X43387000Y-29017072D01*
X43367315Y-29084111D01*
X43328098Y-29122609D01*
X43268555Y-29159336D01*
X43231342Y-29182289D01*
X43107288Y-29306343D01*
X43107283Y-29306349D01*
X43105241Y-29309661D01*
X43103247Y-29311453D01*
X43102807Y-29312011D01*
X43102711Y-29311935D01*
X43053291Y-29356383D01*
X42984328Y-29367602D01*
X42920247Y-29339755D01*
X42894168Y-29309656D01*
X42892319Y-29306659D01*
X42892316Y-29306655D01*
X42768345Y-29182684D01*
X42619124Y-29090643D01*
X42619119Y-29090641D01*
X42452697Y-29035494D01*
X42452690Y-29035493D01*
X42349986Y-29025000D01*
X42212500Y-29025000D01*
X42212500Y-31474999D01*
X41712499Y-31474999D01*
X41712500Y-31474998D01*
X41712500Y-30500000D01*
X40875001Y-30500000D01*
X35600500Y-30500000D01*
X35600500Y-30000000D01*
X40875000Y-30000000D01*
X41712500Y-30000000D01*
X41712500Y-29025000D01*
X41575027Y-29025000D01*
X41575012Y-29025001D01*
X41472302Y-29035494D01*
X41305880Y-29090641D01*
X41305875Y-29090643D01*
X41156654Y-29182684D01*
X41032684Y-29306654D01*
X40940643Y-29455875D01*
X40940641Y-29455880D01*
X40885494Y-29622302D01*
X40885493Y-29622309D01*
X40875000Y-29725013D01*
X40875000Y-30000000D01*
X35600500Y-30000000D01*
X35600500Y-28712230D01*
X35620185Y-28645191D01*
X35636819Y-28624549D01*
X35636818Y-28624549D01*
X35742712Y-28518656D01*
X35834814Y-28369334D01*
X35889999Y-28202797D01*
X35900500Y-28100009D01*
X35900499Y-27099992D01*
X35890285Y-27000000D01*
X40875001Y-27000000D01*
X40875001Y-27274986D01*
X40885494Y-27377697D01*
X40940641Y-27544119D01*
X40940643Y-27544124D01*
X41032684Y-27693345D01*
X41156654Y-27817315D01*
X41305875Y-27909356D01*
X41305880Y-27909358D01*
X41472302Y-27964505D01*
X41472309Y-27964506D01*
X41575019Y-27974999D01*
X41712499Y-27974999D01*
X41712500Y-27974998D01*
X41712500Y-27000000D01*
X40875001Y-27000000D01*
X35890285Y-27000000D01*
X35889999Y-26997203D01*
X35834814Y-26830666D01*
X35742712Y-26681344D01*
X35618656Y-26557288D01*
X35525777Y-26500000D01*
X40875000Y-26500000D01*
X41712500Y-26500000D01*
X41712500Y-25525000D01*
X41575027Y-25525000D01*
X41575012Y-25525001D01*
X41472302Y-25535494D01*
X41305880Y-25590641D01*
X41305875Y-25590643D01*
X41156654Y-25682684D01*
X41032684Y-25806654D01*
X40940643Y-25955875D01*
X40940641Y-25955880D01*
X40885494Y-26122302D01*
X40885493Y-26122309D01*
X40875000Y-26225013D01*
X40875000Y-26500000D01*
X35525777Y-26500000D01*
X35469334Y-26465186D01*
X35302797Y-26410001D01*
X35302795Y-26410000D01*
X35200010Y-26399500D01*
X34399998Y-26399500D01*
X34399980Y-26399501D01*
X34297203Y-26410000D01*
X34297200Y-26410001D01*
X34130668Y-26465185D01*
X34130663Y-26465187D01*
X33981342Y-26557289D01*
X33887681Y-26650951D01*
X33826358Y-26684436D01*
X33756666Y-26679452D01*
X33712319Y-26650951D01*
X33618657Y-26557289D01*
X33618656Y-26557288D01*
X33469334Y-26465186D01*
X33302797Y-26410001D01*
X33302795Y-26410000D01*
X33200010Y-26399500D01*
X32399998Y-26399500D01*
X32399980Y-26399501D01*
X32297203Y-26410000D01*
X32297200Y-26410001D01*
X32130668Y-26465185D01*
X32130663Y-26465187D01*
X31981342Y-26557289D01*
X31857289Y-26681342D01*
X31765187Y-26830663D01*
X31765185Y-26830668D01*
X31763035Y-26837157D01*
X31710001Y-26997203D01*
X31710001Y-26997204D01*
X31710000Y-26997204D01*
X31699500Y-27099983D01*
X31699500Y-28100001D01*
X31699501Y-28100019D01*
X31710000Y-28202796D01*
X31710001Y-28202799D01*
X31739795Y-28292710D01*
X31765186Y-28369334D01*
X31857288Y-28518656D01*
X31981344Y-28642712D01*
X31988086Y-28646871D01*
X32034812Y-28698818D01*
X32046035Y-28767780D01*
X32018192Y-28831863D01*
X32010672Y-28840091D01*
X28538559Y-32312204D01*
X28477236Y-32345689D01*
X28407544Y-32340705D01*
X28351611Y-32298833D01*
X28327194Y-32233369D01*
X28329987Y-32196930D01*
X28364886Y-32044025D01*
X28385047Y-31775004D01*
X28385047Y-31774995D01*
X28364886Y-31505973D01*
X28364886Y-31505971D01*
X28304857Y-31242966D01*
X28304851Y-31242947D01*
X28206290Y-30991818D01*
X28206291Y-30991818D01*
X28071397Y-30758177D01*
X28017704Y-30690847D01*
X28017703Y-30690847D01*
X27406609Y-31301942D01*
X27345286Y-31335427D01*
X27275594Y-31330443D01*
X27219661Y-31288571D01*
X27213942Y-31280244D01*
X27209423Y-31273052D01*
X27081948Y-31145577D01*
X27074764Y-31141063D01*
X27028474Y-31088730D01*
X27017825Y-31019676D01*
X27046200Y-30955828D01*
X27053056Y-30948389D01*
X27665150Y-30336296D01*
X27482517Y-30211779D01*
X27482516Y-30211778D01*
X27239460Y-30094730D01*
X27239462Y-30094730D01*
X26981662Y-30015209D01*
X26981656Y-30015207D01*
X26714898Y-29975000D01*
X26445101Y-29975000D01*
X26178343Y-30015207D01*
X26178337Y-30015209D01*
X25920538Y-30094730D01*
X25677485Y-30211778D01*
X25677476Y-30211783D01*
X25494848Y-30336296D01*
X26106942Y-30948389D01*
X26140427Y-31009712D01*
X26135443Y-31079403D01*
X26093572Y-31135337D01*
X26085236Y-31141062D01*
X26078054Y-31145574D01*
X25950574Y-31273054D01*
X25946062Y-31280236D01*
X25893726Y-31326526D01*
X25824672Y-31337172D01*
X25760825Y-31308795D01*
X25753389Y-31301942D01*
X25142295Y-30690848D01*
X25088600Y-30758180D01*
X24953709Y-30991818D01*
X24855148Y-31242947D01*
X24855142Y-31242966D01*
X24795113Y-31505971D01*
X24795113Y-31505973D01*
X24774953Y-31774995D01*
X24774953Y-31775004D01*
X24795113Y-32044026D01*
X24795113Y-32044028D01*
X24828153Y-32188788D01*
X24823879Y-32258527D01*
X24782581Y-32314884D01*
X24717368Y-32339967D01*
X24648948Y-32325812D01*
X24638843Y-32319796D01*
X24450359Y-32195096D01*
X24201779Y-32078567D01*
X24054362Y-32034216D01*
X23938879Y-31999472D01*
X23805915Y-31979904D01*
X23667269Y-31959500D01*
X23461453Y-31959500D01*
X23461448Y-31959500D01*
X23256195Y-31974523D01*
X23256185Y-31974524D01*
X22988229Y-32034214D01*
X22988224Y-32034216D01*
X22731799Y-32132290D01*
X22492392Y-32266652D01*
X22492387Y-32266655D01*
X22275097Y-32434441D01*
X22275088Y-32434450D01*
X22084549Y-32632080D01*
X22084547Y-32632082D01*
X21924805Y-32855361D01*
X21924802Y-32855366D01*
X21799275Y-33099515D01*
X21799271Y-33099525D01*
X21710632Y-33359344D01*
X21710629Y-33359358D01*
X21660765Y-33629314D01*
X21660763Y-33629334D01*
X21650737Y-33903678D01*
X21680762Y-34176559D01*
X21680763Y-34176569D01*
X21750202Y-34442178D01*
X21857068Y-34693656D01*
X21857577Y-34694852D01*
X21987308Y-34907425D01*
X22000592Y-34929191D01*
X22000599Y-34929201D01*
X22176199Y-35140207D01*
X22176204Y-35140212D01*
X22176209Y-35140218D01*
X22176216Y-35140224D01*
X22380672Y-35323419D01*
X22380674Y-35323420D01*
X22380677Y-35323423D01*
X22609641Y-35474904D01*
X22858221Y-35591433D01*
X23121119Y-35670527D01*
X23392731Y-35710500D01*
X23392736Y-35710500D01*
X23598552Y-35710500D01*
X23650744Y-35706679D01*
X23803805Y-35695477D01*
X24071775Y-35635784D01*
X24328198Y-35537711D01*
X24567609Y-35403347D01*
X24784904Y-35235557D01*
X24975454Y-35037916D01*
X25135196Y-34814637D01*
X25260727Y-34570479D01*
X25344707Y-34324314D01*
X25349367Y-34310655D01*
X25349367Y-34310654D01*
X25349370Y-34310646D01*
X25399236Y-34040674D01*
X25409262Y-33766320D01*
X25379236Y-33493429D01*
X25348912Y-33377438D01*
X25351000Y-33307600D01*
X25390514Y-33249977D01*
X25454909Y-33222865D01*
X25523739Y-33234870D01*
X25538732Y-33243621D01*
X25677483Y-33338220D01*
X25677485Y-33338221D01*
X25920539Y-33455269D01*
X25920537Y-33455269D01*
X26178337Y-33534790D01*
X26178343Y-33534792D01*
X26445101Y-33574999D01*
X26445110Y-33575000D01*
X26714890Y-33575000D01*
X26714898Y-33574999D01*
X26981656Y-33534792D01*
X26981666Y-33534789D01*
X26987310Y-33533049D01*
X27057174Y-33532097D01*
X27116461Y-33569068D01*
X27146348Y-33632222D01*
X27137347Y-33701510D01*
X27111543Y-33739220D01*
X24777585Y-36073180D01*
X24716262Y-36106665D01*
X24689904Y-36109499D01*
X21706608Y-36109499D01*
X21639569Y-36089814D01*
X21593814Y-36037010D01*
X21583032Y-35975259D01*
X21600454Y-35765005D01*
X21600454Y-35764993D01*
X21580673Y-35526270D01*
X21580672Y-35526267D01*
X21580672Y-35526263D01*
X21521864Y-35294038D01*
X21425636Y-35074660D01*
X21294612Y-34874113D01*
X21132366Y-34697866D01*
X21038249Y-34624612D01*
X20943331Y-34550734D01*
X20943325Y-34550730D01*
X20732642Y-34436713D01*
X20732637Y-34436711D01*
X20506067Y-34358930D01*
X20298584Y-34324307D01*
X20269778Y-34319500D01*
X20030222Y-34319500D01*
X20001416Y-34324307D01*
X19863034Y-34347399D01*
X19793669Y-34339017D01*
X19739847Y-34294464D01*
X19718656Y-34227886D01*
X19736824Y-34160419D01*
X19751387Y-34141115D01*
X19774612Y-34115887D01*
X19905636Y-33915340D01*
X20001864Y-33695962D01*
X20060672Y-33463737D01*
X20061869Y-33449297D01*
X20080454Y-33225006D01*
X20080454Y-33224993D01*
X20060673Y-32986270D01*
X20060672Y-32986267D01*
X20060672Y-32986263D01*
X20001864Y-32754038D01*
X19905636Y-32534660D01*
X19774612Y-32334113D01*
X19612366Y-32157866D01*
X19555693Y-32113756D01*
X19423331Y-32010734D01*
X19423325Y-32010730D01*
X19212642Y-31896713D01*
X19212637Y-31896711D01*
X18986067Y-31818930D01*
X18828540Y-31792643D01*
X18749778Y-31779500D01*
X18510222Y-31779500D01*
X18451150Y-31789357D01*
X18273932Y-31818930D01*
X18047362Y-31896711D01*
X18047357Y-31896713D01*
X17836674Y-32010730D01*
X17836668Y-32010734D01*
X17647641Y-32157860D01*
X17647631Y-32157869D01*
X17485385Y-32334116D01*
X17354362Y-32534663D01*
X17258136Y-32754036D01*
X17199328Y-32986262D01*
X17199326Y-32986270D01*
X17179546Y-33224993D01*
X17179546Y-33225006D01*
X17199326Y-33463729D01*
X17199328Y-33463737D01*
X17258136Y-33695963D01*
X17349249Y-33903680D01*
X17354364Y-33915340D01*
X17434722Y-34038337D01*
X17485207Y-34115611D01*
X17485388Y-34115887D01*
X17647634Y-34292134D01*
X17674885Y-34313344D01*
X17836668Y-34439265D01*
X17836674Y-34439269D01*
X17836677Y-34439271D01*
X18006186Y-34531005D01*
X18045215Y-34552127D01*
X18047359Y-34553287D01*
X18097423Y-34570474D01*
X18223503Y-34613757D01*
X18273935Y-34631070D01*
X18510222Y-34670500D01*
X18510223Y-34670500D01*
X18749776Y-34670500D01*
X18749778Y-34670500D01*
X18916967Y-34642600D01*
X18986330Y-34650982D01*
X19040152Y-34695534D01*
X19061343Y-34762113D01*
X19043176Y-34829579D01*
X19028608Y-34848889D01*
X19005385Y-34874116D01*
X18874362Y-35074663D01*
X18778136Y-35294036D01*
X18719328Y-35526262D01*
X18719326Y-35526270D01*
X18699546Y-35764993D01*
X18699546Y-35765006D01*
X18719326Y-36003729D01*
X18719328Y-36003737D01*
X18778136Y-36235963D01*
X18872561Y-36451229D01*
X18874364Y-36455340D01*
X18942747Y-36560008D01*
X19005160Y-36655539D01*
X19005388Y-36655887D01*
X19167634Y-36832134D01*
X19208262Y-36863756D01*
X19356668Y-36979265D01*
X19356674Y-36979269D01*
X19356677Y-36979271D01*
X19567359Y-37093287D01*
X19793935Y-37171070D01*
X20030222Y-37210500D01*
X20030223Y-37210500D01*
X20269777Y-37210500D01*
X20269778Y-37210500D01*
X20506065Y-37171070D01*
X20583632Y-37144441D01*
X20653431Y-37141291D01*
X20699382Y-37163346D01*
X20711195Y-37172410D01*
X20760835Y-37210500D01*
X20792158Y-37234535D01*
X20792161Y-37234536D01*
X20792162Y-37234537D01*
X20865197Y-37264788D01*
X20938237Y-37295043D01*
X20988157Y-37301615D01*
X21094998Y-37315681D01*
X21094999Y-37315681D01*
X21130328Y-37311029D01*
X21138427Y-37310499D01*
X24946573Y-37310499D01*
X24954671Y-37311029D01*
X24990001Y-37315681D01*
X24990002Y-37315681D01*
X25042254Y-37308801D01*
X25146763Y-37295043D01*
X25292842Y-37234535D01*
X25324165Y-37210500D01*
X25418283Y-37138281D01*
X25439984Y-37109998D01*
X25445312Y-37103921D01*
X28207821Y-34341412D01*
X28269142Y-34307929D01*
X28338834Y-34312913D01*
X28394767Y-34354785D01*
X28419184Y-34420249D01*
X28419500Y-34429095D01*
X28419500Y-36102870D01*
X28419501Y-36102876D01*
X28425908Y-36162483D01*
X28476202Y-36297328D01*
X28476206Y-36297335D01*
X28562452Y-36412544D01*
X28562455Y-36412547D01*
X28677664Y-36498793D01*
X28677671Y-36498797D01*
X28710271Y-36510956D01*
X28766204Y-36552827D01*
X28790622Y-36618291D01*
X28775771Y-36686564D01*
X28758169Y-36711120D01*
X28721430Y-36751029D01*
X28721427Y-36751033D01*
X28589951Y-36952270D01*
X28493389Y-37172410D01*
X28434379Y-37405440D01*
X28414529Y-37644994D01*
X28414529Y-37645005D01*
X28434379Y-37884559D01*
X28493389Y-38117589D01*
X28589951Y-38337729D01*
X28704626Y-38513250D01*
X28721429Y-38538969D01*
X28884236Y-38715825D01*
X28945223Y-38763293D01*
X29014414Y-38817147D01*
X29055227Y-38873857D01*
X29058901Y-38943630D01*
X29024269Y-39004313D01*
X29014414Y-39012853D01*
X28884238Y-39114173D01*
X28721430Y-39291029D01*
X28721427Y-39291033D01*
X28589951Y-39492270D01*
X28493389Y-39712410D01*
X28434379Y-39945440D01*
X28414529Y-40184994D01*
X28414529Y-40185005D01*
X28434379Y-40424559D01*
X28493389Y-40657589D01*
X28589951Y-40877729D01*
X28668306Y-40997659D01*
X28721429Y-41078969D01*
X28884236Y-41255825D01*
X28941637Y-41300502D01*
X29014414Y-41357147D01*
X29055227Y-41413857D01*
X29058901Y-41483630D01*
X29024269Y-41544313D01*
X29014414Y-41552853D01*
X28884238Y-41654173D01*
X28721430Y-41831029D01*
X28721427Y-41831033D01*
X28589951Y-42032270D01*
X28493389Y-42252410D01*
X28434379Y-42485440D01*
X28414529Y-42724994D01*
X28414529Y-42725005D01*
X28434379Y-42964559D01*
X28493389Y-43197589D01*
X28589951Y-43417729D01*
X28718024Y-43613758D01*
X28721429Y-43618969D01*
X28884236Y-43795825D01*
X28884239Y-43795827D01*
X28884242Y-43795830D01*
X29073924Y-43943466D01*
X29073930Y-43943470D01*
X29073933Y-43943472D01*
X29169158Y-43995005D01*
X29274711Y-44052128D01*
X29285344Y-44057882D01*
X29285347Y-44057883D01*
X29512699Y-44135933D01*
X29512701Y-44135933D01*
X29512703Y-44135934D01*
X29749808Y-44175500D01*
X29749809Y-44175500D01*
X29990191Y-44175500D01*
X29990192Y-44175500D01*
X30227297Y-44135934D01*
X30454656Y-44057882D01*
X30666067Y-43943472D01*
X30756434Y-43873135D01*
X30821426Y-43847494D01*
X30889966Y-43861060D01*
X30940291Y-43909528D01*
X30956423Y-43977510D01*
X30956172Y-43981226D01*
X30955031Y-43995000D01*
X30955031Y-43995005D01*
X30974874Y-44234476D01*
X31033865Y-44467428D01*
X31130391Y-44687485D01*
X31222688Y-44828756D01*
X31834814Y-44216631D01*
X31896137Y-44183146D01*
X31965829Y-44188130D01*
X32019443Y-44227000D01*
X32071844Y-44292710D01*
X32100465Y-44328599D01*
X32172725Y-44377865D01*
X32217026Y-44431893D01*
X32225085Y-44501296D01*
X32194342Y-44564039D01*
X32190553Y-44567999D01*
X31575572Y-45182979D01*
X31575573Y-45182980D01*
X31614204Y-45213048D01*
X31614205Y-45213049D01*
X31825544Y-45327421D01*
X31825550Y-45327423D01*
X32052823Y-45405446D01*
X32289851Y-45445000D01*
X32530149Y-45445000D01*
X32767176Y-45405446D01*
X32994449Y-45327423D01*
X32994455Y-45327421D01*
X33205795Y-45213049D01*
X33205798Y-45213047D01*
X33244425Y-45182980D01*
X33244425Y-45182979D01*
X32632057Y-44570610D01*
X32598572Y-44509287D01*
X32603556Y-44439595D01*
X32645428Y-44383662D01*
X32665930Y-44371212D01*
X32666357Y-44371007D01*
X32765798Y-44278740D01*
X32788032Y-44240228D01*
X32838599Y-44192013D01*
X32907206Y-44178789D01*
X32972071Y-44204757D01*
X32983101Y-44214547D01*
X33597310Y-44828757D01*
X33689606Y-44687490D01*
X33786134Y-44467428D01*
X33845125Y-44234476D01*
X33864969Y-43995005D01*
X33864969Y-43994994D01*
X33845125Y-43755523D01*
X33786134Y-43522571D01*
X33689608Y-43302514D01*
X33597310Y-43161241D01*
X32985184Y-43773367D01*
X32923861Y-43806852D01*
X32854169Y-43801868D01*
X32800555Y-43762998D01*
X32790202Y-43750016D01*
X32751297Y-43701229D01*
X32719535Y-43661400D01*
X32719533Y-43661399D01*
X32647274Y-43612133D01*
X32602972Y-43558104D01*
X32594914Y-43488701D01*
X32625657Y-43425958D01*
X32629445Y-43421999D01*
X33244426Y-42807019D01*
X33243564Y-42793138D01*
X33224364Y-42766459D01*
X33220691Y-42696686D01*
X33255322Y-42636003D01*
X33265165Y-42627473D01*
X33395764Y-42525825D01*
X33558571Y-42348969D01*
X33690049Y-42147728D01*
X33786610Y-41927591D01*
X33845620Y-41694563D01*
X33854442Y-41588090D01*
X33865471Y-41455005D01*
X33865471Y-41454994D01*
X33848967Y-41255825D01*
X33845620Y-41215437D01*
X33786610Y-40982409D01*
X33690049Y-40762272D01*
X33682031Y-40750000D01*
X33603510Y-40629815D01*
X33558571Y-40561031D01*
X33395764Y-40384175D01*
X33265585Y-40282852D01*
X33224773Y-40226143D01*
X33221098Y-40156370D01*
X33255730Y-40095687D01*
X33265579Y-40087151D01*
X33395764Y-39985825D01*
X33558571Y-39808969D01*
X33690049Y-39607728D01*
X33786610Y-39387591D01*
X33845620Y-39154563D01*
X33855320Y-39037500D01*
X33865471Y-38915005D01*
X33865471Y-38914994D01*
X33845620Y-38675440D01*
X33845620Y-38675437D01*
X33786610Y-38442409D01*
X33690049Y-38222272D01*
X33681686Y-38209472D01*
X33621656Y-38117589D01*
X33558571Y-38021031D01*
X33395764Y-37844175D01*
X33265585Y-37742852D01*
X33224773Y-37686143D01*
X33221098Y-37616370D01*
X33255730Y-37555687D01*
X33265579Y-37547151D01*
X33395764Y-37445825D01*
X33558571Y-37268969D01*
X33690049Y-37067728D01*
X33786610Y-36847591D01*
X33845620Y-36614563D01*
X33858814Y-36455336D01*
X33865471Y-36375005D01*
X33865471Y-36374994D01*
X33846691Y-36148362D01*
X33845620Y-36135437D01*
X33786610Y-35902409D01*
X33690049Y-35682272D01*
X33688173Y-35679401D01*
X33614232Y-35566226D01*
X33558571Y-35481031D01*
X33395764Y-35304175D01*
X33395759Y-35304171D01*
X33395757Y-35304169D01*
X33206075Y-35156533D01*
X33206069Y-35156529D01*
X32994657Y-35042118D01*
X32994652Y-35042116D01*
X32767300Y-34964066D01*
X32558303Y-34929191D01*
X32530192Y-34924500D01*
X32289808Y-34924500D01*
X32261697Y-34929191D01*
X32052699Y-34964066D01*
X31825347Y-35042116D01*
X31825342Y-35042118D01*
X31613931Y-35156529D01*
X31520661Y-35229124D01*
X31455667Y-35254766D01*
X31387127Y-35241199D01*
X31336802Y-35192731D01*
X31320499Y-35131270D01*
X31320499Y-34107129D01*
X31320498Y-34107123D01*
X31319732Y-34100000D01*
X31315299Y-34058757D01*
X31314091Y-34047516D01*
X31263797Y-33912671D01*
X31263793Y-33912664D01*
X31177547Y-33797455D01*
X31177544Y-33797452D01*
X31062335Y-33711206D01*
X31062328Y-33711202D01*
X30927482Y-33660908D01*
X30927483Y-33660908D01*
X30867883Y-33654501D01*
X30867881Y-33654500D01*
X30867873Y-33654500D01*
X30867865Y-33654500D01*
X29194096Y-33654500D01*
X29127057Y-33634815D01*
X29081302Y-33582011D01*
X29071358Y-33512853D01*
X29100383Y-33449297D01*
X29106415Y-33442819D01*
X30115463Y-32433771D01*
X33193922Y-29355311D01*
X33199999Y-29349983D01*
X33228282Y-29328282D01*
X33324536Y-29202841D01*
X33385044Y-29056762D01*
X33389291Y-29024501D01*
X33405683Y-28900000D01*
X33401031Y-28864665D01*
X33400500Y-28856563D01*
X33400500Y-28845908D01*
X33420185Y-28778869D01*
X33464271Y-28740363D01*
X33463187Y-28738605D01*
X33469332Y-28734814D01*
X33469334Y-28734814D01*
X33618656Y-28642712D01*
X33712319Y-28549048D01*
X33773642Y-28515564D01*
X33843334Y-28520548D01*
X33887681Y-28549049D01*
X33981344Y-28642712D01*
X34130666Y-28734814D01*
X34297203Y-28789999D01*
X34297209Y-28789999D01*
X34301448Y-28790907D01*
X34362884Y-28824185D01*
X34396576Y-28885394D01*
X34399500Y-28912162D01*
X34399500Y-41755729D01*
X34391442Y-41799700D01*
X34339312Y-41937151D01*
X34339311Y-41937157D01*
X34319539Y-42099999D01*
X34319539Y-42100000D01*
X34339311Y-42262842D01*
X34339312Y-42262845D01*
X34397483Y-42416228D01*
X34455307Y-42500000D01*
X34490668Y-42551229D01*
X34490670Y-42551231D01*
X34490672Y-42551233D01*
X34613451Y-42660006D01*
X34613452Y-42660006D01*
X34613454Y-42660008D01*
X34758705Y-42736242D01*
X34758707Y-42736242D01*
X34758708Y-42736243D01*
X34917978Y-42775500D01*
X34975500Y-42775500D01*
X35042539Y-42795185D01*
X35088294Y-42847989D01*
X35099500Y-42899500D01*
X35099500Y-50554091D01*
X35079815Y-50621130D01*
X35035731Y-50659641D01*
X35036813Y-50661395D01*
X35030667Y-50665185D01*
X35030666Y-50665186D01*
X34932419Y-50725784D01*
X34881342Y-50757289D01*
X34787681Y-50850951D01*
X34726358Y-50884436D01*
X34656666Y-50879452D01*
X34612319Y-50850951D01*
X34518657Y-50757289D01*
X34518656Y-50757288D01*
X34369334Y-50665186D01*
X34369332Y-50665185D01*
X34363187Y-50661395D01*
X34364327Y-50659546D01*
X34319869Y-50620391D01*
X34301782Y-50570379D01*
X34301770Y-50570290D01*
X34285044Y-50443238D01*
X34224538Y-50297163D01*
X34224538Y-50297162D01*
X34224536Y-50297159D01*
X34152450Y-50203215D01*
X34140366Y-50187466D01*
X34128283Y-50171718D01*
X34100009Y-50150023D01*
X34093912Y-50144677D01*
X26845320Y-42896085D01*
X26839980Y-42889995D01*
X26818282Y-42861718D01*
X26692841Y-42765464D01*
X26655505Y-42749999D01*
X26546762Y-42704956D01*
X26546760Y-42704955D01*
X26465958Y-42694318D01*
X26390001Y-42684318D01*
X26390000Y-42684318D01*
X26354670Y-42688969D01*
X26346572Y-42689500D01*
X20004855Y-42689500D01*
X19996754Y-42688968D01*
X19993591Y-42688552D01*
X19985191Y-42687445D01*
X19921297Y-42659172D01*
X19897580Y-42632330D01*
X19894400Y-42627463D01*
X19774612Y-42444113D01*
X19612366Y-42267866D01*
X19573927Y-42237948D01*
X19423331Y-42120734D01*
X19423325Y-42120730D01*
X19212642Y-42006713D01*
X19212637Y-42006711D01*
X18986067Y-41928930D01*
X18828540Y-41902643D01*
X18749778Y-41889500D01*
X18510222Y-41889500D01*
X18451150Y-41899357D01*
X18273932Y-41928930D01*
X18047362Y-42006711D01*
X18047357Y-42006713D01*
X17836674Y-42120730D01*
X17836668Y-42120734D01*
X17647641Y-42267860D01*
X17647631Y-42267869D01*
X17485385Y-42444116D01*
X17354362Y-42644663D01*
X17258136Y-42864036D01*
X17199328Y-43096262D01*
X17199326Y-43096270D01*
X17179546Y-43334993D01*
X17179546Y-43335006D01*
X17199326Y-43573729D01*
X17199328Y-43573737D01*
X17258136Y-43805963D01*
X17351730Y-44019336D01*
X17354364Y-44025340D01*
X17394420Y-44086650D01*
X17479340Y-44216631D01*
X17485388Y-44225887D01*
X17647634Y-44402134D01*
X17661357Y-44412815D01*
X17836668Y-44549265D01*
X17836674Y-44549269D01*
X17836677Y-44549271D01*
X18047359Y-44663287D01*
X18273935Y-44741070D01*
X18510222Y-44780500D01*
X18510223Y-44780500D01*
X18749776Y-44780500D01*
X18749778Y-44780500D01*
X18916967Y-44752600D01*
X18986330Y-44760982D01*
X19040152Y-44805534D01*
X19061343Y-44872113D01*
X19043176Y-44939579D01*
X19028608Y-44958889D01*
X19005385Y-44984116D01*
X18874362Y-45184663D01*
X18778136Y-45404036D01*
X18719328Y-45636262D01*
X18719326Y-45636270D01*
X18699546Y-45874993D01*
X18699546Y-45875006D01*
X18719326Y-46113729D01*
X18719328Y-46113737D01*
X18778136Y-46345963D01*
X18856669Y-46525000D01*
X18874364Y-46565340D01*
X18877555Y-46570224D01*
X19003401Y-46762847D01*
X19005388Y-46765887D01*
X19167634Y-46942134D01*
X19200493Y-46967709D01*
X19356668Y-47089265D01*
X19356674Y-47089269D01*
X19356677Y-47089271D01*
X19567359Y-47203287D01*
X19793935Y-47281070D01*
X20030222Y-47320500D01*
X20030223Y-47320500D01*
X20269777Y-47320500D01*
X20269778Y-47320500D01*
X20506065Y-47281070D01*
X20732641Y-47203287D01*
X20943323Y-47089271D01*
X21132366Y-46942134D01*
X21294612Y-46765887D01*
X21425636Y-46565340D01*
X21521864Y-46345962D01*
X21580672Y-46113737D01*
X21583645Y-46077846D01*
X21608798Y-46012664D01*
X21665200Y-45971425D01*
X21734943Y-45967226D01*
X21795885Y-46001400D01*
X21821345Y-46039592D01*
X21857572Y-46124844D01*
X22000592Y-46359191D01*
X22000599Y-46359201D01*
X22176199Y-46570207D01*
X22176204Y-46570212D01*
X22176209Y-46570218D01*
X22209448Y-46600000D01*
X22380672Y-46753419D01*
X22380674Y-46753420D01*
X22380677Y-46753423D01*
X22609641Y-46904904D01*
X22858221Y-47021433D01*
X23121119Y-47100527D01*
X23392731Y-47140500D01*
X23392736Y-47140500D01*
X23598552Y-47140500D01*
X23650744Y-47136679D01*
X23803805Y-47125477D01*
X24071775Y-47065784D01*
X24328198Y-46967711D01*
X24567609Y-46833347D01*
X24631880Y-46783718D01*
X24696968Y-46758327D01*
X24765456Y-46772156D01*
X24815594Y-46820817D01*
X24831466Y-46888861D01*
X24828554Y-46909457D01*
X24795113Y-47055971D01*
X24795113Y-47055973D01*
X24774953Y-47324995D01*
X24774953Y-47325004D01*
X24795113Y-47594026D01*
X24795113Y-47594028D01*
X24855142Y-47857033D01*
X24855148Y-47857052D01*
X24953709Y-48108181D01*
X24953708Y-48108181D01*
X25088602Y-48341822D01*
X25142294Y-48409151D01*
X25753389Y-47798056D01*
X25814712Y-47764571D01*
X25884403Y-47769555D01*
X25940337Y-47811426D01*
X25946059Y-47819758D01*
X25950577Y-47826948D01*
X26078052Y-47954423D01*
X26085229Y-47958933D01*
X26131522Y-48011264D01*
X26142173Y-48080317D01*
X26113801Y-48144166D01*
X26106942Y-48151609D01*
X25494848Y-48763702D01*
X25677483Y-48888220D01*
X25677485Y-48888221D01*
X25920539Y-49005269D01*
X25920537Y-49005269D01*
X26178337Y-49084790D01*
X26178343Y-49084792D01*
X26445101Y-49124999D01*
X26445110Y-49125000D01*
X26714890Y-49125000D01*
X26714898Y-49124999D01*
X26981656Y-49084792D01*
X26981662Y-49084790D01*
X27239461Y-49005269D01*
X27482521Y-48888218D01*
X27665150Y-48763702D01*
X27053057Y-48151610D01*
X27019572Y-48090287D01*
X27024556Y-48020596D01*
X27066427Y-47964662D01*
X27074769Y-47958934D01*
X27076351Y-47957939D01*
X27081948Y-47954423D01*
X27209423Y-47826948D01*
X27213933Y-47819769D01*
X27266267Y-47773476D01*
X27335320Y-47762826D01*
X27399169Y-47791200D01*
X27406610Y-47798057D01*
X28017703Y-48409151D01*
X28017704Y-48409150D01*
X28071393Y-48341828D01*
X28071400Y-48341817D01*
X28206290Y-48108181D01*
X28304851Y-47857052D01*
X28304857Y-47857033D01*
X28364886Y-47594028D01*
X28364886Y-47594026D01*
X28385047Y-47325004D01*
X28385047Y-47324995D01*
X28364886Y-47055973D01*
X28364886Y-47055971D01*
X28304857Y-46792966D01*
X28304851Y-46792947D01*
X28206290Y-46541818D01*
X28206291Y-46541818D01*
X28071397Y-46308177D01*
X28017704Y-46240847D01*
X28017703Y-46240847D01*
X27406609Y-46851942D01*
X27345286Y-46885427D01*
X27275594Y-46880443D01*
X27219661Y-46838571D01*
X27213942Y-46830244D01*
X27209423Y-46823052D01*
X27081948Y-46695577D01*
X27074764Y-46691063D01*
X27028474Y-46638730D01*
X27017825Y-46569676D01*
X27046200Y-46505828D01*
X27053056Y-46498389D01*
X27665150Y-45886296D01*
X27482517Y-45761779D01*
X27482516Y-45761778D01*
X27239460Y-45644730D01*
X27239462Y-45644730D01*
X26981662Y-45565209D01*
X26981656Y-45565207D01*
X26714898Y-45525000D01*
X26445101Y-45525000D01*
X26178343Y-45565207D01*
X26178337Y-45565209D01*
X25920538Y-45644730D01*
X25677485Y-45761778D01*
X25677476Y-45761783D01*
X25543461Y-45853153D01*
X25476982Y-45874653D01*
X25409432Y-45856799D01*
X25362258Y-45805259D01*
X25350438Y-45736396D01*
X25351673Y-45728176D01*
X25356878Y-45700000D01*
X25399236Y-45470674D01*
X25409262Y-45196320D01*
X25379236Y-44923429D01*
X25330538Y-44737157D01*
X25309797Y-44657821D01*
X25303486Y-44642971D01*
X25202423Y-44405148D01*
X25059405Y-44170804D01*
X25050609Y-44160234D01*
X24995338Y-44093819D01*
X24967585Y-44029698D01*
X24978904Y-43960751D01*
X25025702Y-43908870D01*
X25090650Y-43890500D01*
X26089903Y-43890500D01*
X26156942Y-43910185D01*
X26177584Y-43926819D01*
X32857017Y-50606252D01*
X32890502Y-50667575D01*
X32885518Y-50737267D01*
X32857018Y-50781614D01*
X32757287Y-50881345D01*
X32665187Y-51030663D01*
X32665185Y-51030666D01*
X32665186Y-51030666D01*
X32610001Y-51197203D01*
X32610001Y-51197204D01*
X32610000Y-51197204D01*
X32599500Y-51299983D01*
X32599500Y-52300001D01*
X32599501Y-52300019D01*
X32610000Y-52402796D01*
X32610001Y-52402799D01*
X32665185Y-52569331D01*
X32665187Y-52569336D01*
X32669159Y-52575776D01*
X32757288Y-52718656D01*
X32881344Y-52842712D01*
X33030666Y-52934814D01*
X33197203Y-52989999D01*
X33299991Y-53000500D01*
X34100008Y-53000499D01*
X34100016Y-53000498D01*
X34100019Y-53000498D01*
X34156302Y-52994748D01*
X34202797Y-52989999D01*
X34369334Y-52934814D01*
X34518656Y-52842712D01*
X34612321Y-52749046D01*
X34673640Y-52715564D01*
X34743332Y-52720548D01*
X34787680Y-52749048D01*
X34881344Y-52842712D01*
X35030666Y-52934814D01*
X35197203Y-52989999D01*
X35299991Y-53000500D01*
X36100008Y-53000499D01*
X36100016Y-53000498D01*
X36100019Y-53000498D01*
X36156302Y-52994748D01*
X36202797Y-52989999D01*
X36369334Y-52934814D01*
X36518656Y-52842712D01*
X36642712Y-52718656D01*
X36734814Y-52569334D01*
X36789999Y-52402797D01*
X36800500Y-52300009D01*
X36800499Y-51299992D01*
X36800498Y-51299983D01*
X36800498Y-51299975D01*
X36789999Y-51197203D01*
X36789998Y-51197200D01*
X36787610Y-51189993D01*
X36734814Y-51030666D01*
X36642712Y-50881344D01*
X36518656Y-50757288D01*
X36369334Y-50665186D01*
X36369332Y-50665185D01*
X36363187Y-50661395D01*
X36364290Y-50659605D01*
X36319649Y-50620290D01*
X36300500Y-50554091D01*
X36300500Y-43684181D01*
X36320185Y-43617142D01*
X36372989Y-43571387D01*
X36442147Y-43561443D01*
X36489594Y-43578641D01*
X36580666Y-43634814D01*
X36747203Y-43689999D01*
X36849991Y-43700500D01*
X37650008Y-43700499D01*
X37650016Y-43700498D01*
X37650019Y-43700498D01*
X37714530Y-43693908D01*
X37752797Y-43689999D01*
X37919334Y-43634814D01*
X38068656Y-43542712D01*
X38162318Y-43449048D01*
X38223642Y-43415564D01*
X38293334Y-43420548D01*
X38337681Y-43449049D01*
X38431344Y-43542712D01*
X38580666Y-43634814D01*
X38747203Y-43689999D01*
X38849991Y-43700500D01*
X39568001Y-43700499D01*
X39635040Y-43720183D01*
X39680795Y-43772987D01*
X39683943Y-43780527D01*
X39697482Y-43816227D01*
X39773819Y-43926819D01*
X39790668Y-43951229D01*
X39790670Y-43951231D01*
X39790672Y-43951233D01*
X39913451Y-44060006D01*
X39913452Y-44060006D01*
X39913454Y-44060008D01*
X40058705Y-44136242D01*
X40058707Y-44136242D01*
X40058708Y-44136243D01*
X40155175Y-44160020D01*
X40215556Y-44195177D01*
X40247344Y-44257396D01*
X40249500Y-44280417D01*
X40249500Y-50806571D01*
X40248969Y-50814669D01*
X40244318Y-50850000D01*
X40248195Y-50879452D01*
X40249500Y-50889360D01*
X40264955Y-51006760D01*
X40264956Y-51006762D01*
X40323128Y-51147203D01*
X40325464Y-51152841D01*
X40421718Y-51278282D01*
X40449995Y-51299980D01*
X40456085Y-51305320D01*
X40556967Y-51406202D01*
X40613181Y-51462416D01*
X40646666Y-51523739D01*
X40649500Y-51550097D01*
X40649500Y-52250001D01*
X40649501Y-52250019D01*
X40660000Y-52352796D01*
X40660001Y-52352799D01*
X40676569Y-52402796D01*
X40715186Y-52519334D01*
X40807288Y-52668656D01*
X40931344Y-52792712D01*
X41080666Y-52884814D01*
X41247203Y-52939999D01*
X41349991Y-52950500D01*
X42150008Y-52950499D01*
X42150016Y-52950498D01*
X42150019Y-52950498D01*
X42206302Y-52944748D01*
X42252797Y-52939999D01*
X42419334Y-52884814D01*
X42568656Y-52792712D01*
X42662319Y-52699048D01*
X42723642Y-52665564D01*
X42793334Y-52670548D01*
X42837681Y-52699049D01*
X42931344Y-52792712D01*
X43080666Y-52884814D01*
X43247203Y-52939999D01*
X43349991Y-52950500D01*
X44049902Y-52950499D01*
X44116941Y-52970183D01*
X44137583Y-52986818D01*
X44394669Y-53243904D01*
X44400016Y-53250000D01*
X44421718Y-53278282D01*
X44543937Y-53372063D01*
X44545466Y-53373405D01*
X44547158Y-53374535D01*
X44547159Y-53374536D01*
X44693238Y-53435044D01*
X44771618Y-53445363D01*
X44849999Y-53455682D01*
X44850000Y-53455682D01*
X44885329Y-53451030D01*
X44893428Y-53450500D01*
X45435501Y-53450500D01*
X45502540Y-53470185D01*
X45548295Y-53522989D01*
X45559501Y-53574500D01*
X45559501Y-53897876D01*
X45565908Y-53957483D01*
X45612413Y-54082167D01*
X45617397Y-54151859D01*
X45583912Y-54213182D01*
X45522589Y-54246666D01*
X45496231Y-54249500D01*
X17141713Y-54249500D01*
X17074674Y-54229815D01*
X17028919Y-54177011D01*
X17018975Y-54107853D01*
X17048000Y-54044297D01*
X17094258Y-54010939D01*
X17390833Y-53888094D01*
X17705452Y-53714211D01*
X17998623Y-53506194D01*
X18266661Y-53266661D01*
X18506194Y-52998623D01*
X18714211Y-52705452D01*
X18888094Y-52390833D01*
X19025659Y-52058724D01*
X19125173Y-51713300D01*
X19185387Y-51358907D01*
X19205543Y-51000000D01*
X19185387Y-50641093D01*
X19125173Y-50286700D01*
X19025659Y-49941276D01*
X18888094Y-49609167D01*
X18714211Y-49294548D01*
X18655430Y-49211705D01*
X18506194Y-49001377D01*
X18415598Y-48900000D01*
X18266661Y-48733339D01*
X17998623Y-48493806D01*
X17997986Y-48493354D01*
X17705454Y-48285790D01*
X17548142Y-48198847D01*
X17390833Y-48111906D01*
X17338640Y-48090287D01*
X17242191Y-48050336D01*
X17058724Y-47974341D01*
X17058720Y-47974339D01*
X17058718Y-47974339D01*
X16713305Y-47874828D01*
X16713296Y-47874826D01*
X16358914Y-47814614D01*
X16358902Y-47814612D01*
X16000000Y-47794457D01*
X15641097Y-47814612D01*
X15641085Y-47814614D01*
X15286703Y-47874826D01*
X15286694Y-47874828D01*
X14941281Y-47974339D01*
X14609168Y-48111905D01*
X14294545Y-48285790D01*
X14001377Y-48493805D01*
X13733339Y-48733339D01*
X13493805Y-49001377D01*
X13285790Y-49294545D01*
X13233028Y-49390012D01*
X13183371Y-49439165D01*
X13115023Y-49453668D01*
X13049684Y-49428918D01*
X13008099Y-49372771D01*
X13000500Y-49330031D01*
X13000500Y-29669968D01*
X13020185Y-29602929D01*
X13072989Y-29557174D01*
X13142147Y-29547230D01*
X13205703Y-29576255D01*
X13233026Y-29609985D01*
X13235901Y-29615186D01*
X13285790Y-29705454D01*
X13493805Y-29998622D01*
X13499658Y-30005171D01*
X13733339Y-30266661D01*
X14001377Y-30506194D01*
X14294548Y-30714211D01*
X14609167Y-30888094D01*
X14941276Y-31025659D01*
X15286700Y-31125173D01*
X15641093Y-31185387D01*
X16000000Y-31205543D01*
X16358907Y-31185387D01*
X16713300Y-31125173D01*
X17058724Y-31025659D01*
X17390833Y-30888094D01*
X17705452Y-30714211D01*
X17998623Y-30506194D01*
X18266661Y-30266661D01*
X18506194Y-29998623D01*
X18714211Y-29705452D01*
X18888094Y-29390833D01*
X19025659Y-29058724D01*
X19125173Y-28713300D01*
X19185387Y-28358907D01*
X19205543Y-28000000D01*
X19185387Y-27641093D01*
X19125173Y-27286700D01*
X19025659Y-26941276D01*
X18888094Y-26609167D01*
X18714211Y-26294548D01*
X18667092Y-26228141D01*
X18506194Y-26001377D01*
X18487687Y-25980668D01*
X18266661Y-25733339D01*
X17998623Y-25493806D01*
X17998622Y-25493805D01*
X17705454Y-25285790D01*
X17609988Y-25233028D01*
X17560835Y-25183371D01*
X17546332Y-25115023D01*
X17571082Y-25049684D01*
X17627229Y-25008099D01*
X17669969Y-25000500D01*
X72330031Y-25000500D01*
X72397070Y-25020185D01*
G37*
G04 #@! TD.AperFunction*
M02*
