G04 #@! TF.GenerationSoftware,KiCad,Pcbnew,7.0.7-2.fc38*
G04 #@! TF.CreationDate,2023-10-29T11:35:09+01:00*
G04 #@! TF.ProjectId,mangopimqpro-lan8720,6d616e67-6f70-4696-9d71-70726f2d6c61,rev?*
G04 #@! TF.SameCoordinates,Original*
G04 #@! TF.FileFunction,Soldermask,Bot*
G04 #@! TF.FilePolarity,Negative*
%FSLAX46Y46*%
G04 Gerber Fmt 4.6, Leading zero omitted, Abs format (unit mm)*
G04 Created by KiCad (PCBNEW 7.0.7-2.fc38) date 2023-10-29 11:35:09*
%MOMM*%
%LPD*%
G01*
G04 APERTURE LIST*
%ADD10C,3.250000*%
%ADD11C,1.890000*%
%ADD12R,1.900000X1.900000*%
%ADD13C,1.900000*%
%ADD14C,2.600000*%
%ADD15C,5.400000*%
%ADD16R,1.300000X0.300000*%
%ADD17R,2.200000X1.800000*%
G04 APERTURE END LIST*
D10*
X23530000Y-33835000D03*
X23530000Y-45265000D03*
D11*
X20150000Y-45875000D03*
X18630000Y-43335000D03*
X20150000Y-35765000D03*
X18630000Y-33225000D03*
D12*
X29870000Y-35105000D03*
D13*
X32410000Y-36375000D03*
X29870000Y-37645000D03*
X32410000Y-38915000D03*
X29870000Y-40185000D03*
X32410000Y-41455000D03*
X29870000Y-42725000D03*
X32410000Y-43995000D03*
D14*
X26580000Y-31775000D03*
X26580000Y-47325000D03*
D15*
X74000000Y-28000000D03*
X74000000Y-51000000D03*
X16000000Y-51000000D03*
X16000000Y-28000000D03*
D16*
X65200000Y-33750000D03*
X65200000Y-34250000D03*
X65200000Y-34750000D03*
X65200000Y-35250000D03*
X65200000Y-35750000D03*
X65200000Y-36250000D03*
X65200000Y-36750000D03*
X65200000Y-37250000D03*
X65200000Y-37750000D03*
X65200000Y-38250000D03*
X65200000Y-38750000D03*
X65200000Y-39250000D03*
X65200000Y-39750000D03*
X65200000Y-40250000D03*
X65200000Y-40750000D03*
X65200000Y-41250000D03*
X65200000Y-41750000D03*
X65200000Y-42250000D03*
X65200000Y-42750000D03*
X65200000Y-43250000D03*
X65200000Y-43750000D03*
X65200000Y-44250000D03*
X65200000Y-44750000D03*
X65200000Y-45250000D03*
D17*
X68450000Y-31850000D03*
X68450000Y-47150000D03*
M02*
